<svg width="48" height="48" viewBox="0 0 48 48" fill="none" xmlns="http://www.w3.org/2000/svg">
<path d="M7.34062 8.39064C5.89687 8.78439 4.89374 9.84377 4.59374 11.2969C4.52812 11.6063 4.50937 15.7781 4.51874 23.9063L4.54687 36.0469L4.76249 36.5906C5.18437 37.6313 6.00937 38.4188 7.06874 38.7844C7.51874 38.9438 8.40937 38.9531 23.9531 38.9531C42.0844 38.9531 40.7906 39 41.8125 38.3344C42.4406 37.9313 42.9281 37.3219 43.2375 36.5625L43.4531 36.0469V23.6719C43.4531 12 43.4437 11.2688 43.2844 10.8188C42.9187 9.75939 42.1312 8.93439 41.0906 8.51252L40.5469 8.29689L24.1875 8.27814C10.3031 8.25939 7.75312 8.27814 7.34062 8.39064ZM40.7437 9.95627C41.1281 10.1625 41.5875 10.6219 41.7937 11.0063C41.9344 11.2594 41.9531 11.6531 41.9812 13.8938L42.0094 16.5H24.0094H5.99999V14.0813C5.99999 12.6375 6.03749 11.5219 6.10312 11.3063C6.23437 10.8281 6.96562 10.0688 7.45312 9.89064C7.77187 9.77814 10.2375 9.75939 24.1406 9.77814C39.375 9.79689 40.4719 9.80627 40.7437 9.95627ZM42 26.7844C42 32.9063 41.9719 35.6906 41.8969 35.9531C41.7562 36.4688 40.9594 37.2563 40.4437 37.3969C40.1625 37.4719 35.5219 37.4906 23.8031 37.4813C8.63437 37.4531 7.52812 37.4438 7.25624 37.2938C6.87187 37.0875 6.41249 36.6281 6.20624 36.2438C6.05624 35.9719 6.04687 35.2594 6.01874 26.9719L5.99999 18H24H42V26.7844Z" fill="#18181A"/>
<path d="M8.24995 12.0188C7.54683 12.5063 7.3312 13.1907 7.67808 13.8938C7.95933 14.475 8.46558 14.7563 9.14995 14.7C9.57183 14.6625 9.72183 14.5969 9.9937 14.3344C10.575 13.7719 10.6406 12.9563 10.1531 12.375C9.6562 11.775 8.8312 11.625 8.24995 12.0188Z" fill="#18181A"/>
<path d="M12.75 12.0188C12.0468 12.5063 11.8312 13.1907 12.1781 13.8938C12.4593 14.475 12.9656 14.7563 13.65 14.7C14.0718 14.6625 14.2218 14.5969 14.4937 14.3344C15.075 13.7719 15.1406 12.9563 14.6531 12.375C14.1562 11.775 13.3312 11.625 12.75 12.0188Z" fill="#18181A"/>
<path d="M17.25 12.0188C16.5468 12.5063 16.3312 13.1907 16.6781 13.8938C16.9593 14.475 17.4656 14.7563 18.15 14.7C18.5718 14.6625 18.7218 14.5969 18.9937 14.3344C19.575 13.7719 19.6406 12.9563 19.1531 12.375C18.6562 11.775 17.8312 11.625 17.25 12.0188Z" fill="#18181A"/>
<path d="M17.175 24.5812C14.5125 27.3375 14.3438 27.525 14.3438 27.8344C14.3438 28.0594 14.5781 28.3781 15.5813 29.5031C18.3375 32.5969 18.5531 32.8125 18.9 32.8125C19.3219 32.8125 19.5938 32.5406 19.5938 32.1094C19.5938 31.7531 19.5375 31.6875 17.175 29.0625C16.6031 28.425 16.1344 27.8625 16.1438 27.825C16.1625 27.7875 16.9406 26.9625 17.8875 25.9781C19.4438 24.3562 19.5938 24.1594 19.5938 23.8594C19.5938 23.4281 19.3219 23.1562 18.8906 23.1562C18.5813 23.1562 18.4406 23.2781 17.175 24.5812Z" fill="#18181A"/>
<path d="M24.8625 23.325C24.7594 23.4281 23.9156 25.4344 22.9781 27.7875C21.3656 31.8094 21.2719 32.0906 21.375 32.3531C21.4406 32.5031 21.5719 32.6719 21.6656 32.7188C21.9375 32.8688 22.3687 32.8219 22.5375 32.6344C22.7625 32.3906 26.0625 24.1031 26.0625 23.7938C26.0625 23.2313 25.2562 22.9313 24.8625 23.325Z" fill="#18181A"/>
<path d="M28.125 23.3437C28.0125 23.4562 27.9375 23.6531 27.9375 23.8594C27.9375 24.15 28.0969 24.3469 29.7375 26.0156L31.5281 27.8531L31.2469 28.1531C31.0969 28.3219 30.2812 29.2031 29.4563 30.1125C28.125 31.5656 27.9375 31.8187 27.9375 32.0906C27.9375 32.6906 28.6875 33.0469 29.1375 32.6437C29.2406 32.5594 30.2156 31.5 31.3031 30.3094C32.9719 28.4625 33.2812 28.0781 33.2812 27.8344C33.2812 27.5906 32.9906 27.2531 31.2469 25.4437C30.1313 24.2812 29.1375 23.2875 29.0531 23.2406C28.7719 23.1 28.3219 23.1469 28.125 23.3437Z" fill="#18181A"/>
</svg>
