<svg width="48" height="48" viewBox="0 0 48 48" fill="none" xmlns="http://www.w3.org/2000/svg">
<path d="M32.3364 5.20068H41.9274" stroke="#18181A" stroke-width="1.2" stroke-miterlimit="2.6131" stroke-linecap="round" stroke-linejoin="round"/>
<path d="M41.9274 5.20068C42.6229 5.20068 43.1917 5.77169 43.1917 6.46376" stroke="#18181A" stroke-width="1.2" stroke-miterlimit="2.6131" stroke-linecap="round" stroke-linejoin="round"/>
<path d="M43.1917 6.46375V24.0535" stroke="#18181A" stroke-width="1.2" stroke-miterlimit="2.6131" stroke-linecap="round" stroke-linejoin="round"/>
<path d="M43.1917 24.0535C43.1917 24.7467 42.6206 25.3178 41.9274 25.3178" stroke="#18181A" stroke-width="1.2" stroke-miterlimit="2.6131" stroke-linecap="round" stroke-linejoin="round"/>
<path d="M41.9274 25.3179H41.1691" stroke="#18181A" stroke-width="1.2" stroke-miterlimit="2.6131" stroke-linecap="round" stroke-linejoin="round"/>
<path d="M26.8673 14.5113V10.2613L32.3363 5.20068" stroke="#18181A" stroke-width="1.2" stroke-miterlimit="2.6131" stroke-linecap="round" stroke-linejoin="round"/>
<path d="M32.5957 5.20068V9.75416" stroke="#18181A" stroke-width="1.2" stroke-miterlimit="2.6131" stroke-linecap="round" stroke-linejoin="round"/>
<path d="M32.5956 9.75415C32.5956 10.1252 32.2875 10.4322 31.9176 10.4322" stroke="#18181A" stroke-width="1.2" stroke-miterlimit="2.6131" stroke-linecap="round" stroke-linejoin="round"/>
<path d="M31.9177 10.4323H26.8673" stroke="#18181A" stroke-width="1.2" stroke-miterlimit="2.6131" stroke-linecap="round" stroke-linejoin="round"/>
<path d="M32.2247 18.3763V18.9683M32.2247 20.9595V21.8842M32.2247 23.8754V24.8002M32.2247 26.7902V27.7161M32.2247 29.7061V37.891" stroke="#18181A" stroke-width="1.2" stroke-miterlimit="2.6131" stroke-linecap="round" stroke-linejoin="round"/>
<path d="M32.2247 37.891L35.7861 34.3284" stroke="#18181A" stroke-width="1.2" stroke-miterlimit="2.6131" stroke-linecap="round" stroke-linejoin="round"/>
<path d="M32.2247 37.891L28.3271 33.9922" stroke="#18181A" stroke-width="1.2" stroke-miterlimit="2.6131" stroke-linecap="round" stroke-linejoin="round"/>
<path fill-rule="evenodd" clip-rule="evenodd" d="M4.25072 14.5125H5.69648L5.5976 13.4144C5.53011 12.6713 6.08259 12.0641 6.82467 12.0641H17.0018C17.7451 12.0641 18.4069 12.6713 18.4744 13.4144L18.5744 14.5125H38.1635C39.2778 14.5125 40.2711 15.4231 40.3722 16.5375L42.5706 40.7732C42.6717 41.8874 41.8424 42.7993 40.7282 42.7993H6.81651C5.70224 42.7993 4.70778 41.8874 4.60659 40.7732L2.40838 16.5375C2.3072 15.4231 3.13645 14.5125 4.25072 14.5125Z" stroke="#18181A" stroke-width="1.2" stroke-miterlimit="2.6131" stroke-linecap="round" stroke-linejoin="round"/>
<path d="M43.1917 18.2344H44.0466C45.0143 18.2344 45.7063 19.0253 45.5865 19.993L42.9729 41.0394C42.852 42.0072 41.9634 42.7992 40.9956 42.7992" stroke="#18181A" stroke-width="1.2" stroke-miterlimit="2.6131" stroke-linecap="round" stroke-linejoin="round"/>
</svg>
