<svg width="288" height="136" viewBox="0 0 288 136" fill="none" xmlns="http://www.w3.org/2000/svg">
<rect width="288" height="136" rx="8" fill="white"/>
<path d="M67.275 29.7813C63.425 30.0938 62.425 30.1938 62.3 30.275C62.0562 30.4375 61.9625 30.6625 61.9875 31.0563C62 31.1688 62.3812 31.5938 63.325 32.5438L64.6562 33.875L59.125 39.4063C56.0812 42.45 53.5812 44.9375 53.5625 44.9375C53.5437 44.9375 51.35 42.7375 48.6875 40.0438C46.025 37.3563 43.775 35.1063 43.6875 35.05C43.5937 34.9813 43.4125 34.9375 43.25 34.9375H42.9687L35.2687 42.6375C31.0312 46.875 27.5375 50.4188 27.4937 50.5125C27.3312 50.9063 27.4 50.9938 29.1687 52.7625C30.2625 53.85 30.9062 54.4438 31.0125 54.475C31.1125 54.4938 31.2625 54.4938 31.3562 54.475C31.475 54.4438 33.4 52.5625 37.4062 48.5563L43.2812 42.6875L48.1562 47.5688C50.8375 50.25 53.1062 52.4875 53.2 52.5375C53.2937 52.5875 53.4875 52.625 53.6375 52.625H53.9062L61.3 45.2313L68.6937 37.8438L69.9875 39.175C71.2937 40.5188 71.3187 40.5375 71.7187 40.5063C71.9312 40.4875 72.1312 40.3563 72.2312 40.1625C72.3 40.025 72.425 38.7188 72.725 35.0125C72.9437 32.2813 73.1062 29.9813 73.0875 29.9063C73.0187 29.6375 72.7187 29.4188 72.3937 29.4C72.2312 29.3938 69.925 29.5625 67.275 29.7813ZM71.5625 31.1063C71.5625 31.3438 71.0687 37.6688 71.0312 37.9125C71 38.1 70.9875 38.0875 70.0187 37.1125C68.9812 36.0688 68.8437 35.9813 68.4687 36.125C68.3562 36.1688 65.4187 39.0563 60.925 43.55L53.5625 50.9063L48.575 45.9188C43.7187 41.0688 43.5875 40.9375 43.3562 40.9375C43.225 40.9375 43.0562 40.9688 42.9812 41.0063C42.9062 41.0438 40.2125 43.7 37 46.9125L31.1562 52.75L30.1687 51.7625L29.1875 50.7813L36.2375 43.7313L43.2875 36.6813L46.6562 40.075C48.5125 41.9438 50.7312 44.1813 51.5937 45.0438C53.1937 46.6688 53.3687 46.8 53.7375 46.7188C53.9437 46.675 66.3375 34.3063 66.4062 34.075C66.5062 33.7313 66.3875 33.5563 65.3562 32.5125C64.8 31.9563 64.3625 31.5 64.375 31.4938C64.5187 31.4625 70.875 30.95 71.175 30.9438C71.5562 30.9375 71.5625 30.9375 71.5625 31.1063Z" fill="#0176D3" stroke="#0176D3" stroke-width="0.4"/>
<path d="M63.7755 50.0562C63.663 50.125 63.5505 50.2125 63.5255 50.2625C63.4942 50.3063 63.4567 57.275 63.438 65.75L63.4067 81.1562L61.7692 81.175L60.1255 81.1875V68.0813C60.1255 57.8 60.1067 54.9375 60.0442 54.8188C60.0067 54.7375 59.888 54.6063 59.7942 54.5375C59.6192 54.4062 59.5755 54.4062 56.0692 54.4062C52.2692 54.4062 52.2817 54.4062 52.1067 54.7188C52.0505 54.8125 52.0255 58.1 52.0005 68L51.9692 81.1562H50.2817H48.5942L48.563 70.2812C48.538 61.9062 48.513 59.375 48.4567 59.275C48.413 59.2 48.2817 59.0938 48.163 59.0375C47.9755 58.95 47.563 58.9375 44.5692 58.9375C40.913 58.9375 40.888 58.9375 40.6692 59.2687C40.5692 59.4187 40.563 60.1875 40.5505 70.2937L40.5317 81.1562H38.8442H37.1567L37.1255 72.4812L37.0942 63.8L36.888 63.6187L36.688 63.4375H33.063H29.438L29.238 63.6187L29.0317 63.8L29.013 72.4937L29.0005 81.1875H27.3692C25.6255 81.1875 25.4755 81.2125 25.3317 81.5125C25.1317 81.9125 25.2192 82.2812 25.5755 82.5C25.7817 82.625 25.8192 82.625 50.2817 82.625C74.4317 82.625 74.7817 82.625 74.9817 82.5C75.3192 82.3 75.413 81.9563 75.2505 81.5625C75.1067 81.2062 74.988 81.1875 73.188 81.1875H71.563V79.1187C71.563 76.825 71.5567 76.7875 71.1505 76.5938C70.9005 76.475 70.8005 76.475 70.5317 76.5875C70.163 76.7438 70.1567 76.7688 70.1255 79.0625L70.0942 81.1562L67.488 81.175L64.8755 81.1875V66.2812V51.375L67.488 51.3875L70.0942 51.4062L70.1255 52.2812C70.1567 53.2313 70.2067 53.375 70.5005 53.5312C70.7317 53.65 70.9567 53.65 71.188 53.5312C71.5317 53.3563 71.563 53.2 71.563 51.7812C71.563 50.75 71.5442 50.4562 71.4692 50.3125C71.2692 49.9313 71.3505 49.9375 67.488 49.9375C64.1317 49.9375 63.963 49.9437 63.7755 50.0562ZM58.6755 68.5125L58.6567 81.1562L56.0505 81.175L53.438 81.1875V68.5312V55.875H56.063H58.688L58.6755 68.5125ZM47.1255 70.8125V81.1875H44.563H42.0005V70.8125V60.4375H44.563H47.1255V70.8125ZM35.688 73.0312V81.1875L33.0817 81.175L30.4692 81.1562L30.4505 73.0125L30.438 64.875H33.063H35.688V73.0312Z" fill="#0176D3" stroke="#0176D3" stroke-width="0.4"/>
<path d="M72.0875 53.5687C71.7688 53.6625 71.5938 53.9 71.5938 54.25C71.5938 54.6562 71.7188 54.775 72.6688 55.2875C73.0938 55.5187 73.4313 55.7125 73.425 55.7187C73.4125 55.7312 73.1563 55.8375 72.8438 55.9687C69.7375 57.2375 67.4563 60.1062 66.8688 63.475C66.6938 64.5 66.6938 65.9312 66.875 66.9625C67.4125 70.075 69.4188 72.7812 72.2188 74.1687C73.5563 74.8375 75.3125 75.2687 75.8125 75.0625C76.2938 74.8625 76.3188 74.05 75.8563 73.8062C75.7813 73.7625 75.5125 73.6937 75.25 73.65C74.4313 73.5062 73.6813 73.2562 72.9063 72.875C70.5938 71.7312 68.9625 69.6437 68.3688 67.0625C68.2063 66.375 68.1438 64.8562 68.2438 64.1062C68.6125 61.375 70.1875 59.0375 72.55 57.7312C73.0563 57.45 74 57.0437 74.0438 57.0812C74.0563 57.0937 73.8438 57.5125 73.5688 58.0062C73.2938 58.5 73.0563 58.9812 73.0313 59.0687C72.9375 59.4375 73.3563 59.9375 73.7563 59.9375C74.1313 59.9375 74.2875 59.725 75.2688 57.9375C76.2625 56.1187 76.325 55.9437 76.1125 55.6125C76.0438 55.5125 75.4438 55.1437 74.4563 54.6062C72.2938 53.4312 72.4 53.4812 72.0875 53.5687Z" fill="#0176D3" stroke="#0176D3" stroke-width="0.4"/>
<path d="M77.8318 55.2937C77.7506 55.3125 77.6068 55.4062 77.5006 55.5062C77.3443 55.6687 77.3131 55.7437 77.3131 56C77.3131 56.25 77.3443 56.3312 77.4943 56.4812C77.6443 56.6312 77.7881 56.6875 78.3756 56.8C79.2193 56.9687 79.8381 57.1687 80.5256 57.5C83.0693 58.7187 84.8506 61.1875 85.2568 64.0562C85.3568 64.7812 85.2943 66.3687 85.1318 67.0625C84.7568 68.6937 84.0693 69.975 82.9318 71.1562C82.0068 72.1187 80.9381 72.8187 79.7568 73.25C79.2568 73.4312 79.2568 73.4312 79.3068 73.2937C79.3381 73.2187 79.5506 72.7375 79.7756 72.225C80.0068 71.7 80.1881 71.2062 80.1881 71.0875C80.1881 70.8312 79.9443 70.5312 79.6631 70.4375C79.4193 70.3625 79.1131 70.4562 78.9256 70.6625C78.8693 70.7312 78.4693 71.5875 78.0318 72.5812C77.1693 74.5375 77.1568 74.5937 77.4881 74.9125C77.5881 75.0062 78.4318 75.4 79.4943 75.8562C81.5506 76.7312 81.5881 76.7375 81.9318 76.3375C82.0756 76.175 82.1256 76.0625 82.1256 75.875C82.1256 75.4937 81.9256 75.3187 81.0631 74.9375L80.3006 74.6062L80.6318 74.4687C82.8631 73.5562 84.7943 71.7125 85.8193 69.5312C86.1506 68.8187 86.4193 68.025 86.5631 67.3125C87.6568 61.95 84.4568 56.8062 79.2256 55.5C78.4881 55.3187 78.0568 55.2562 77.8318 55.2937Z" fill="#0176D3" stroke="#0176D3" stroke-width="0.4"/>
<path d="M76.3449 59.2C76.1512 59.35 76.0012 59.6625 76.0012 59.9187C76.0012 60.075 75.9512 60.1187 75.5637 60.3C74.4199 60.8313 73.7199 62.125 73.9324 63.3187C74.1824 64.6875 75.2012 65.5938 76.6574 65.7438C77.5012 65.8312 77.9949 66.2125 78.1137 66.875C78.3324 68.0812 77.0824 68.9625 76.0262 68.3438C75.8824 68.2562 75.7012 68.0875 75.6199 67.9625C75.4574 67.6937 75.1637 67.5 74.9199 67.5C74.5199 67.5 74.1887 67.8375 74.1887 68.2375C74.1887 68.6937 75.0262 69.5562 75.6949 69.7937L76.0012 69.9062V70.2063C76.0012 70.6062 76.1387 70.9062 76.3887 71.0625C76.6512 71.2188 76.8512 71.2188 77.1137 71.0625C77.3699 70.9062 77.5012 70.6062 77.5012 70.1875C77.5012 69.9812 77.5262 69.875 77.5824 69.875C77.9199 69.8687 78.7699 69.2375 79.1262 68.7188C80.3324 66.95 79.1699 64.5687 76.9699 64.3063C76.3012 64.225 76.1074 64.1625 75.8262 63.9125C75.4824 63.6125 75.3574 63.3 75.3887 62.8125C75.4137 62.3125 75.6074 61.975 76.0012 61.7125C76.2199 61.5687 76.3199 61.5437 76.7387 61.5437C77.3012 61.5437 77.5137 61.6312 77.8074 61.9812C78.2012 62.4437 78.2637 62.4937 78.4699 62.5375C78.8887 62.6125 79.3137 62.25 79.3137 61.8062C79.3137 61.35 78.6074 60.5813 77.9137 60.275L77.5137 60.1062L77.4824 59.7875C77.4074 59.175 76.7824 58.85 76.3449 59.2Z" fill="#0176D3" stroke="#0176D3" stroke-width="0.4"/>
<path d="M117.926 33.772H120.796V45.336H123.932V47.898H120.796V52H117.828V47.898H108.644V45.63L117.926 33.772ZM117.968 38.28L112.2 45.63H117.968V38.28ZM133.465 33.772H136.335V45.336H139.471V47.898H136.335V52H133.367V47.898H124.183V45.63L133.465 33.772ZM133.507 38.28L127.739 45.63H133.507V38.28ZM142.088 52L154.268 33.996H157.306L145.14 52H142.088ZM154.898 52.294C154.244 52.294 153.628 52.14 153.05 51.832C152.48 51.524 152.023 51.062 151.678 50.446C151.332 49.8207 151.16 49.0413 151.16 48.108C151.16 47.1747 151.332 46.4 151.678 45.784C152.023 45.1587 152.48 44.692 153.05 44.384C153.628 44.076 154.244 43.922 154.898 43.922C155.57 43.922 156.195 44.076 156.774 44.384C157.352 44.692 157.814 45.1587 158.16 45.784C158.514 46.4 158.692 47.1747 158.692 48.108C158.692 49.0413 158.514 49.8207 158.16 50.446C157.814 51.062 157.352 51.524 156.774 51.832C156.195 52.14 155.57 52.294 154.898 52.294ZM154.898 50.348C155.346 50.348 155.705 50.1753 155.976 49.83C156.256 49.4847 156.396 48.9107 156.396 48.108C156.396 47.3053 156.256 46.7313 155.976 46.386C155.705 46.0313 155.346 45.854 154.898 45.854C154.45 45.854 154.09 46.0313 153.82 46.386C153.549 46.7313 153.414 47.3053 153.414 48.108C153.414 48.9107 153.549 49.4847 153.82 49.83C154.09 50.1753 154.45 50.348 154.898 50.348ZM144.524 41.99C143.87 41.99 143.259 41.836 142.69 41.528C142.12 41.22 141.658 40.758 141.304 40.142C140.958 39.5167 140.786 38.7373 140.786 37.804C140.786 36.88 140.958 36.11 141.304 35.494C141.658 34.878 142.12 34.416 142.69 34.108C143.259 33.8 143.87 33.646 144.524 33.646C145.205 33.646 145.83 33.8 146.4 34.108C146.978 34.416 147.44 34.878 147.786 35.494C148.14 36.11 148.318 36.88 148.318 37.804C148.318 38.7373 148.14 39.5167 147.786 40.142C147.44 40.758 146.978 41.22 146.4 41.528C145.83 41.836 145.205 41.99 144.524 41.99ZM144.524 40.058C144.962 40.058 145.322 39.8853 145.602 39.54C145.882 39.1947 146.022 38.616 146.022 37.804C146.022 37.0107 145.882 36.4413 145.602 36.096C145.322 35.7413 144.962 35.564 144.524 35.564C144.085 35.564 143.73 35.7413 143.46 36.096C143.189 36.4413 143.054 37.0107 143.054 37.804C143.054 38.616 143.189 39.1947 143.46 39.54C143.73 39.8853 144.085 40.058 144.524 40.058Z" fill="#18181A"/>
<path d="M109.818 82V70.696H113.76C115.05 70.696 116.025 71.005 116.685 71.623C117.351 72.235 117.684 73.042 117.684 74.044C117.684 75.034 117.351 75.838 116.685 76.456C116.025 77.068 115.05 77.374 113.76 77.374H111.222V82H109.818ZM116.154 82L112.914 76.87H114.444L117.972 82H116.154ZM111.222 76.384H113.652C114.498 76.384 115.14 76.177 115.578 75.763C116.022 75.343 116.244 74.8 116.244 74.134C116.244 73.45 116.031 72.907 115.605 72.505C115.185 72.103 114.57 71.902 113.76 71.902H111.222V76.384ZM124.475 82.216C123.539 82.216 122.702 82 121.964 81.568C121.226 81.136 120.644 80.488 120.218 79.624C119.792 78.754 119.579 77.668 119.579 76.366C119.579 75.046 119.792 73.954 120.218 73.09C120.644 72.22 121.226 71.572 121.964 71.146C122.702 70.714 123.539 70.498 124.475 70.498C125.411 70.498 126.248 70.714 126.986 71.146C127.724 71.578 128.306 72.229 128.732 73.099C129.158 73.969 129.371 75.058 129.371 76.366C129.371 77.68 129.158 78.772 128.732 79.642C128.306 80.506 127.724 81.151 126.986 81.577C126.248 82.003 125.411 82.216 124.475 82.216ZM124.475 80.92C125.537 80.92 126.374 80.533 126.986 79.759C127.604 78.985 127.913 77.848 127.913 76.348C127.913 74.878 127.604 73.747 126.986 72.955C126.374 72.157 125.537 71.758 124.475 71.758C123.425 71.758 122.588 72.157 121.964 72.955C121.346 73.753 121.037 74.89 121.037 76.366C121.037 77.86 121.346 78.994 121.964 79.768C122.588 80.536 123.425 80.92 124.475 80.92ZM131.739 82V70.696H133.143V82H131.739ZM144.313 82.216C143.413 82.216 142.594 81.982 141.856 81.514C141.118 81.046 140.53 80.383 140.092 79.525C139.654 78.667 139.435 77.65 139.435 76.474C139.435 75.496 139.576 74.635 139.858 73.891C140.14 73.147 140.527 72.523 141.019 72.019C141.511 71.515 142.075 71.137 142.711 70.885C143.353 70.627 144.031 70.498 144.745 70.498C145.627 70.498 146.401 70.681 147.067 71.047C147.733 71.407 148.303 71.98 148.777 72.766L147.445 73.234C147.043 72.736 146.611 72.37 146.149 72.136C145.693 71.896 145.207 71.776 144.691 71.776C144.013 71.776 143.389 71.965 142.819 72.343C142.249 72.721 141.79 73.261 141.442 73.963C141.1 74.665 140.929 75.502 140.929 76.474C140.929 77.338 141.07 78.106 141.352 78.778C141.634 79.444 142.033 79.969 142.549 80.353C143.071 80.731 143.689 80.92 144.403 80.92C144.949 80.92 145.438 80.794 145.87 80.542C146.308 80.29 146.653 79.912 146.905 79.408C147.157 78.898 147.283 78.256 147.283 77.482H147.715C147.715 78.442 147.601 79.276 147.373 79.984C147.145 80.692 146.779 81.241 146.275 81.631C145.777 82.021 145.123 82.216 144.313 82.216ZM147.535 82L147.283 79.336V77.446L144.439 77.356V76.402H148.651V82H147.535ZM151.559 82V73.378H152.963V82H151.559ZM152.531 78.112C152.531 77.02 152.636 76.114 152.846 75.394C153.056 74.668 153.362 74.128 153.764 73.774C154.172 73.414 154.667 73.234 155.249 73.234C155.441 73.234 155.615 73.249 155.771 73.279C155.933 73.303 156.095 73.342 156.257 73.396L156.167 74.782C155.999 74.728 155.816 74.683 155.618 74.647C155.42 74.605 155.243 74.584 155.087 74.584C154.577 74.584 154.166 74.731 153.854 75.025C153.542 75.313 153.314 75.721 153.17 76.249C153.032 76.777 152.963 77.398 152.963 78.112H152.531ZM160.817 82.216C160.043 82.216 159.353 82.045 158.747 81.703C158.147 81.361 157.673 80.854 157.325 80.182C156.977 79.51 156.803 78.682 156.803 77.698C156.803 76.708 156.977 75.88 157.325 75.214C157.673 74.542 158.147 74.035 158.747 73.693C159.353 73.351 160.043 73.18 160.817 73.18C161.585 73.18 162.269 73.351 162.869 73.693C163.475 74.035 163.949 74.542 164.291 75.214C164.639 75.88 164.813 76.708 164.813 77.698C164.813 78.682 164.639 79.51 164.291 80.182C163.949 80.854 163.475 81.361 162.869 81.703C162.269 82.045 161.585 82.216 160.817 82.216ZM160.781 80.992C161.339 80.992 161.813 80.86 162.203 80.596C162.593 80.326 162.887 79.945 163.085 79.453C163.289 78.961 163.391 78.376 163.391 77.698C163.391 76.672 163.178 75.865 162.752 75.277C162.326 74.683 161.693 74.386 160.853 74.386C160.289 74.386 159.812 74.521 159.422 74.791C159.038 75.055 158.744 75.436 158.54 75.934C158.342 76.426 158.243 77.014 158.243 77.698C158.243 78.712 158.456 79.516 158.882 80.11C159.314 80.698 159.947 80.992 160.781 80.992ZM165.693 73.396H167.151L169.347 80.578H169.167L171.309 73.81H172.479L174.603 80.596H174.441L176.637 73.396H178.041L175.215 82H173.847L171.759 75.646H171.975L169.905 82H168.537L165.693 73.396ZM182.516 82.216C182.048 82.216 181.628 82.126 181.256 81.946C180.884 81.766 180.59 81.496 180.374 81.136C180.158 80.776 180.05 80.326 180.05 79.786V71.002H181.436V79.75C181.436 80.638 181.85 81.082 182.678 81.082C182.924 81.082 183.161 81.055 183.389 81.001C183.623 80.947 183.884 80.866 184.172 80.758L184.37 81.766C184.064 81.898 183.758 82.006 183.452 82.09C183.152 82.174 182.84 82.216 182.516 82.216ZM178.664 74.368V73.396H184.154V74.368H178.664ZM192.397 82V76.942C192.397 76.12 192.199 75.496 191.803 75.07C191.413 74.638 190.879 74.422 190.201 74.422C189.685 74.422 189.238 74.563 188.86 74.845C188.482 75.127 188.191 75.532 187.987 76.06C187.783 76.582 187.681 77.206 187.681 77.932H187.141C187.141 76.93 187.273 76.075 187.537 75.367C187.801 74.659 188.185 74.119 188.689 73.747C189.199 73.369 189.817 73.18 190.543 73.18C191.221 73.18 191.8 73.333 192.28 73.639C192.766 73.939 193.138 74.371 193.396 74.935C193.654 75.499 193.783 76.168 193.783 76.942V82H192.397ZM186.277 82V69.724H187.681V82H186.277Z" fill="#6E707E"/>
</svg>
