<svg width="228" height="48" viewBox="0 0 228 48" fill="none" xmlns="http://www.w3.org/2000/svg">
<circle cx="24" cy="24" r="24" fill="white"/>
<path d="M13.2439 9.11247C12.1189 9.40622 11.2502 10.375 11.0502 11.5437C10.7252 13.4875 12.5127 15.2812 14.4564 14.95C15.1127 14.8375 15.6252 14.575 16.0877 14.1125C17.2814 12.9125 17.2877 11.0937 16.0939 9.89997C15.3189 9.11872 14.3002 8.83747 13.2439 9.11247ZM14.8252 10.175C15.1939 10.3375 15.6189 10.7562 15.8189 11.1562C16.0377 11.6062 16.0377 12.3937 15.8189 12.8437C15.6189 13.2375 15.2377 13.6187 14.8439 13.8187C14.5877 13.9437 14.4377 13.9687 14.0002 13.9687C13.3752 13.9687 13.0064 13.825 12.5939 13.4062C11.5377 12.3562 11.9752 10.55 13.4002 10.0875C13.7564 9.96872 14.4627 10.0125 14.8252 10.175Z" fill="black"/>
<path d="M35.269 9.06248C35.0815 9.13748 32.0002 14.2812 32.0002 14.5187C32.0002 14.6187 32.0627 14.7562 32.1565 14.8437C32.3002 14.9937 32.3377 15 33.1565 15H34.0065L33.9815 23.075C33.9627 31.0625 33.9627 31.1625 33.8315 31.6875C33.444 33.2437 32.7877 34.45 31.7377 35.5375C30.6252 36.6875 29.3127 37.4312 27.6877 37.8312C27.1877 37.95 26.919 37.9625 23.2127 37.9937C20.1252 38.025 19.2502 38.05 19.1752 38.1125C18.919 38.3187 19.0002 38.8062 19.3065 38.9375C19.4377 38.9875 20.5127 39 23.2877 38.9812C27.494 38.9562 27.544 38.95 28.7877 38.5312C31.5315 37.6187 33.619 35.5312 34.5315 32.7875C34.9877 31.4375 34.9565 32.025 34.9815 22.7L35.0065 14.3125L34.8502 14.1562C34.7065 14.0125 34.6502 14 34.0627 14C33.719 14 33.4377 13.9812 33.4377 13.9625C33.4377 13.8937 35.4565 10.5625 35.5002 10.5625C35.544 10.5625 37.5627 13.8937 37.5627 13.9625C37.5627 13.9812 37.2815 14 36.9377 14C36.3502 14 36.294 14.0125 36.1565 14.1562L36.0002 14.3062V19V23.6937L36.1565 23.8437C36.2502 23.9437 36.3815 24 36.5002 24C36.619 24 36.7502 23.9437 36.844 23.8437L37.0002 23.6937V19.3437V15H37.844C38.6627 15 38.7002 14.9937 38.844 14.8437C38.9377 14.7562 39.0002 14.6187 39.0002 14.5187C39.0002 14.4 38.4815 13.4812 37.4315 11.7312C35.7252 8.88748 35.719 8.88123 35.269 9.06248Z" fill="black"/>
<path d="M11.4875 16.0687C10.5188 16.2937 9.63125 17.2 9.2 18.3875L9.03125 18.8437V22.875C9.03125 26.6875 9.0375 26.9187 9.15 27.125C9.41875 27.6312 9.85 27.925 10.4188 27.9812C10.7437 28.0187 10.7563 28.025 10.725 28.1812C10.7063 28.2687 10.3062 30.6375 9.84375 33.4375C8.91875 38.9687 8.9375 38.7812 9.31875 38.9375C9.55625 39.0375 9.8375 38.925 9.93125 38.7C9.96875 38.6062 10.45 35.825 11 32.5187L12 26.5125V23.475C12 21.3562 11.9813 20.3937 11.9313 20.2875C11.7687 19.9437 11.2313 19.9437 11.0688 20.2875C11.0188 20.4 11 21.3812 11 23.5687V26.6937L10.8438 26.8437C10.6438 27.05 10.3563 27.05 10.1562 26.8437L10 26.6937V22.9062C10 19.2375 10.0063 19.1062 10.1313 18.7312C10.2 18.5187 10.3188 18.2437 10.3938 18.125C10.6313 17.7375 11.0875 17.3 11.4062 17.15L11.7188 17H19.2063H26.6938L26.8438 17.1562C27.05 17.3562 27.05 17.6437 26.8438 17.8437L26.6938 18H22.0688C18.8125 18 17.4 18.0187 17.2937 18.0687C17.2063 18.1062 17.1062 18.2062 17.0688 18.2937C16.9688 18.5125 16.9688 38.4937 17.0688 38.7125C17.2312 39.0562 17.7688 39.0562 17.9313 38.7125C17.9812 38.6 18 35.9125 18 28.7812V19.0062L22.4563 18.9875C26.8813 18.9687 26.9062 18.9687 27.1562 18.8312C27.6938 18.5437 27.9625 18.0937 27.9625 17.5C27.9625 16.9062 27.6938 16.4562 27.1562 16.1687L26.9062 16.0312L19.3125 16.0187C15.05 16.0187 11.6188 16.0375 11.4875 16.0687Z" fill="black"/>
<path d="M29.1442 18.2C29.0755 18.2812 28.338 19.4812 27.5067 20.875C26.188 23.075 25.9942 23.4312 26.0255 23.5937C26.0942 23.95 26.2317 24 27.163 24H28.0005L28.013 29.3812L28.0317 34.7625L28.1817 34.8812C28.3692 35.0312 28.6317 35.0312 28.8192 34.8812L28.9692 34.7625L28.988 29.1125C29.0005 25.1625 28.9817 23.4187 28.9317 23.3062C28.838 23.0687 28.6255 23 27.9692 23H27.3817L28.4255 21.25C29.0005 20.2875 29.4817 19.5062 29.5005 19.5062C29.5192 19.5062 30.0005 20.2875 30.5755 21.25L31.6192 23H31.0317C30.3692 23 30.163 23.0687 30.063 23.3062C30.0192 23.4187 30.0005 24.4437 30.013 26.6187L30.0317 29.7625L30.1817 29.8812C30.3692 30.0312 30.6317 30.0312 30.8192 29.8812L30.9692 29.7625L30.988 26.8812L31.0067 24H31.838C32.7692 24 32.9067 23.95 32.9755 23.5937C33.0067 23.4312 32.813 23.075 31.4942 20.875C30.663 19.4812 29.9255 18.2812 29.8567 18.2C29.7692 18.1062 29.6567 18.0625 29.5005 18.0625C29.3442 18.0625 29.2317 18.1062 29.1442 18.2Z" fill="black"/>
<path d="M36.269 25.075C35.9253 25.2437 35.9565 25.7875 36.319 25.9375C36.8753 26.1687 37.2628 25.3187 36.7128 25.0687C36.5253 24.9875 36.4503 24.9875 36.269 25.075Z" fill="black"/>
<path d="M14.2687 26.575C14.1937 26.6125 14.0875 26.7562 14.0375 26.9C13.9812 27.0437 13.275 29.7125 12.4687 32.8312C10.85 39.05 10.9 38.7687 11.3187 38.9375C11.5437 39.0312 11.825 38.9312 11.925 38.725C11.9562 38.65 12.4875 36.6687 13.1 34.3187C13.8187 31.5625 14.2312 30.0875 14.2562 30.1625C14.2812 30.2312 14.4625 32.15 14.6562 34.4312C14.8562 36.7187 15.0437 38.65 15.075 38.725C15.1125 38.8062 15.225 38.9 15.3187 38.9437C15.55 39.0375 15.8312 38.9312 15.9312 38.7125C15.9875 38.5875 15.8937 37.3312 15.5 32.7625C15.225 29.575 14.9687 26.8937 14.9312 26.8062C14.8687 26.65 14.6375 26.4937 14.4812 26.5062C14.4375 26.5062 14.3437 26.5375 14.2687 26.575Z" fill="black"/>
<path d="M23.3064 27.0687C23.1814 27.1187 22.8064 27.6875 21.6189 29.6687C20.7814 31.0625 20.0689 32.2687 20.0376 32.3562C19.9689 32.5562 20.0939 32.8375 20.2876 32.9312C20.3751 32.9687 20.7751 33 21.2189 33H22.0001V34.7812C22.0001 35.9687 22.0251 36.6062 22.0689 36.7125C22.2314 37.0562 22.7689 37.0562 22.9314 36.7125C23.0251 36.5 23.0251 32.5062 22.9314 32.2937C22.8251 32.0625 22.6189 32 21.9689 32H21.3814L22.4251 30.25C23.0001 29.2875 23.4814 28.5062 23.5001 28.5062C23.5189 28.5062 24.0001 29.2875 24.5751 30.25L25.6189 32H25.0314C24.3814 32 24.1751 32.0625 24.0689 32.2937C23.9751 32.5 23.9751 34.5062 24.0689 34.7125C24.2314 35.0562 24.7689 35.0562 24.9314 34.7125C24.9689 34.625 25.0001 34.225 25.0001 33.7812V33H25.7814C26.2251 33 26.6251 32.9687 26.7126 32.9312C26.9064 32.8375 27.0314 32.5562 26.9626 32.3562C26.9314 32.275 26.2189 31.0687 25.3814 29.6687C24.0814 27.5125 23.8251 27.1187 23.6689 27.0625C23.5626 27.0312 23.4814 27 23.4751 27.0062C23.4689 27.0062 23.3939 27.0375 23.3064 27.0687Z" fill="black"/>
<path d="M30.269 31.075C29.9253 31.2437 29.9565 31.7875 30.319 31.9375C30.8753 32.1687 31.2628 31.3187 30.7128 31.0687C30.5253 30.9875 30.4503 30.9875 30.269 31.075Z" fill="black"/>
<path d="M67.812 32.312C66.58 32.312 65.464 31.992 64.464 31.352C63.464 30.704 62.668 29.796 62.076 28.628C61.484 27.452 61.188 26.072 61.188 24.488C61.188 23.2 61.372 22.056 61.74 21.056C62.116 20.056 62.632 19.212 63.288 18.524C63.952 17.836 64.72 17.316 65.592 16.964C66.464 16.612 67.396 16.436 68.388 16.436C69.684 16.436 70.796 16.708 71.724 17.252C72.652 17.796 73.416 18.66 74.016 19.844L71.76 20.492C71.28 19.828 70.752 19.332 70.176 19.004C69.6 18.668 68.968 18.5 68.28 18.5C67.44 18.5 66.664 18.744 65.952 19.232C65.248 19.712 64.684 20.4 64.26 21.296C63.836 22.184 63.624 23.248 63.624 24.488C63.624 25.616 63.8 26.612 64.152 27.476C64.512 28.332 65.016 29.004 65.664 29.492C66.32 29.972 67.092 30.212 67.98 30.212C68.684 30.212 69.316 30.052 69.876 29.732C70.436 29.412 70.876 28.94 71.196 28.316C71.524 27.684 71.688 26.904 71.688 25.976H72.288C72.288 27.264 72.132 28.384 71.82 29.336C71.516 30.28 71.036 31.012 70.38 31.532C69.724 32.052 68.868 32.312 67.812 32.312ZM72.048 32L71.688 28.496V25.904L68.016 25.808V24.308H73.896V32H72.048ZM77.8969 32V20.42H80.1769V32H77.8969ZM79.5529 26.84C79.5529 25.36 79.7049 24.132 80.0089 23.156C80.3209 22.172 80.7529 21.44 81.3049 20.96C81.8649 20.48 82.5209 20.24 83.2729 20.24C83.4969 20.24 83.7049 20.256 83.8969 20.288C84.0969 20.32 84.2929 20.364 84.4849 20.42L84.4009 22.688C84.1849 22.632 83.9489 22.584 83.6929 22.544C83.4449 22.496 83.2169 22.472 83.0089 22.472C82.3529 22.472 81.8169 22.648 81.4009 23C80.9849 23.344 80.6769 23.844 80.4769 24.5C80.2769 25.148 80.1769 25.928 80.1769 26.84H79.5529ZM90.9774 32.312C89.9294 32.312 88.9894 32.084 88.1574 31.628C87.3334 31.172 86.6814 30.492 86.2014 29.588C85.7214 28.684 85.4814 27.568 85.4814 26.24C85.4814 24.888 85.7214 23.764 86.2014 22.868C86.6814 21.964 87.3334 21.284 88.1574 20.828C88.9894 20.372 89.9294 20.144 90.9774 20.144C92.0094 20.144 92.9374 20.372 93.7614 20.828C94.5854 21.284 95.2334 21.964 95.7054 22.868C96.1854 23.764 96.4254 24.888 96.4254 26.24C96.4254 27.568 96.1854 28.684 95.7054 29.588C95.2334 30.492 94.5854 31.172 93.7614 31.628C92.9374 32.084 92.0094 32.312 90.9774 32.312ZM90.9054 30.32C91.5694 30.32 92.1414 30.16 92.6214 29.84C93.1094 29.52 93.4814 29.056 93.7374 28.448C94.0014 27.832 94.1334 27.096 94.1334 26.24C94.1334 24.928 93.8654 23.912 93.3294 23.192C92.8014 22.472 92.0374 22.112 91.0374 22.112C90.3654 22.112 89.7854 22.276 89.2974 22.604C88.8174 22.924 88.4454 23.392 88.1814 24.008C87.9254 24.616 87.7974 25.36 87.7974 26.24C87.7974 27.528 88.0654 28.532 88.6014 29.252C89.1374 29.964 89.9054 30.32 90.9054 30.32ZM97.7379 20.456H100.114L102.862 29.72H102.61L105.262 21.044H107.242L109.882 29.744H109.642L112.39 20.456H114.67L110.878 32H108.646L106.03 23.84H106.378L103.798 32H101.566L97.7379 20.456ZM120.893 32.312C120.237 32.312 119.645 32.188 119.117 31.94C118.589 31.692 118.169 31.32 117.857 30.824C117.553 30.32 117.401 29.688 117.401 28.928V17.312H119.669V28.856C119.669 29.944 120.177 30.488 121.193 30.488C121.505 30.488 121.809 30.456 122.105 30.392C122.401 30.32 122.737 30.216 123.113 30.08L123.437 31.7C123.013 31.876 122.593 32.02 122.177 32.132C121.769 32.252 121.341 32.312 120.893 32.312ZM115.637 22.004V20.456H123.089V22.004H115.637ZM134.244 32V25.232C134.244 24.232 134.004 23.476 133.524 22.964C133.052 22.444 132.412 22.184 131.604 22.184C130.964 22.184 130.404 22.36 129.924 22.712C129.452 23.056 129.084 23.564 128.82 24.236C128.564 24.9 128.436 25.712 128.436 26.672H127.62C127.62 25.256 127.8 24.064 128.16 23.096C128.528 22.128 129.052 21.396 129.732 20.9C130.412 20.396 131.228 20.144 132.18 20.144C133.108 20.144 133.892 20.352 134.532 20.768C135.18 21.184 135.672 21.776 136.008 22.544C136.344 23.304 136.512 24.2 136.512 25.232V32H134.244ZM126.156 32V15.596H128.436V32H126.156Z" fill="white"/>
</svg>
