<svg width="242" height="48" viewBox="0 0 242 48" fill="none" xmlns="http://www.w3.org/2000/svg">
<circle cx="24" cy="24" r="24" fill="white"/>
<path d="M23.7755 8.29687C23.7317 8.32187 23.113 9.10937 22.388 10.0687C21.6692 11.0187 21.013 11.8844 20.9317 11.9937C20.8005 12.1656 20.7817 12.2094 20.7817 12.3406C20.7817 12.4656 20.7973 12.5031 20.8786 12.5812L20.9723 12.6719L21.8067 12.6875L22.6411 12.7031L22.6505 18.0469L22.6567 23.3906L22.4505 23.0156C22.1942 22.5469 21.8536 22.0312 21.5255 21.6156C21.2161 21.2219 20.4005 20.4094 19.9973 20.0875C18.8005 19.1344 17.4317 18.4906 15.963 18.1875C15.5692 18.1062 14.7911 18 14.5723 18H14.5005V17.2156C14.5005 16.3937 14.4973 16.3687 14.3505 16.2094C14.2536 16.1094 14.0973 16.0969 13.9473 16.1781C13.8942 16.2094 13.0192 16.8719 12.0036 17.6531C10.4317 18.8625 10.1536 19.0875 10.1223 19.1781C10.0817 19.3 10.1036 19.4156 10.188 19.5219C10.2192 19.5625 11.0786 20.2344 12.0973 21.0156C13.8036 22.325 13.9567 22.4375 14.0692 22.4375C14.1348 22.4375 14.2255 22.4156 14.2692 22.3875C14.4286 22.2812 14.438 22.2187 14.438 21.4062V20.6562H14.5473C14.7536 20.6562 15.3567 20.7531 15.7098 20.8437C17.1723 21.2219 18.4723 22.0969 19.3661 23.3031C19.7848 23.8687 20.088 24.4687 20.3286 25.1969C20.513 25.7594 20.5848 25.8687 20.8067 25.8969C20.9223 25.9125 20.9473 25.9031 21.0473 25.8031C21.1911 25.6594 21.1911 25.5531 21.0442 25.0906C20.7661 24.2125 20.4036 23.5 19.8692 22.7875C19.5911 22.4187 18.9192 21.7344 18.5786 21.4781C17.4442 20.6219 16.2161 20.125 14.9411 20C14.7411 19.9781 14.5473 19.9562 14.5098 19.95C14.438 19.9375 14.438 19.9344 14.438 19.3312C14.438 19 14.4442 18.7219 14.4505 18.7156C14.4786 18.6875 15.138 18.75 15.5098 18.8156C17.0161 19.0719 18.4067 19.7156 19.6317 20.725C19.9723 21.0031 20.588 21.6281 20.8755 21.9844C21.5598 22.8281 22.1723 23.9906 22.4692 25.0125C22.5223 25.2 22.5911 25.3875 22.6161 25.4281C22.7817 25.6781 23.2036 25.6312 23.2786 25.3531C23.3036 25.2719 23.313 23.2625 23.313 18.9437V12.6562H23.9067H24.5005V18.9687C24.5005 24.3531 24.5067 25.2969 24.5442 25.3687C24.6536 25.5781 24.9817 25.6094 25.1505 25.4281C25.1848 25.3906 25.263 25.1906 25.3255 24.9844C25.7442 23.5906 26.4442 22.3906 27.4348 21.3656C28.6411 20.1219 30.0567 19.2969 31.6723 18.8937C32.1598 18.7719 32.9098 18.6562 33.2286 18.6562H33.3442V19.2781V19.8969L33.088 19.9187C30.6098 20.1187 28.363 21.625 27.2317 23.85C26.863 24.5781 26.5911 25.4125 26.6598 25.6156C26.7067 25.7625 26.8255 25.8437 26.988 25.8437C27.2067 25.8437 27.2942 25.7406 27.4098 25.3469C27.8473 23.825 28.7786 22.5562 30.088 21.6875C31.0036 21.0781 32.0036 20.7312 33.1661 20.6125L33.3442 20.5937V21.3125C33.3442 22.1094 33.3567 22.175 33.5286 22.3219C33.6411 22.4156 33.7036 22.425 33.8348 22.3687C33.8817 22.3469 34.7661 21.6937 35.7973 20.9125C37.0567 19.9625 37.6848 19.4687 37.7067 19.4125C37.7286 19.3656 37.7536 19.25 37.7661 19.1531L37.788 18.9781L36.1817 17.7656C35.3005 17.0969 34.4442 16.4469 34.2755 16.3187C33.8723 16.0094 33.6973 15.9906 33.5192 16.2281C33.4567 16.3125 33.4536 16.3656 33.438 17.1344L33.4223 17.9531L33.0973 17.975C31.4973 18.0906 29.7911 18.7156 28.4067 19.6969C27.1911 20.5594 26.2005 21.6812 25.4505 23.0469L25.3161 23.2969L25.313 17.975V12.6562H26.0817C26.9442 12.6562 27.0192 12.6406 27.1067 12.4531C27.1661 12.3312 27.1692 12.2687 27.1192 12.1781C27.1005 12.1406 26.4348 11.2594 25.638 10.2156C24.738 9.0375 24.163 8.30937 24.1098 8.2875C24.0036 8.2375 23.8786 8.24062 23.7755 8.29687ZM25.0286 10.5531C25.5817 11.2812 26.0317 11.8812 26.0317 11.8906C26.0317 11.9 25.1161 11.9062 23.9973 11.9062C22.8598 11.9062 21.9692 11.8937 21.9755 11.8781C21.9973 11.8156 23.988 9.21875 24.0067 9.22812C24.0161 9.23125 24.4786 9.82812 25.0286 10.5531ZM13.813 19.25C13.813 20.3656 13.8036 21.2812 13.7942 21.2812C13.7567 21.2812 11.1255 19.2687 11.1317 19.2437C11.1442 19.2125 13.7567 17.225 13.7911 17.2219C13.8036 17.2187 13.813 18.1312 13.813 19.25ZM35.5598 18.2312C36.2848 18.7812 36.8755 19.2375 36.8755 19.25C36.8755 19.2719 34.2348 21.2812 34.2067 21.2812C34.1973 21.2812 34.188 20.3656 34.188 19.2469C34.188 18 34.2005 17.2187 34.2161 17.225C34.2317 17.2281 34.838 17.6844 35.5598 18.2312Z" fill="black"/>
<path d="M15.641 23.1C15.2754 24 15.0972 24.9125 15.0722 26.0375C15.0472 27.1156 15.141 27.9437 15.4097 28.9969C15.716 30.2031 16.0472 30.9844 16.7222 32.0938C18.2566 34.6188 18.7504 35.6125 19.0347 36.75C19.2004 37.4125 19.2254 37.6562 19.241 38.7719L19.2566 39.8125H19.6316H20.0066L19.991 38.7406C19.9754 37.6094 19.9504 37.3438 19.7941 36.6875C19.6191 35.9375 19.3722 35.275 18.9691 34.4688C18.666 33.8594 18.4941 33.5594 17.8597 32.5469C17.2879 31.6281 17.191 31.4688 16.991 31.0938C16.4597 30.0969 15.9972 28.4719 15.8722 27.1469C15.8191 26.575 15.8504 25.4688 15.9347 24.9812C16.0129 24.5188 16.1504 23.9781 16.2785 23.6281C16.3316 23.4812 16.3754 23.3438 16.3754 23.3219C16.3754 23.2844 15.791 22.9688 15.7222 22.9688C15.7066 22.9688 15.6691 23.0281 15.641 23.1Z" fill="black"/>
<path d="M32.1656 23.0844L31.85 23.2L31.9125 23.3563C32.0063 23.5875 32.0594 23.7625 32.125 24.0625C32.1781 24.2938 32.1875 24.4594 32.1875 25.325V26.3219L33.0969 28.3875C33.6 29.525 34.0156 30.4781 34.025 30.5063C34.0375 30.5594 33.9875 30.5625 33.2688 30.5625H32.5V32.3656C32.5 33.4438 32.4875 34.2156 32.4688 34.2813C32.4531 34.3406 32.3937 34.4688 32.3375 34.5625C32.2594 34.6938 32.1938 34.7563 32.0625 34.8281L31.8906 34.9219L30.3219 34.9313L28.75 34.9406V36.7188V38.5H29.125H29.5V37.0906V35.6844L30.7437 35.6875C32.0688 35.6938 32.0531 35.6938 32.375 35.5313C32.5594 35.4375 32.8281 35.1781 32.975 34.9531C33.1937 34.6188 33.1937 34.6125 33.2 32.8938L33.2031 31.3594L34.1656 31.35C34.6937 31.3469 35.125 31.3313 35.125 31.3188C35.125 31.3031 34.625 30.1625 34.0156 28.7781L32.9031 26.2656L32.925 25.2969C32.9406 24.4719 32.9375 24.2844 32.8938 24.0344C32.8094 23.5594 32.6031 22.9656 32.525 22.9719C32.5031 22.9719 32.3406 23.025 32.1656 23.0844Z" fill="black"/>
<path d="M62.34 32V16.712H64.62V32H62.34ZM73.2849 32.312C72.1649 32.312 71.2209 32.156 70.4529 31.844C69.6849 31.524 69.0969 31.084 68.6889 30.524C68.2889 29.956 68.0809 29.292 68.0649 28.532H70.2129C70.2449 29.196 70.5089 29.688 71.0049 30.008C71.5089 30.328 72.1889 30.488 73.0449 30.488C73.5009 30.488 73.9129 30.416 74.2809 30.272C74.6569 30.128 74.9529 29.932 75.1689 29.684C75.3929 29.436 75.5049 29.156 75.5049 28.844C75.5049 28.452 75.3609 28.144 75.0729 27.92C74.7849 27.688 74.3209 27.484 73.6809 27.308L71.3169 26.504C70.3729 26.184 69.6489 25.76 69.1449 25.232C68.6409 24.696 68.3889 24.056 68.3889 23.312C68.3889 22.36 68.8129 21.596 69.6609 21.02C70.5089 20.436 71.6329 20.144 73.0329 20.144C74.4809 20.144 75.5969 20.452 76.3809 21.068C77.1729 21.676 77.5849 22.44 77.6169 23.36H75.4209C75.3649 22.904 75.1369 22.556 74.7369 22.316C74.3449 22.068 73.7769 21.944 73.0329 21.944C72.3369 21.944 71.7889 22.096 71.3889 22.4C70.9969 22.704 70.8009 23.048 70.8009 23.432C70.8009 24.12 71.3929 24.632 72.5769 24.968L75.0609 25.844C76.0049 26.148 76.7329 26.54 77.2449 27.02C77.7569 27.5 78.0129 28.108 78.0129 28.844C78.0129 29.436 77.8169 29.996 77.4249 30.524C77.0329 31.052 76.4809 31.484 75.7689 31.82C75.0649 32.148 74.2369 32.312 73.2849 32.312ZM85.6778 32.312C84.5578 32.312 83.6138 32.156 82.8458 31.844C82.0778 31.524 81.4898 31.084 81.0818 30.524C80.6818 29.956 80.4738 29.292 80.4578 28.532H82.6058C82.6378 29.196 82.9018 29.688 83.3978 30.008C83.9018 30.328 84.5818 30.488 85.4378 30.488C85.8938 30.488 86.3058 30.416 86.6738 30.272C87.0498 30.128 87.3458 29.932 87.5618 29.684C87.7858 29.436 87.8978 29.156 87.8978 28.844C87.8978 28.452 87.7538 28.144 87.4658 27.92C87.1778 27.688 86.7138 27.484 86.0738 27.308L83.7098 26.504C82.7658 26.184 82.0418 25.76 81.5378 25.232C81.0338 24.696 80.7818 24.056 80.7818 23.312C80.7818 22.36 81.2058 21.596 82.0538 21.02C82.9018 20.436 84.0258 20.144 85.4258 20.144C86.8738 20.144 87.9898 20.452 88.7738 21.068C89.5658 21.676 89.9778 22.44 90.0098 23.36H87.8138C87.7578 22.904 87.5298 22.556 87.1298 22.316C86.7378 22.068 86.1698 21.944 85.4258 21.944C84.7298 21.944 84.1818 22.096 83.7818 22.4C83.3898 22.704 83.1938 23.048 83.1938 23.432C83.1938 24.12 83.7858 24.632 84.9698 24.968L87.4538 25.844C88.3978 26.148 89.1258 26.54 89.6378 27.02C90.1498 27.5 90.4058 28.108 90.4058 28.844C90.4058 29.436 90.2098 29.996 89.8178 30.524C89.4258 31.052 88.8738 31.484 88.1618 31.82C87.4578 32.148 86.6298 32.312 85.6778 32.312ZM101.623 20.42H103.915V32H101.623V20.42ZM93.5586 20.42H95.8386V27.572C95.8386 28.444 96.0506 29.104 96.4746 29.552C96.9066 30 97.5106 30.224 98.2866 30.224C98.9426 30.224 99.5186 30.052 100.015 29.708C100.519 29.364 100.911 28.876 101.191 28.244C101.479 27.612 101.623 26.864 101.623 26H102.355C102.355 27.352 102.171 28.488 101.803 29.408C101.435 30.328 100.919 31.028 100.255 31.508C99.5906 31.98 98.8146 32.216 97.9266 32.216C97.0786 32.216 96.3226 32.06 95.6586 31.748C95.0026 31.436 94.4866 30.956 94.1106 30.308C93.7426 29.652 93.5586 28.808 93.5586 27.776V20.42ZM112.489 32.312C111.497 32.312 110.601 32.056 109.801 31.544C109.001 31.032 108.365 30.32 107.893 29.408C107.429 28.496 107.197 27.44 107.197 26.24C107.197 24.968 107.429 23.88 107.893 22.976C108.357 22.064 108.989 21.364 109.789 20.876C110.589 20.388 111.489 20.144 112.489 20.144C113.385 20.144 114.153 20.328 114.793 20.696C115.433 21.056 115.949 21.544 116.341 22.16C116.733 22.768 117.001 23.46 117.145 24.236C117.297 25.012 117.325 25.812 117.229 26.636H109.021V25.316H115.669L115.117 25.676C115.141 25.244 115.117 24.812 115.045 24.38C114.981 23.948 114.853 23.552 114.661 23.192C114.469 22.824 114.197 22.532 113.845 22.316C113.501 22.092 113.061 21.98 112.525 21.98C111.853 21.98 111.289 22.148 110.833 22.484C110.385 22.82 110.045 23.272 109.813 23.84C109.581 24.4 109.465 25.016 109.465 25.688V26.612C109.465 27.356 109.577 28.016 109.801 28.592C110.025 29.168 110.357 29.624 110.797 29.96C111.245 30.288 111.809 30.452 112.489 30.452C113.153 30.452 113.701 30.296 114.133 29.984C114.573 29.672 114.845 29.204 114.949 28.58H117.277C117.157 29.332 116.881 29.988 116.449 30.548C116.017 31.108 115.461 31.544 114.781 31.856C114.109 32.16 113.345 32.312 112.489 32.312ZM126.22 32V16.712H131.692C133.476 16.712 134.832 17.136 135.76 17.984C136.696 18.824 137.164 19.932 137.164 21.308C137.164 22.668 136.696 23.768 135.76 24.608C134.832 25.448 133.476 25.868 131.692 25.868H128.5V32H126.22ZM134.656 32L130.42 24.968H132.88L137.62 32H134.656ZM128.5 24.308H131.488C132.576 24.308 133.404 24.048 133.972 23.528C134.54 23 134.824 22.32 134.824 21.488C134.824 20.632 134.556 19.952 134.02 19.448C133.492 18.936 132.716 18.68 131.692 18.68H128.5V24.308ZM145.144 32.312C144.152 32.312 143.256 32.056 142.456 31.544C141.656 31.032 141.02 30.32 140.548 29.408C140.084 28.496 139.852 27.44 139.852 26.24C139.852 24.968 140.084 23.88 140.548 22.976C141.012 22.064 141.644 21.364 142.444 20.876C143.244 20.388 144.144 20.144 145.144 20.144C146.04 20.144 146.808 20.328 147.448 20.696C148.088 21.056 148.604 21.544 148.996 22.16C149.388 22.768 149.656 23.46 149.8 24.236C149.952 25.012 149.98 25.812 149.884 26.636H141.676V25.316H148.324L147.772 25.676C147.796 25.244 147.772 24.812 147.7 24.38C147.636 23.948 147.508 23.552 147.316 23.192C147.124 22.824 146.852 22.532 146.5 22.316C146.156 22.092 145.716 21.98 145.18 21.98C144.508 21.98 143.944 22.148 143.488 22.484C143.04 22.82 142.7 23.272 142.468 23.84C142.236 24.4 142.12 25.016 142.12 25.688V26.612C142.12 27.356 142.232 28.016 142.456 28.592C142.68 29.168 143.012 29.624 143.452 29.96C143.9 30.288 144.464 30.452 145.144 30.452C145.808 30.452 146.356 30.296 146.788 29.984C147.228 29.672 147.5 29.204 147.604 28.58H149.932C149.812 29.332 149.536 29.988 149.104 30.548C148.672 31.108 148.116 31.544 147.436 31.856C146.764 32.16 146 32.312 145.144 32.312ZM157.48 32.312C156.36 32.312 155.416 32.156 154.648 31.844C153.88 31.524 153.292 31.084 152.884 30.524C152.484 29.956 152.276 29.292 152.26 28.532H154.408C154.44 29.196 154.704 29.688 155.2 30.008C155.704 30.328 156.384 30.488 157.24 30.488C157.696 30.488 158.108 30.416 158.476 30.272C158.852 30.128 159.148 29.932 159.364 29.684C159.588 29.436 159.7 29.156 159.7 28.844C159.7 28.452 159.556 28.144 159.268 27.92C158.98 27.688 158.516 27.484 157.876 27.308L155.512 26.504C154.568 26.184 153.844 25.76 153.34 25.232C152.836 24.696 152.584 24.056 152.584 23.312C152.584 22.36 153.008 21.596 153.856 21.02C154.704 20.436 155.828 20.144 157.228 20.144C158.676 20.144 159.792 20.452 160.576 21.068C161.368 21.676 161.78 22.44 161.812 23.36H159.616C159.56 22.904 159.332 22.556 158.932 22.316C158.54 22.068 157.972 21.944 157.228 21.944C156.532 21.944 155.984 22.096 155.584 22.4C155.192 22.704 154.996 23.048 154.996 23.432C154.996 24.12 155.588 24.632 156.772 24.968L159.256 25.844C160.2 26.148 160.928 26.54 161.44 27.02C161.952 27.5 162.208 28.108 162.208 28.844C162.208 29.436 162.012 29.996 161.62 30.524C161.228 31.052 160.676 31.484 159.964 31.82C159.26 32.148 158.432 32.312 157.48 32.312ZM169.993 32.312C168.945 32.312 168.005 32.084 167.173 31.628C166.349 31.172 165.697 30.492 165.217 29.588C164.737 28.684 164.497 27.568 164.497 26.24C164.497 24.888 164.737 23.764 165.217 22.868C165.697 21.964 166.349 21.284 167.173 20.828C168.005 20.372 168.945 20.144 169.993 20.144C171.025 20.144 171.953 20.372 172.777 20.828C173.601 21.284 174.249 21.964 174.721 22.868C175.201 23.764 175.441 24.888 175.441 26.24C175.441 27.568 175.201 28.684 174.721 29.588C174.249 30.492 173.601 31.172 172.777 31.628C171.953 32.084 171.025 32.312 169.993 32.312ZM169.921 30.32C170.585 30.32 171.157 30.16 171.637 29.84C172.125 29.52 172.497 29.056 172.753 28.448C173.017 27.832 173.149 27.096 173.149 26.24C173.149 24.928 172.881 23.912 172.345 23.192C171.817 22.472 171.053 22.112 170.053 22.112C169.381 22.112 168.801 22.276 168.313 22.604C167.833 22.924 167.461 23.392 167.197 24.008C166.941 24.616 166.813 25.36 166.813 26.24C166.813 27.528 167.081 28.532 167.617 29.252C168.153 29.964 168.921 30.32 169.921 30.32ZM178.721 32V15.596H181.001V32H178.721ZM193.218 20.42H195.51V32H193.218V20.42ZM185.154 20.42H187.434V27.572C187.434 28.444 187.646 29.104 188.07 29.552C188.502 30 189.106 30.224 189.882 30.224C190.538 30.224 191.114 30.052 191.61 29.708C192.114 29.364 192.506 28.876 192.786 28.244C193.074 27.612 193.218 26.864 193.218 26H193.95C193.95 27.352 193.766 28.488 193.398 29.408C193.03 30.328 192.514 31.028 191.85 31.508C191.186 31.98 190.41 32.216 189.522 32.216C188.674 32.216 187.918 32.06 187.254 31.748C186.598 31.436 186.082 30.956 185.706 30.308C185.338 29.652 185.154 28.808 185.154 27.776V20.42ZM203.652 32.312C202.996 32.312 202.404 32.188 201.876 31.94C201.348 31.692 200.928 31.32 200.616 30.824C200.312 30.32 200.16 29.688 200.16 28.928V17.312H202.428V28.856C202.428 29.944 202.936 30.488 203.952 30.488C204.264 30.488 204.568 30.456 204.864 30.392C205.16 30.32 205.496 30.216 205.872 30.08L206.196 31.7C205.772 31.876 205.352 32.02 204.936 32.132C204.528 32.252 204.1 32.312 203.652 32.312ZM198.396 22.004V20.456H205.848V22.004H198.396ZM210.235 17.996C209.779 17.996 209.419 17.872 209.155 17.624C208.899 17.368 208.771 17.024 208.771 16.592C208.771 16.176 208.899 15.848 209.155 15.608C209.419 15.36 209.779 15.236 210.235 15.236C210.683 15.236 211.035 15.36 211.291 15.608C211.555 15.848 211.687 16.176 211.687 16.592C211.687 17.024 211.555 17.368 211.291 17.624C211.035 17.872 210.683 17.996 210.235 17.996ZM209.095 32V20.42H211.375V32H209.095ZM220.472 32.312C219.424 32.312 218.484 32.084 217.652 31.628C216.828 31.172 216.176 30.492 215.696 29.588C215.216 28.684 214.976 27.568 214.976 26.24C214.976 24.888 215.216 23.764 215.696 22.868C216.176 21.964 216.828 21.284 217.652 20.828C218.484 20.372 219.424 20.144 220.472 20.144C221.504 20.144 222.432 20.372 223.256 20.828C224.08 21.284 224.728 21.964 225.2 22.868C225.68 23.764 225.92 24.888 225.92 26.24C225.92 27.568 225.68 28.684 225.2 29.588C224.728 30.492 224.08 31.172 223.256 31.628C222.432 32.084 221.504 32.312 220.472 32.312ZM220.4 30.32C221.064 30.32 221.636 30.16 222.116 29.84C222.604 29.52 222.976 29.056 223.232 28.448C223.496 27.832 223.628 27.096 223.628 26.24C223.628 24.928 223.36 23.912 222.824 23.192C222.296 22.472 221.532 22.112 220.532 22.112C219.86 22.112 219.28 22.276 218.792 22.604C218.312 22.924 217.94 23.392 217.676 24.008C217.42 24.616 217.292 25.36 217.292 26.24C217.292 27.528 217.56 28.532 218.096 29.252C218.632 29.964 219.4 30.32 220.4 30.32ZM237.289 32V25.232C237.289 24.232 237.049 23.476 236.569 22.964C236.097 22.444 235.457 22.184 234.649 22.184C234.009 22.184 233.449 22.36 232.969 22.712C232.497 23.056 232.129 23.564 231.865 24.236C231.609 24.9 231.481 25.712 231.481 26.672H230.665C230.665 25.256 230.845 24.064 231.205 23.096C231.573 22.128 232.097 21.396 232.777 20.9C233.457 20.396 234.273 20.144 235.225 20.144C236.153 20.144 236.937 20.352 237.577 20.768C238.225 21.184 238.717 21.776 239.053 22.544C239.389 23.304 239.557 24.2 239.557 25.232V32H237.289ZM229.201 32V20.456H231.181L231.481 22.952V32H229.201Z" fill="white"/>
</svg>
