<svg width="288" height="136" viewBox="0 0 288 136" fill="none" xmlns="http://www.w3.org/2000/svg">
<rect width="288" height="136" rx="8" fill="white"/>
<path d="M27.3125 27.3125L27 27.6125V56V84.3875L27.3125 84.6875L27.6125 85H56H84.3875L84.6875 84.6875C85.1 84.2875 85.1 83.7125 84.6875 83.3125L84.3875 83H56.6875H29V55.3125V27.6125L28.6875 27.3125C28.5 27.1125 28.2375 27 28 27C27.7625 27 27.5 27.1125 27.3125 27.3125Z" fill="#0176D3"/>
<path d="M39.7747 27.1375C37.6247 27.5 35.7747 28.475 34.1247 30.125C31.8872 32.3625 30.8497 35.05 31.0372 38.125C31.3372 42.8875 34.7372 46.8 39.4372 47.7625C45.1497 48.9375 50.7997 45.0875 51.8122 39.3125C52.0497 37.925 52.0497 37.075 51.8122 35.6875C51.1622 32 48.4622 28.8125 44.9622 27.6125C43.2497 27.025 41.4497 26.8625 39.7747 27.1375ZM44.0622 29.425C46.6622 30.25 48.7247 32.325 49.5997 34.9625C50.0497 36.3375 50.0622 38.5 49.6497 39.875C49.1997 41.3 48.5747 42.3125 47.4497 43.45C46.3122 44.575 45.2997 45.2 43.8747 45.65C42.4747 46.075 40.3247 46.05 38.9372 45.5875C37.5872 45.1375 36.5247 44.4875 35.5247 43.4875C32.4872 40.4625 32.1872 35.7375 34.7997 32.2875C35.9122 30.825 37.8372 29.6 39.6872 29.2C40.9497 28.9125 42.7747 29.0125 44.0622 29.425Z" fill="#0176D3"/>
<path d="M40.8126 29.5625C40.5626 29.8 40.5001 29.9875 40.5001 30.4625C40.5001 31.0625 40.5001 31.0625 39.9126 31.3C38.7501 31.7875 37.7501 33.2 37.7501 34.4C37.7501 35.1625 37.8376 35.35 38.2626 35.575C38.9626 35.9375 39.5501 35.5375 39.7376 34.5875C39.9376 33.4875 40.5251 32.95 41.5001 32.95C42.1876 32.95 42.6501 33.2125 43.0001 33.7875C43.4751 34.5625 43.2126 35.6875 42.4501 36.1875C42.2751 36.3 41.7376 36.45 41.2501 36.5125C39.7001 36.7 38.3876 37.675 37.9501 38.9625C37.6501 39.85 37.6876 41.0625 38.0501 41.8375C38.4251 42.6375 39.2001 43.4 39.9376 43.7125C40.4876 43.9375 40.5001 43.95 40.5001 44.5375C40.5001 45.275 40.9001 45.75 41.5001 45.75C42.1126 45.75 42.5001 45.275 42.5001 44.525C42.5001 43.95 42.5126 43.925 42.9626 43.7625C43.6876 43.4875 44.7001 42.4625 45.0001 41.6625C45.2501 41 45.3251 40.2125 45.1751 39.8125C45.0626 39.525 44.4251 39.2375 44.0751 39.325C43.6251 39.4375 43.3876 39.75 43.2626 40.4125C43.1126 41.2125 42.8251 41.6 42.1751 41.9C40.9501 42.4375 39.7501 41.5875 39.7501 40.2C39.7501 39.2125 40.4876 38.5875 41.8001 38.4625C43.1626 38.325 44.2376 37.5875 44.9001 36.3375C45.3126 35.575 45.3126 33.8 44.9001 33.025C44.5126 32.3 43.7376 31.575 43.0626 31.2875C42.5126 31.0625 42.5001 31.05 42.5001 30.4625C42.5001 29.725 42.1001 29.25 41.5001 29.25C41.2626 29.25 41.0001 29.3625 40.8126 29.5625Z" fill="#0176D3"/>
<path d="M61.525 36.5375C61.35 36.725 61.25 36.9875 61.25 37.25C61.25 37.65 61.85 38.2875 70.4 46.8375L79.5625 56H76.5875H73.6125L73.3125 56.3125C73.1125 56.5 73 56.7625 73 57C73 57.2375 73.1125 57.5 73.3125 57.6875L73.6125 58H78H82.3875L82.6875 57.6875L83 57.3875V53V48.6125L82.6875 48.3125C82.2875 47.9 81.7125 47.9 81.3125 48.3125L81 48.6125V51.5875V54.5625L71.8375 45.4C63.15 36.7125 62.6625 36.25 62.2375 36.25C61.9375 36.25 61.7125 36.3375 61.525 36.5375Z" fill="#0176D3"/>
<path d="M33.3125 50.3125L33 50.6125V65.5V80.3875L33.3125 80.6875L33.6125 81H41H48.3875L48.6875 80.6875L49 80.3875V65.5V50.6125L48.6875 50.3125L48.3875 50H41H33.6125L33.3125 50.3125ZM47 65.5V79H41H35V65.5V52H41H47V65.5Z" fill="#0176D3"/>
<path d="M51.3125 57.3125L51 57.6125V69V80.3875L51.3125 80.6875L51.6125 81H59H66.3875L66.6875 80.6875L67 80.3875V69V57.6125L66.6875 57.3125L66.3875 57H59H51.6125L51.3125 57.3125ZM65 69V79H59H53V69V59H59H65V69Z" fill="#0176D3"/>
<path d="M69.3125 64.3125L69 64.6125V72.5V80.3875L69.3125 80.6875L69.6125 81H77H84.3875L84.6875 80.6875L85 80.3875V72.5V64.6125L84.6875 64.3125L84.3875 64H77H69.6125L69.3125 64.3125ZM83 72.5V79H77H71V72.5V66H77H83V72.5Z" fill="#0176D3"/>
<path d="M109.708 52V49.032C109.708 48.0147 109.862 47.156 110.17 46.456C110.487 45.7467 110.949 45.154 111.556 44.678C112.172 44.202 112.928 43.7913 113.824 43.446L117.478 42.032C118.309 41.696 118.925 41.276 119.326 40.772C119.737 40.268 119.942 39.6473 119.942 38.91C119.942 38.154 119.671 37.524 119.13 37.02C118.589 36.516 117.828 36.264 116.848 36.264C115.877 36.264 115.075 36.4927 114.44 36.95C113.805 37.4073 113.441 38.0793 113.348 38.966H110.016C110.063 37.79 110.38 36.8053 110.968 36.012C111.565 35.2187 112.363 34.626 113.362 34.234C114.37 33.842 115.513 33.646 116.792 33.646C117.996 33.646 119.079 33.8747 120.04 34.332C121.001 34.78 121.762 35.41 122.322 36.222C122.891 37.034 123.176 37.9767 123.176 39.05C123.176 39.974 123.003 40.786 122.658 41.486C122.322 42.186 121.818 42.7973 121.146 43.32C120.474 43.8333 119.639 44.286 118.64 44.678L114.944 46.134C114.179 46.4327 113.614 46.7733 113.25 47.156C112.886 47.5293 112.704 48.024 112.704 48.64V49.256H123.05V52H109.708ZM125.238 52L133.582 36.88H124.566V33.996H137.124V36.838L129.27 52H125.238ZM139.791 52L151.971 33.996H155.009L142.843 52H139.791ZM152.601 52.294C151.948 52.294 151.332 52.14 150.753 51.832C150.184 51.524 149.726 51.062 149.381 50.446C149.036 49.8207 148.863 49.0413 148.863 48.108C148.863 47.1747 149.036 46.4 149.381 45.784C149.726 45.1587 150.184 44.692 150.753 44.384C151.332 44.076 151.948 43.922 152.601 43.922C153.273 43.922 153.898 44.076 154.477 44.384C155.056 44.692 155.518 45.1587 155.863 45.784C156.218 46.4 156.395 47.1747 156.395 48.108C156.395 49.0413 156.218 49.8207 155.863 50.446C155.518 51.062 155.056 51.524 154.477 51.832C153.898 52.14 153.273 52.294 152.601 52.294ZM152.601 50.348C153.049 50.348 153.408 50.1753 153.679 49.83C153.959 49.4847 154.099 48.9107 154.099 48.108C154.099 47.3053 153.959 46.7313 153.679 46.386C153.408 46.0313 153.049 45.854 152.601 45.854C152.153 45.854 151.794 46.0313 151.523 46.386C151.252 46.7313 151.117 47.3053 151.117 48.108C151.117 48.9107 151.252 49.4847 151.523 49.83C151.794 50.1753 152.153 50.348 152.601 50.348ZM142.227 41.99C141.574 41.99 140.962 41.836 140.393 41.528C139.824 41.22 139.362 40.758 139.007 40.142C138.662 39.5167 138.489 38.7373 138.489 37.804C138.489 36.88 138.662 36.11 139.007 35.494C139.362 34.878 139.824 34.416 140.393 34.108C140.962 33.8 141.574 33.646 142.227 33.646C142.908 33.646 143.534 33.8 144.103 34.108C144.682 34.416 145.144 34.878 145.489 35.494C145.844 36.11 146.021 36.88 146.021 37.804C146.021 38.7373 145.844 39.5167 145.489 40.142C145.144 40.758 144.682 41.22 144.103 41.528C143.534 41.836 142.908 41.99 142.227 41.99ZM142.227 40.058C142.666 40.058 143.025 39.8853 143.305 39.54C143.585 39.1947 143.725 38.616 143.725 37.804C143.725 37.0107 143.585 36.4413 143.305 36.096C143.025 35.7413 142.666 35.564 142.227 35.564C141.788 35.564 141.434 35.7413 141.163 36.096C140.892 36.4413 140.757 37.0107 140.757 37.804C140.757 38.616 140.892 39.1947 141.163 39.54C141.434 39.8853 141.788 40.058 142.227 40.058Z" fill="#18181A"/>
<path d="M109.818 70.696H113.13C114.27 70.696 115.26 70.93 116.1 71.398C116.94 71.86 117.591 72.514 118.053 73.36C118.515 74.206 118.746 75.202 118.746 76.348C118.746 77.482 118.515 78.472 118.053 79.318C117.591 80.164 116.94 80.824 116.1 81.298C115.26 81.766 114.27 82 113.13 82H109.818V70.696ZM111.222 71.938V80.776H113.13C113.982 80.776 114.714 80.584 115.326 80.2C115.944 79.816 116.418 79.291 116.748 78.625C117.084 77.953 117.252 77.194 117.252 76.348C117.252 75.496 117.084 74.74 116.748 74.08C116.418 73.414 115.944 72.892 115.326 72.514C114.714 72.13 113.982 71.938 113.13 71.938H111.222ZM124.329 82.216C123.585 82.216 122.919 82.027 122.331 81.649C121.749 81.265 121.287 80.734 120.945 80.056C120.609 79.378 120.441 78.598 120.441 77.716C120.441 76.774 120.609 75.964 120.945 75.286C121.281 74.608 121.74 74.089 122.322 73.729C122.91 73.363 123.579 73.18 124.329 73.18C124.983 73.18 125.541 73.312 126.003 73.576C126.465 73.84 126.837 74.197 127.119 74.647C127.401 75.097 127.596 75.607 127.704 76.177C127.818 76.741 127.851 77.326 127.803 77.932H121.575V77.068H126.876L126.462 77.338C126.48 76.984 126.459 76.63 126.399 76.276C126.345 75.922 126.24 75.598 126.084 75.304C125.928 75.004 125.709 74.764 125.427 74.584C125.145 74.404 124.785 74.314 124.347 74.314C123.795 74.314 123.333 74.455 122.961 74.737C122.589 75.019 122.31 75.391 122.124 75.853C121.938 76.309 121.845 76.804 121.845 77.338V77.914C121.845 78.514 121.935 79.051 122.115 79.525C122.301 79.999 122.577 80.374 122.943 80.65C123.309 80.926 123.771 81.064 124.329 81.064C124.887 81.064 125.346 80.929 125.706 80.659C126.066 80.389 126.285 79.99 126.363 79.462H127.821C127.731 80.032 127.527 80.524 127.209 80.938C126.891 81.346 126.486 81.661 125.994 81.883C125.502 82.105 124.947 82.216 124.329 82.216ZM133.251 82.216C132.561 82.216 131.916 82.03 131.316 81.658C130.722 81.286 130.242 80.761 129.876 80.083C129.51 79.405 129.327 78.604 129.327 77.68C129.327 76.732 129.51 75.922 129.876 75.25C130.242 74.578 130.722 74.065 131.316 73.711C131.916 73.357 132.561 73.18 133.251 73.18C133.737 73.18 134.172 73.255 134.556 73.405C134.946 73.549 135.285 73.75 135.573 74.008C135.861 74.266 136.098 74.56 136.284 74.89C136.476 75.214 136.617 75.556 136.707 75.916L135.267 76.042C135.117 75.544 134.865 75.151 134.511 74.863C134.163 74.569 133.737 74.422 133.233 74.422C132.807 74.422 132.405 74.545 132.027 74.791C131.655 75.031 131.352 75.394 131.118 75.88C130.884 76.36 130.767 76.96 130.767 77.68C130.767 78.346 130.872 78.925 131.082 79.417C131.298 79.903 131.592 80.281 131.964 80.551C132.336 80.821 132.759 80.956 133.233 80.956C133.899 80.956 134.403 80.794 134.745 80.47C135.093 80.14 135.267 79.684 135.267 79.102H136.707C136.707 79.702 136.566 80.236 136.284 80.704C136.002 81.172 135.6 81.541 135.078 81.811C134.562 82.081 133.953 82.216 133.251 82.216ZM139.148 82V73.378H140.552V82H139.148ZM140.12 78.112C140.12 77.02 140.225 76.114 140.435 75.394C140.645 74.668 140.951 74.128 141.353 73.774C141.761 73.414 142.256 73.234 142.838 73.234C143.03 73.234 143.204 73.249 143.36 73.279C143.522 73.303 143.684 73.342 143.846 73.396L143.756 74.782C143.588 74.728 143.405 74.683 143.207 74.647C143.009 74.605 142.832 74.584 142.676 74.584C142.166 74.584 141.755 74.731 141.443 75.025C141.131 75.313 140.903 75.721 140.759 76.249C140.621 76.777 140.552 77.398 140.552 78.112H140.12ZM148.28 82.216C147.536 82.216 146.87 82.027 146.282 81.649C145.7 81.265 145.238 80.734 144.896 80.056C144.56 79.378 144.392 78.598 144.392 77.716C144.392 76.774 144.56 75.964 144.896 75.286C145.232 74.608 145.691 74.089 146.273 73.729C146.861 73.363 147.53 73.18 148.28 73.18C148.934 73.18 149.492 73.312 149.954 73.576C150.416 73.84 150.788 74.197 151.07 74.647C151.352 75.097 151.547 75.607 151.655 76.177C151.769 76.741 151.802 77.326 151.754 77.932H145.526V77.068H150.827L150.413 77.338C150.431 76.984 150.41 76.63 150.35 76.276C150.296 75.922 150.191 75.598 150.035 75.304C149.879 75.004 149.66 74.764 149.378 74.584C149.096 74.404 148.736 74.314 148.298 74.314C147.746 74.314 147.284 74.455 146.912 74.737C146.54 75.019 146.261 75.391 146.075 75.853C145.889 76.309 145.796 76.804 145.796 77.338V77.914C145.796 78.514 145.886 79.051 146.066 79.525C146.252 79.999 146.528 80.374 146.894 80.65C147.26 80.926 147.722 81.064 148.28 81.064C148.838 81.064 149.297 80.929 149.657 80.659C150.017 80.389 150.236 79.99 150.314 79.462H151.772C151.682 80.032 151.478 80.524 151.16 80.938C150.842 81.346 150.437 81.661 149.945 81.883C149.453 82.105 148.898 82.216 148.28 82.216ZM159.506 82L159.326 80.11V76.42C159.326 75.646 159.161 75.091 158.831 74.755C158.501 74.413 158.006 74.242 157.346 74.242C156.974 74.242 156.635 74.296 156.329 74.404C156.029 74.512 155.789 74.68 155.609 74.908C155.435 75.13 155.348 75.418 155.348 75.772H153.782C153.782 75.148 153.935 74.647 154.241 74.269C154.547 73.885 154.967 73.609 155.501 73.441C156.041 73.267 156.656 73.18 157.346 73.18C158.006 73.18 158.591 73.291 159.101 73.513C159.611 73.735 160.01 74.089 160.298 74.575C160.586 75.055 160.73 75.682 160.73 76.456V82H159.506ZM156.572 82.216C155.864 82.216 155.279 82.09 154.817 81.838C154.355 81.586 154.01 81.259 153.782 80.857C153.554 80.455 153.44 80.032 153.44 79.588C153.44 79.006 153.584 78.532 153.872 78.166C154.166 77.8 154.565 77.533 155.069 77.365C155.573 77.191 156.14 77.104 156.77 77.104C157.22 77.104 157.67 77.149 158.12 77.239C158.576 77.329 159.02 77.452 159.452 77.608V78.49C159.092 78.346 158.684 78.232 158.228 78.148C157.778 78.064 157.364 78.022 156.986 78.022C156.41 78.022 155.924 78.142 155.528 78.382C155.132 78.616 154.934 79.018 154.934 79.588C154.934 80.008 155.084 80.368 155.384 80.668C155.69 80.968 156.176 81.118 156.842 81.118C157.31 81.118 157.73 81.01 158.102 80.794C158.48 80.572 158.777 80.296 158.993 79.966C159.215 79.636 159.326 79.306 159.326 78.976H159.668C159.668 79.552 159.542 80.086 159.29 80.578C159.044 81.07 158.69 81.466 158.228 81.766C157.766 82.066 157.214 82.216 156.572 82.216ZM166.828 82.216C165.994 82.216 165.298 82.099 164.74 81.865C164.182 81.625 163.759 81.298 163.471 80.884C163.183 80.464 163.03 79.984 163.012 79.444H164.362C164.392 79.99 164.611 80.401 165.019 80.677C165.433 80.947 165.994 81.082 166.702 81.082C167.074 81.082 167.416 81.022 167.728 80.902C168.04 80.782 168.289 80.617 168.475 80.407C168.661 80.197 168.754 79.96 168.754 79.696C168.754 79.36 168.631 79.096 168.385 78.904C168.139 78.712 167.746 78.544 167.206 78.4L165.532 77.86C164.806 77.632 164.248 77.32 163.858 76.924C163.474 76.522 163.282 76.042 163.282 75.484C163.282 74.788 163.588 74.23 164.2 73.81C164.812 73.39 165.616 73.18 166.612 73.18C167.668 73.18 168.487 73.396 169.069 73.828C169.651 74.26 169.954 74.8 169.978 75.448H168.592C168.538 75.07 168.346 74.785 168.016 74.593C167.686 74.395 167.218 74.296 166.612 74.296C166.03 74.296 165.574 74.428 165.244 74.692C164.92 74.95 164.758 75.238 164.758 75.556C164.758 76.15 165.268 76.588 166.288 76.87L167.998 77.446C168.736 77.668 169.3 77.959 169.69 78.319C170.086 78.679 170.284 79.138 170.284 79.696C170.284 80.128 170.143 80.536 169.861 80.92C169.579 81.304 169.18 81.616 168.664 81.856C168.148 82.096 167.536 82.216 166.828 82.216ZM175.817 82.216C175.073 82.216 174.407 82.027 173.819 81.649C173.237 81.265 172.775 80.734 172.433 80.056C172.097 79.378 171.929 78.598 171.929 77.716C171.929 76.774 172.097 75.964 172.433 75.286C172.769 74.608 173.228 74.089 173.81 73.729C174.398 73.363 175.067 73.18 175.817 73.18C176.471 73.18 177.029 73.312 177.491 73.576C177.953 73.84 178.325 74.197 178.607 74.647C178.889 75.097 179.084 75.607 179.192 76.177C179.306 76.741 179.339 77.326 179.291 77.932H173.063V77.068H178.364L177.95 77.338C177.968 76.984 177.947 76.63 177.887 76.276C177.833 75.922 177.728 75.598 177.572 75.304C177.416 75.004 177.197 74.764 176.915 74.584C176.633 74.404 176.273 74.314 175.835 74.314C175.283 74.314 174.821 74.455 174.449 74.737C174.077 75.019 173.798 75.391 173.612 75.853C173.426 76.309 173.333 76.804 173.333 77.338V77.914C173.333 78.514 173.423 79.051 173.603 79.525C173.789 79.999 174.065 80.374 174.431 80.65C174.797 80.926 175.259 81.064 175.817 81.064C176.375 81.064 176.834 80.929 177.194 80.659C177.554 80.389 177.773 79.99 177.851 79.462H179.309C179.219 80.032 179.015 80.524 178.697 80.938C178.379 81.346 177.974 81.661 177.482 81.883C176.99 82.105 176.435 82.216 175.817 82.216ZM186.419 71.362C186.131 71.362 185.903 71.281 185.735 71.119C185.567 70.951 185.483 70.732 185.483 70.462C185.483 70.198 185.567 69.988 185.735 69.832C185.903 69.676 186.131 69.598 186.419 69.598C186.707 69.598 186.935 69.676 187.103 69.832C187.271 69.988 187.355 70.198 187.355 70.462C187.355 70.732 187.271 70.951 187.103 71.119C186.935 71.281 186.707 71.362 186.419 71.362ZM185.717 82V73.378H187.121V82H185.717ZM196.748 82V76.942C196.748 76.12 196.55 75.496 196.154 75.07C195.764 74.638 195.23 74.422 194.552 74.422C194.036 74.422 193.589 74.563 193.211 74.845C192.833 75.127 192.542 75.532 192.338 76.06C192.134 76.582 192.032 77.206 192.032 77.932H191.492C191.492 76.93 191.624 76.075 191.888 75.367C192.152 74.659 192.536 74.119 193.04 73.747C193.55 73.369 194.168 73.18 194.894 73.18C195.572 73.18 196.151 73.333 196.631 73.639C197.117 73.939 197.489 74.371 197.747 74.935C198.005 75.499 198.134 76.168 198.134 76.942V82H196.748ZM190.628 82V73.396H191.834L192.032 75.376V82H190.628ZM113.436 106.216C112.68 106.216 111.987 106.081 111.357 105.811C110.727 105.535 110.22 105.13 109.836 104.596C109.452 104.062 109.254 103.402 109.242 102.616H110.61C110.61 103.144 110.739 103.579 110.997 103.921C111.255 104.257 111.597 104.509 112.023 104.677C112.449 104.839 112.914 104.92 113.418 104.92C113.964 104.92 114.438 104.833 114.84 104.659C115.242 104.485 115.551 104.257 115.767 103.975C115.989 103.687 116.1 103.372 116.1 103.03C116.1 102.55 115.953 102.163 115.659 101.869C115.365 101.569 114.93 101.326 114.354 101.14L112.356 100.438C111.42 100.102 110.712 99.718 110.232 99.286C109.752 98.854 109.512 98.248 109.512 97.468C109.512 96.592 109.848 95.878 110.52 95.326C111.198 94.774 112.158 94.498 113.4 94.498C114.552 94.498 115.452 94.765 116.1 95.299C116.748 95.827 117.12 96.538 117.216 97.432H115.83C115.74 96.91 115.494 96.505 115.092 96.217C114.696 95.923 114.132 95.776 113.4 95.776C112.656 95.776 112.077 95.941 111.663 96.271C111.249 96.601 111.042 97.018 111.042 97.522C111.042 97.936 111.171 98.266 111.429 98.512C111.693 98.752 112.104 98.968 112.662 99.16L115.002 99.97C115.812 100.24 116.451 100.618 116.919 101.104C117.393 101.59 117.63 102.22 117.63 102.994C117.63 103.594 117.468 104.137 117.144 104.623C116.826 105.109 116.355 105.496 115.731 105.784C115.107 106.072 114.342 106.216 113.436 106.216ZM126.189 97.378H127.593V106H126.189V97.378ZM120.087 97.378H121.491V102.742C121.491 103.462 121.665 104.008 122.013 104.38C122.367 104.752 122.871 104.938 123.525 104.938C124.065 104.938 124.533 104.794 124.929 104.506C125.331 104.218 125.64 103.822 125.856 103.318C126.078 102.808 126.189 102.226 126.189 101.572H126.711C126.711 102.538 126.57 103.363 126.288 104.047C126.012 104.731 125.619 105.256 125.109 105.622C124.605 105.982 124.011 106.162 123.327 106.162C122.679 106.162 122.112 106.042 121.626 105.802C121.14 105.562 120.762 105.199 120.492 104.713C120.222 104.221 120.087 103.6 120.087 102.85V97.378ZM134.783 106.216C134.153 106.216 133.604 106.072 133.136 105.784C132.674 105.496 132.317 105.076 132.065 104.524C131.813 103.966 131.687 103.288 131.687 102.49H132.281C132.281 103.024 132.392 103.474 132.614 103.84C132.836 104.206 133.124 104.485 133.478 104.677C133.838 104.863 134.219 104.956 134.621 104.956C135.053 104.956 135.467 104.833 135.863 104.587C136.259 104.335 136.583 103.966 136.835 103.48C137.087 102.994 137.213 102.394 137.213 101.68C137.213 100.996 137.096 100.411 136.862 99.925C136.634 99.439 136.325 99.067 135.935 98.809C135.545 98.551 135.113 98.422 134.639 98.422C134.231 98.422 133.847 98.521 133.487 98.719C133.127 98.917 132.836 99.208 132.614 99.592C132.392 99.97 132.281 100.438 132.281 100.996H131.687C131.687 100.162 131.825 99.463 132.101 98.899C132.377 98.329 132.752 97.9 133.226 97.612C133.7 97.324 134.231 97.18 134.819 97.18C135.491 97.18 136.118 97.36 136.7 97.72C137.282 98.08 137.753 98.596 138.113 99.268C138.473 99.94 138.653 100.744 138.653 101.68C138.653 102.628 138.47 103.441 138.104 104.119C137.744 104.797 137.27 105.316 136.682 105.676C136.094 106.036 135.461 106.216 134.783 106.216ZM130.877 110.23V97.396H132.047L132.281 99.412V110.23H130.877ZM144.953 106.216C144.323 106.216 143.774 106.072 143.306 105.784C142.844 105.496 142.487 105.076 142.235 104.524C141.983 103.966 141.857 103.288 141.857 102.49H142.451C142.451 103.024 142.562 103.474 142.784 103.84C143.006 104.206 143.294 104.485 143.648 104.677C144.008 104.863 144.389 104.956 144.791 104.956C145.223 104.956 145.637 104.833 146.033 104.587C146.429 104.335 146.753 103.966 147.005 103.48C147.257 102.994 147.383 102.394 147.383 101.68C147.383 100.996 147.266 100.411 147.032 99.925C146.804 99.439 146.495 99.067 146.105 98.809C145.715 98.551 145.283 98.422 144.809 98.422C144.401 98.422 144.017 98.521 143.657 98.719C143.297 98.917 143.006 99.208 142.784 99.592C142.562 99.97 142.451 100.438 142.451 100.996H141.857C141.857 100.162 141.995 99.463 142.271 98.899C142.547 98.329 142.922 97.9 143.396 97.612C143.87 97.324 144.401 97.18 144.989 97.18C145.661 97.18 146.288 97.36 146.87 97.72C147.452 98.08 147.923 98.596 148.283 99.268C148.643 99.94 148.823 100.744 148.823 101.68C148.823 102.628 148.64 103.441 148.274 104.119C147.914 104.797 147.44 105.316 146.852 105.676C146.264 106.036 145.631 106.216 144.953 106.216ZM141.047 110.23V97.396H142.217L142.451 99.412V110.23H141.047ZM154.33 106.216C153.556 106.216 152.866 106.045 152.26 105.703C151.66 105.361 151.186 104.854 150.838 104.182C150.49 103.51 150.316 102.682 150.316 101.698C150.316 100.708 150.49 99.88 150.838 99.214C151.186 98.542 151.66 98.035 152.26 97.693C152.866 97.351 153.556 97.18 154.33 97.18C155.098 97.18 155.782 97.351 156.382 97.693C156.988 98.035 157.462 98.542 157.804 99.214C158.152 99.88 158.326 100.708 158.326 101.698C158.326 102.682 158.152 103.51 157.804 104.182C157.462 104.854 156.988 105.361 156.382 105.703C155.782 106.045 155.098 106.216 154.33 106.216ZM154.294 104.992C154.852 104.992 155.326 104.86 155.716 104.596C156.106 104.326 156.4 103.945 156.598 103.453C156.802 102.961 156.904 102.376 156.904 101.698C156.904 100.672 156.691 99.865 156.265 99.277C155.839 98.683 155.206 98.386 154.366 98.386C153.802 98.386 153.325 98.521 152.935 98.791C152.551 99.055 152.257 99.436 152.053 99.934C151.855 100.426 151.756 101.014 151.756 101.698C151.756 102.712 151.969 103.516 152.395 104.11C152.827 104.698 153.46 104.992 154.294 104.992ZM160.7 106V97.378H162.104V106H160.7ZM161.672 102.112C161.672 101.02 161.777 100.114 161.987 99.394C162.197 98.668 162.503 98.128 162.905 97.774C163.313 97.414 163.808 97.234 164.39 97.234C164.582 97.234 164.756 97.249 164.912 97.279C165.074 97.303 165.236 97.342 165.398 97.396L165.308 98.782C165.14 98.728 164.957 98.683 164.759 98.647C164.561 98.605 164.384 98.584 164.228 98.584C163.718 98.584 163.307 98.731 162.995 99.025C162.683 99.313 162.455 99.721 162.311 100.249C162.173 100.777 162.104 101.398 162.104 102.112H161.672ZM169.49 106.216C169.022 106.216 168.602 106.126 168.23 105.946C167.858 105.766 167.564 105.496 167.348 105.136C167.132 104.776 167.024 104.326 167.024 103.786V95.002H168.41V103.75C168.41 104.638 168.824 105.082 169.652 105.082C169.898 105.082 170.135 105.055 170.363 105.001C170.597 104.947 170.858 104.866 171.146 104.758L171.344 105.766C171.038 105.898 170.732 106.006 170.426 106.09C170.126 106.174 169.814 106.216 169.49 106.216ZM165.638 98.368V97.396H171.128V98.368H165.638ZM176.347 106.216C175.513 106.216 174.817 106.099 174.259 105.865C173.701 105.625 173.278 105.298 172.99 104.884C172.702 104.464 172.549 103.984 172.531 103.444H173.881C173.911 103.99 174.13 104.401 174.538 104.677C174.952 104.947 175.513 105.082 176.221 105.082C176.593 105.082 176.935 105.022 177.247 104.902C177.559 104.782 177.808 104.617 177.994 104.407C178.18 104.197 178.273 103.96 178.273 103.696C178.273 103.36 178.15 103.096 177.904 102.904C177.658 102.712 177.265 102.544 176.725 102.4L175.051 101.86C174.325 101.632 173.767 101.32 173.377 100.924C172.993 100.522 172.801 100.042 172.801 99.484C172.801 98.788 173.107 98.23 173.719 97.81C174.331 97.39 175.135 97.18 176.131 97.18C177.187 97.18 178.006 97.396 178.588 97.828C179.17 98.26 179.473 98.8 179.497 99.448H178.111C178.057 99.07 177.865 98.785 177.535 98.593C177.205 98.395 176.737 98.296 176.131 98.296C175.549 98.296 175.093 98.428 174.763 98.692C174.439 98.95 174.277 99.238 174.277 99.556C174.277 100.15 174.787 100.588 175.807 100.87L177.517 101.446C178.255 101.668 178.819 101.959 179.209 102.319C179.605 102.679 179.803 103.138 179.803 103.696C179.803 104.128 179.662 104.536 179.38 104.92C179.098 105.304 178.699 105.616 178.183 105.856C177.667 106.096 177.055 106.216 176.347 106.216ZM190.184 106.216C189.188 106.216 188.33 105.967 187.61 105.469C186.89 104.965 186.335 104.269 185.945 103.381C185.555 102.487 185.36 101.452 185.36 100.276C185.36 99.022 185.57 97.966 185.99 97.108C186.416 96.25 186.992 95.602 187.718 95.164C188.45 94.72 189.272 94.498 190.184 94.498C191.39 94.498 192.359 94.801 193.091 95.407C193.829 96.007 194.336 96.79 194.612 97.756L193.1 98.062C192.866 97.36 192.491 96.802 191.975 96.388C191.465 95.968 190.868 95.758 190.184 95.758C189.59 95.758 189.041 95.929 188.537 96.271C188.039 96.607 187.637 97.111 187.331 97.783C187.025 98.455 186.872 99.286 186.872 100.276C186.872 101.176 186.992 101.977 187.232 102.679C187.478 103.381 187.844 103.933 188.33 104.335C188.822 104.737 189.44 104.938 190.184 104.938C191.078 104.938 191.786 104.698 192.308 104.218C192.836 103.738 193.1 103.108 193.1 102.328H194.63C194.63 103.138 194.444 103.834 194.072 104.416C193.7 104.992 193.178 105.436 192.506 105.748C191.84 106.06 191.066 106.216 190.184 106.216ZM200.053 106.216C199.279 106.216 198.589 106.045 197.983 105.703C197.383 105.361 196.909 104.854 196.561 104.182C196.213 103.51 196.039 102.682 196.039 101.698C196.039 100.708 196.213 99.88 196.561 99.214C196.909 98.542 197.383 98.035 197.983 97.693C198.589 97.351 199.279 97.18 200.053 97.18C200.821 97.18 201.505 97.351 202.105 97.693C202.711 98.035 203.185 98.542 203.527 99.214C203.875 99.88 204.049 100.708 204.049 101.698C204.049 102.682 203.875 103.51 203.527 104.182C203.185 104.854 202.711 105.361 202.105 105.703C201.505 106.045 200.821 106.216 200.053 106.216ZM200.017 104.992C200.575 104.992 201.049 104.86 201.439 104.596C201.829 104.326 202.123 103.945 202.321 103.453C202.525 102.961 202.627 102.376 202.627 101.698C202.627 100.672 202.414 99.865 201.988 99.277C201.562 98.683 200.929 98.386 200.089 98.386C199.525 98.386 199.048 98.521 198.658 98.791C198.274 99.055 197.98 99.436 197.776 99.934C197.578 100.426 197.479 101.014 197.479 101.698C197.479 102.712 197.692 103.516 198.118 104.11C198.55 104.698 199.183 104.992 200.017 104.992ZM209.518 106.216C208.684 106.216 207.988 106.099 207.43 105.865C206.872 105.625 206.449 105.298 206.161 104.884C205.873 104.464 205.72 103.984 205.702 103.444H207.052C207.082 103.99 207.301 104.401 207.709 104.677C208.123 104.947 208.684 105.082 209.392 105.082C209.764 105.082 210.106 105.022 210.418 104.902C210.73 104.782 210.979 104.617 211.165 104.407C211.351 104.197 211.444 103.96 211.444 103.696C211.444 103.36 211.321 103.096 211.075 102.904C210.829 102.712 210.436 102.544 209.896 102.4L208.222 101.86C207.496 101.632 206.938 101.32 206.548 100.924C206.164 100.522 205.972 100.042 205.972 99.484C205.972 98.788 206.278 98.23 206.89 97.81C207.502 97.39 208.306 97.18 209.302 97.18C210.358 97.18 211.177 97.396 211.759 97.828C212.341 98.26 212.644 98.8 212.668 99.448H211.282C211.228 99.07 211.036 98.785 210.706 98.593C210.376 98.395 209.908 98.296 209.302 98.296C208.72 98.296 208.264 98.428 207.934 98.692C207.61 98.95 207.448 99.238 207.448 99.556C207.448 100.15 207.958 100.588 208.978 100.87L210.688 101.446C211.426 101.668 211.99 101.959 212.38 102.319C212.776 102.679 212.974 103.138 212.974 103.696C212.974 104.128 212.833 104.536 212.551 104.92C212.269 105.304 211.87 105.616 211.354 105.856C210.838 106.096 210.226 106.216 209.518 106.216ZM218.165 106.216C217.697 106.216 217.277 106.126 216.905 105.946C216.533 105.766 216.239 105.496 216.023 105.136C215.807 104.776 215.699 104.326 215.699 103.786V95.002H217.085V103.75C217.085 104.638 217.499 105.082 218.327 105.082C218.573 105.082 218.81 105.055 219.038 105.001C219.272 104.947 219.533 104.866 219.821 104.758L220.019 105.766C219.713 105.898 219.407 106.006 219.101 106.09C218.801 106.174 218.489 106.216 218.165 106.216ZM214.313 98.368V97.396H219.803V98.368H214.313ZM225.023 106.216C224.189 106.216 223.493 106.099 222.935 105.865C222.377 105.625 221.954 105.298 221.666 104.884C221.378 104.464 221.225 103.984 221.207 103.444H222.557C222.587 103.99 222.806 104.401 223.214 104.677C223.628 104.947 224.189 105.082 224.897 105.082C225.269 105.082 225.611 105.022 225.923 104.902C226.235 104.782 226.484 104.617 226.67 104.407C226.856 104.197 226.949 103.96 226.949 103.696C226.949 103.36 226.826 103.096 226.58 102.904C226.334 102.712 225.941 102.544 225.401 102.4L223.727 101.86C223.001 101.632 222.443 101.32 222.053 100.924C221.669 100.522 221.477 100.042 221.477 99.484C221.477 98.788 221.783 98.23 222.395 97.81C223.007 97.39 223.811 97.18 224.807 97.18C225.863 97.18 226.682 97.396 227.264 97.828C227.846 98.26 228.149 98.8 228.173 99.448H226.787C226.733 99.07 226.541 98.785 226.211 98.593C225.881 98.395 225.413 98.296 224.807 98.296C224.225 98.296 223.769 98.428 223.439 98.692C223.115 98.95 222.953 99.238 222.953 99.556C222.953 100.15 223.463 100.588 224.483 100.87L226.193 101.446C226.931 101.668 227.495 101.959 227.885 102.319C228.281 102.679 228.479 103.138 228.479 103.696C228.479 104.128 228.338 104.536 228.056 104.92C227.774 105.304 227.375 105.616 226.859 105.856C226.343 106.096 225.731 106.216 225.023 106.216Z" fill="#6E707E"/>
</svg>
