<svg width="288" height="136" viewBox="0 0 288 136" fill="none" xmlns="http://www.w3.org/2000/svg">
<rect width="288" height="136" rx="8" fill="white"/>
<path d="M51.892 52.9107L35.928 41.7507C33.4293 40.004 30 41.7907 30 44.84V67.1587C30 70.2053 33.4293 71.9933 35.928 70.2467L51.892 59.0867C52.389 58.7393 52.7949 58.2772 53.0752 57.7395C53.3554 57.2018 53.5018 56.6044 53.5018 55.998C53.5018 55.3916 53.3554 54.7942 53.0752 54.2565C52.7949 53.7188 52.389 53.2566 51.892 52.9093V52.9107Z" stroke="#0176D3" stroke-width="1.8" stroke-linecap="round" stroke-linejoin="round"/>
<path d="M52.8428 43.4453V39.672C52.8428 37.3293 55.4828 35.9493 57.4134 37.2987L80.7601 53.6213C81.1433 53.8885 81.4562 54.2444 81.6723 54.6585C81.8884 55.0726 82.0012 55.5329 82.0012 56C82.0012 56.4671 81.8884 56.9273 81.6723 57.3415C81.4562 57.7556 81.1433 58.1114 80.7601 58.3787L57.4134 74.7013C55.4828 76.0507 52.8428 74.672 52.8428 72.3173V68.5547" stroke="#0176D3" stroke-width="1.8" stroke-linecap="round" stroke-linejoin="round"/>
<path d="M41.6039 66.28V69.6973C41.6039 72.524 44.7945 74.1893 47.1105 72.564L52.8425 68.5547L66.7025 58.872C67.1654 58.5497 67.5436 58.1203 67.8047 57.6203C68.0658 57.1204 68.2022 56.5647 68.2022 56.0007C68.2022 55.4366 68.0658 54.8809 67.8047 54.381C67.5436 53.881 67.1654 53.4516 66.7025 53.1293L52.8425 43.4467L47.1092 39.4373C44.7945 37.8107 41.6025 39.4667 41.6025 42.304V45.7213" stroke="#0176D3" stroke-width="1.8" stroke-linecap="round" stroke-linejoin="round"/>
<path d="M116.638 52.378C115.705 52.378 114.799 52.252 113.922 52C113.054 51.7387 112.27 51.356 111.57 50.852C110.879 50.348 110.329 49.7227 109.918 48.976C109.517 48.2293 109.316 47.366 109.316 46.386H112.452C112.489 47.0673 112.69 47.6507 113.054 48.136C113.418 48.6213 113.908 48.9947 114.524 49.256C115.14 49.508 115.845 49.634 116.638 49.634C117.823 49.634 118.747 49.3587 119.41 48.808C120.082 48.248 120.418 47.548 120.418 46.708C120.418 46.1573 120.278 45.6813 119.998 45.28C119.727 44.8787 119.307 44.5707 118.738 44.356C118.169 44.132 117.436 44.02 116.54 44.02H114.244V41.654H116.092C117.24 41.654 118.141 41.416 118.794 40.94C119.447 40.4547 119.774 39.7967 119.774 38.966C119.774 38.2287 119.499 37.6127 118.948 37.118C118.397 36.614 117.581 36.362 116.498 36.362C115.63 36.362 114.855 36.5393 114.174 36.894C113.502 37.2487 113.063 37.8693 112.858 38.756H109.722C109.862 37.552 110.231 36.5767 110.828 35.83C111.435 35.074 112.214 34.5233 113.166 34.178C114.127 33.8233 115.201 33.646 116.386 33.646C117.655 33.646 118.789 33.8607 119.788 34.29C120.787 34.71 121.571 35.2933 122.14 36.04C122.719 36.7867 123.008 37.65 123.008 38.63C123.008 39.554 122.751 40.3567 122.238 41.038C121.725 41.71 120.973 42.2187 119.984 42.564C121.085 42.9187 121.972 43.4647 122.644 44.202C123.325 44.9393 123.666 45.8633 123.666 46.974C123.666 48.0287 123.377 48.962 122.798 49.774C122.219 50.586 121.403 51.2253 120.348 51.692C119.293 52.1493 118.057 52.378 116.638 52.378ZM126.04 52V49.032C126.04 48.0147 126.194 47.156 126.502 46.456C126.819 45.7467 127.281 45.154 127.888 44.678C128.504 44.202 129.26 43.7913 130.156 43.446L133.81 42.032C134.641 41.696 135.257 41.276 135.658 40.772C136.069 40.268 136.274 39.6473 136.274 38.91C136.274 38.154 136.003 37.524 135.462 37.02C134.921 36.516 134.16 36.264 133.18 36.264C132.209 36.264 131.407 36.4927 130.772 36.95C130.137 37.4073 129.773 38.0793 129.68 38.966H126.348C126.395 37.79 126.712 36.8053 127.3 36.012C127.897 35.2187 128.695 34.626 129.694 34.234C130.702 33.842 131.845 33.646 133.124 33.646C134.328 33.646 135.411 33.8747 136.372 34.332C137.333 34.78 138.094 35.41 138.654 36.222C139.223 37.034 139.508 37.9767 139.508 39.05C139.508 39.974 139.335 40.786 138.99 41.486C138.654 42.186 138.15 42.7973 137.478 43.32C136.806 43.8333 135.971 44.286 134.972 44.678L131.276 46.134C130.511 46.4327 129.946 46.7733 129.582 47.156C129.218 47.5293 129.036 48.024 129.036 48.64V49.256H139.382V52H126.04ZM143.236 52L155.416 33.996H158.454L146.288 52H143.236ZM156.046 52.294C155.393 52.294 154.777 52.14 154.198 51.832C153.629 51.524 153.172 51.062 152.826 50.446C152.481 49.8207 152.308 49.0413 152.308 48.108C152.308 47.1747 152.481 46.4 152.826 45.784C153.172 45.1587 153.629 44.692 154.198 44.384C154.777 44.076 155.393 43.922 156.046 43.922C156.718 43.922 157.344 44.076 157.922 44.384C158.501 44.692 158.963 45.1587 159.308 45.784C159.663 46.4 159.84 47.1747 159.84 48.108C159.84 49.0413 159.663 49.8207 159.308 50.446C158.963 51.062 158.501 51.524 157.922 51.832C157.344 52.14 156.718 52.294 156.046 52.294ZM156.046 50.348C156.494 50.348 156.854 50.1753 157.124 49.83C157.404 49.4847 157.544 48.9107 157.544 48.108C157.544 47.3053 157.404 46.7313 157.124 46.386C156.854 46.0313 156.494 45.854 156.046 45.854C155.598 45.854 155.239 46.0313 154.968 46.386C154.698 46.7313 154.562 47.3053 154.562 48.108C154.562 48.9107 154.698 49.4847 154.968 49.83C155.239 50.1753 155.598 50.348 156.046 50.348ZM145.672 41.99C145.019 41.99 144.408 41.836 143.838 41.528C143.269 41.22 142.807 40.758 142.452 40.142C142.107 39.5167 141.934 38.7373 141.934 37.804C141.934 36.88 142.107 36.11 142.452 35.494C142.807 34.878 143.269 34.416 143.838 34.108C144.408 33.8 145.019 33.646 145.672 33.646C146.354 33.646 146.979 33.8 147.548 34.108C148.127 34.416 148.589 34.878 148.934 35.494C149.289 36.11 149.466 36.88 149.466 37.804C149.466 38.7373 149.289 39.5167 148.934 40.142C148.589 40.758 148.127 41.22 147.548 41.528C146.979 41.836 146.354 41.99 145.672 41.99ZM145.672 40.058C146.111 40.058 146.47 39.8853 146.75 39.54C147.03 39.1947 147.17 38.616 147.17 37.804C147.17 37.0107 147.03 36.4413 146.75 36.096C146.47 35.7413 146.111 35.564 145.672 35.564C145.234 35.564 144.879 35.7413 144.608 36.096C144.338 36.4413 144.202 37.0107 144.202 37.804C144.202 38.616 144.338 39.1947 144.608 39.54C144.879 39.8853 145.234 40.058 145.672 40.058Z" fill="#18181A"/>
<path d="M109.818 82V70.696H116.694V71.902H111.222V75.664H116.316V76.87H111.222V82H109.818ZM123.786 82L123.606 80.11V76.42C123.606 75.646 123.441 75.091 123.111 74.755C122.781 74.413 122.286 74.242 121.626 74.242C121.254 74.242 120.915 74.296 120.609 74.404C120.309 74.512 120.069 74.68 119.889 74.908C119.715 75.13 119.628 75.418 119.628 75.772H118.062C118.062 75.148 118.215 74.647 118.521 74.269C118.827 73.885 119.247 73.609 119.781 73.441C120.321 73.267 120.936 73.18 121.626 73.18C122.286 73.18 122.871 73.291 123.381 73.513C123.891 73.735 124.29 74.089 124.578 74.575C124.866 75.055 125.01 75.682 125.01 76.456V82H123.786ZM120.852 82.216C120.144 82.216 119.559 82.09 119.097 81.838C118.635 81.586 118.29 81.259 118.062 80.857C117.834 80.455 117.72 80.032 117.72 79.588C117.72 79.006 117.864 78.532 118.152 78.166C118.446 77.8 118.845 77.533 119.349 77.365C119.853 77.191 120.42 77.104 121.05 77.104C121.5 77.104 121.95 77.149 122.4 77.239C122.856 77.329 123.3 77.452 123.732 77.608V78.49C123.372 78.346 122.964 78.232 122.508 78.148C122.058 78.064 121.644 78.022 121.266 78.022C120.69 78.022 120.204 78.142 119.808 78.382C119.412 78.616 119.214 79.018 119.214 79.588C119.214 80.008 119.364 80.368 119.664 80.668C119.97 80.968 120.456 81.118 121.122 81.118C121.59 81.118 122.01 81.01 122.382 80.794C122.76 80.572 123.057 80.296 123.273 79.966C123.495 79.636 123.606 79.306 123.606 78.976H123.948C123.948 79.552 123.822 80.086 123.57 80.578C123.324 81.07 122.97 81.466 122.508 81.766C122.046 82.066 121.494 82.216 120.852 82.216ZM131.108 82.216C130.274 82.216 129.578 82.099 129.02 81.865C128.462 81.625 128.039 81.298 127.751 80.884C127.463 80.464 127.31 79.984 127.292 79.444H128.642C128.672 79.99 128.891 80.401 129.299 80.677C129.713 80.947 130.274 81.082 130.982 81.082C131.354 81.082 131.696 81.022 132.008 80.902C132.32 80.782 132.569 80.617 132.755 80.407C132.941 80.197 133.034 79.96 133.034 79.696C133.034 79.36 132.911 79.096 132.665 78.904C132.419 78.712 132.026 78.544 131.486 78.4L129.812 77.86C129.086 77.632 128.528 77.32 128.138 76.924C127.754 76.522 127.562 76.042 127.562 75.484C127.562 74.788 127.868 74.23 128.48 73.81C129.092 73.39 129.896 73.18 130.892 73.18C131.948 73.18 132.767 73.396 133.349 73.828C133.931 74.26 134.234 74.8 134.258 75.448H132.872C132.818 75.07 132.626 74.785 132.296 74.593C131.966 74.395 131.498 74.296 130.892 74.296C130.31 74.296 129.854 74.428 129.524 74.692C129.2 74.95 129.038 75.238 129.038 75.556C129.038 76.15 129.548 76.588 130.568 76.87L132.278 77.446C133.016 77.668 133.58 77.959 133.97 78.319C134.366 78.679 134.564 79.138 134.564 79.696C134.564 80.128 134.423 80.536 134.141 80.92C133.859 81.304 133.46 81.616 132.944 81.856C132.428 82.096 131.816 82.216 131.108 82.216ZM139.755 82.216C139.287 82.216 138.867 82.126 138.495 81.946C138.123 81.766 137.829 81.496 137.613 81.136C137.397 80.776 137.289 80.326 137.289 79.786V71.002H138.675V79.75C138.675 80.638 139.089 81.082 139.917 81.082C140.163 81.082 140.4 81.055 140.628 81.001C140.862 80.947 141.123 80.866 141.411 80.758L141.609 81.766C141.303 81.898 140.997 82.006 140.691 82.09C140.391 82.174 140.079 82.216 139.755 82.216ZM135.903 74.368V73.396H141.393V74.368H135.903ZM146.505 82.216C145.761 82.216 145.095 82.027 144.507 81.649C143.925 81.265 143.463 80.734 143.121 80.056C142.785 79.378 142.617 78.598 142.617 77.716C142.617 76.774 142.785 75.964 143.121 75.286C143.457 74.608 143.916 74.089 144.498 73.729C145.086 73.363 145.755 73.18 146.505 73.18C147.159 73.18 147.717 73.312 148.179 73.576C148.641 73.84 149.013 74.197 149.295 74.647C149.577 75.097 149.772 75.607 149.88 76.177C149.994 76.741 150.027 77.326 149.979 77.932H143.751V77.068H149.052L148.638 77.338C148.656 76.984 148.635 76.63 148.575 76.276C148.521 75.922 148.416 75.598 148.26 75.304C148.104 75.004 147.885 74.764 147.603 74.584C147.321 74.404 146.961 74.314 146.523 74.314C145.971 74.314 145.509 74.455 145.137 74.737C144.765 75.019 144.486 75.391 144.3 75.853C144.114 76.309 144.021 76.804 144.021 77.338V77.914C144.021 78.514 144.111 79.051 144.291 79.525C144.477 79.999 144.753 80.374 145.119 80.65C145.485 80.926 145.947 81.064 146.505 81.064C147.063 81.064 147.522 80.929 147.882 80.659C148.242 80.389 148.461 79.99 148.539 79.462H149.997C149.907 80.032 149.703 80.524 149.385 80.938C149.067 81.346 148.662 81.661 148.17 81.883C147.678 82.105 147.123 82.216 146.505 82.216ZM152.403 82V73.378H153.807V82H152.403ZM153.375 78.112C153.375 77.02 153.48 76.114 153.69 75.394C153.9 74.668 154.206 74.128 154.608 73.774C155.016 73.414 155.511 73.234 156.093 73.234C156.285 73.234 156.459 73.249 156.615 73.279C156.777 73.303 156.939 73.342 157.101 73.396L157.011 74.782C156.843 74.728 156.66 74.683 156.462 74.647C156.264 74.605 156.087 74.584 155.931 74.584C155.421 74.584 155.01 74.731 154.698 75.025C154.386 75.313 154.158 75.721 154.014 76.249C153.876 76.777 153.807 77.398 153.807 78.112H153.375ZM162.458 82V70.696H163.862V82H162.458ZM170.239 82.216C169.405 82.216 168.709 82.099 168.151 81.865C167.593 81.625 167.17 81.298 166.882 80.884C166.594 80.464 166.441 79.984 166.423 79.444H167.773C167.803 79.99 168.022 80.401 168.43 80.677C168.844 80.947 169.405 81.082 170.113 81.082C170.485 81.082 170.827 81.022 171.139 80.902C171.451 80.782 171.7 80.617 171.886 80.407C172.072 80.197 172.165 79.96 172.165 79.696C172.165 79.36 172.042 79.096 171.796 78.904C171.55 78.712 171.157 78.544 170.617 78.4L168.943 77.86C168.217 77.632 167.659 77.32 167.269 76.924C166.885 76.522 166.693 76.042 166.693 75.484C166.693 74.788 166.999 74.23 167.611 73.81C168.223 73.39 169.027 73.18 170.023 73.18C171.079 73.18 171.898 73.396 172.48 73.828C173.062 74.26 173.365 74.8 173.389 75.448H172.003C171.949 75.07 171.757 74.785 171.427 74.593C171.097 74.395 170.629 74.296 170.023 74.296C169.441 74.296 168.985 74.428 168.655 74.692C168.331 74.95 168.169 75.238 168.169 75.556C168.169 76.15 168.679 76.588 169.699 76.87L171.409 77.446C172.147 77.668 172.711 77.959 173.101 78.319C173.497 78.679 173.695 79.138 173.695 79.696C173.695 80.128 173.554 80.536 173.272 80.92C172.99 81.304 172.591 81.616 172.075 81.856C171.559 82.096 170.947 82.216 170.239 82.216ZM179.336 82.216C178.502 82.216 177.806 82.099 177.248 81.865C176.69 81.625 176.267 81.298 175.979 80.884C175.691 80.464 175.538 79.984 175.52 79.444H176.87C176.9 79.99 177.119 80.401 177.527 80.677C177.941 80.947 178.502 81.082 179.21 81.082C179.582 81.082 179.924 81.022 180.236 80.902C180.548 80.782 180.797 80.617 180.983 80.407C181.169 80.197 181.262 79.96 181.262 79.696C181.262 79.36 181.139 79.096 180.893 78.904C180.647 78.712 180.254 78.544 179.714 78.4L178.04 77.86C177.314 77.632 176.756 77.32 176.366 76.924C175.982 76.522 175.79 76.042 175.79 75.484C175.79 74.788 176.096 74.23 176.708 73.81C177.32 73.39 178.124 73.18 179.12 73.18C180.176 73.18 180.995 73.396 181.577 73.828C182.159 74.26 182.462 74.8 182.486 75.448H181.1C181.046 75.07 180.854 74.785 180.524 74.593C180.194 74.395 179.726 74.296 179.12 74.296C178.538 74.296 178.082 74.428 177.752 74.692C177.428 74.95 177.266 75.238 177.266 75.556C177.266 76.15 177.776 76.588 178.796 76.87L180.506 77.446C181.244 77.668 181.808 77.959 182.198 78.319C182.594 78.679 182.792 79.138 182.792 79.696C182.792 80.128 182.651 80.536 182.369 80.92C182.087 81.304 181.688 81.616 181.172 81.856C180.656 82.096 180.044 82.216 179.336 82.216ZM191.187 73.378H192.591V82H191.187V73.378ZM185.085 73.378H186.489V78.742C186.489 79.462 186.663 80.008 187.011 80.38C187.365 80.752 187.869 80.938 188.523 80.938C189.063 80.938 189.531 80.794 189.927 80.506C190.329 80.218 190.638 79.822 190.854 79.318C191.076 78.808 191.187 78.226 191.187 77.572H191.709C191.709 78.538 191.568 79.363 191.286 80.047C191.01 80.731 190.617 81.256 190.107 81.622C189.603 81.982 189.009 82.162 188.325 82.162C187.677 82.162 187.11 82.042 186.624 81.802C186.138 81.562 185.76 81.199 185.49 80.713C185.22 80.221 185.085 79.6 185.085 78.85V73.378ZM198.864 82.216C198.12 82.216 197.454 82.027 196.866 81.649C196.284 81.265 195.822 80.734 195.48 80.056C195.144 79.378 194.976 78.598 194.976 77.716C194.976 76.774 195.144 75.964 195.48 75.286C195.816 74.608 196.275 74.089 196.857 73.729C197.445 73.363 198.114 73.18 198.864 73.18C199.518 73.18 200.076 73.312 200.538 73.576C201 73.84 201.372 74.197 201.654 74.647C201.936 75.097 202.131 75.607 202.239 76.177C202.353 76.741 202.386 77.326 202.338 77.932H196.11V77.068H201.411L200.997 77.338C201.015 76.984 200.994 76.63 200.934 76.276C200.88 75.922 200.775 75.598 200.619 75.304C200.463 75.004 200.244 74.764 199.962 74.584C199.68 74.404 199.32 74.314 198.882 74.314C198.33 74.314 197.868 74.455 197.496 74.737C197.124 75.019 196.845 75.391 196.659 75.853C196.473 76.309 196.38 76.804 196.38 77.338V77.914C196.38 78.514 196.47 79.051 196.65 79.525C196.836 79.999 197.112 80.374 197.478 80.65C197.844 80.926 198.306 81.064 198.864 81.064C199.422 81.064 199.881 80.929 200.241 80.659C200.601 80.389 200.82 79.99 200.898 79.462H202.356C202.266 80.032 202.062 80.524 201.744 80.938C201.426 81.346 201.021 81.661 200.529 81.883C200.037 82.105 199.482 82.216 198.864 82.216ZM109.818 106V94.696H113.76C115.05 94.696 116.025 95.005 116.685 95.623C117.351 96.235 117.684 97.042 117.684 98.044C117.684 99.034 117.351 99.838 116.685 100.456C116.025 101.068 115.05 101.374 113.76 101.374H111.222V106H109.818ZM116.154 106L112.914 100.87H114.444L117.972 106H116.154ZM111.222 100.384H113.652C114.498 100.384 115.14 100.177 115.578 99.763C116.022 99.343 116.244 98.8 116.244 98.134C116.244 97.45 116.031 96.907 115.605 96.505C115.185 96.103 114.57 95.902 113.76 95.902H111.222V100.384ZM123.467 106.216C122.723 106.216 122.057 106.027 121.469 105.649C120.887 105.265 120.425 104.734 120.083 104.056C119.747 103.378 119.579 102.598 119.579 101.716C119.579 100.774 119.747 99.964 120.083 99.286C120.419 98.608 120.878 98.089 121.46 97.729C122.048 97.363 122.717 97.18 123.467 97.18C124.121 97.18 124.679 97.312 125.141 97.576C125.603 97.84 125.975 98.197 126.257 98.647C126.539 99.097 126.734 99.607 126.842 100.177C126.956 100.741 126.989 101.326 126.941 101.932H120.713V101.068H126.014L125.6 101.338C125.618 100.984 125.597 100.63 125.537 100.276C125.483 99.922 125.378 99.598 125.222 99.304C125.066 99.004 124.847 98.764 124.565 98.584C124.283 98.404 123.923 98.314 123.485 98.314C122.933 98.314 122.471 98.455 122.099 98.737C121.727 99.019 121.448 99.391 121.262 99.853C121.076 100.309 120.983 100.804 120.983 101.338V101.914C120.983 102.514 121.073 103.051 121.253 103.525C121.439 103.999 121.715 104.374 122.081 104.65C122.447 104.926 122.909 105.064 123.467 105.064C124.025 105.064 124.484 104.929 124.844 104.659C125.204 104.389 125.423 103.99 125.501 103.462H126.959C126.869 104.032 126.665 104.524 126.347 104.938C126.029 105.346 125.624 105.661 125.132 105.883C124.64 106.105 124.085 106.216 123.467 106.216ZM132.462 106.216C131.628 106.216 130.932 106.099 130.374 105.865C129.816 105.625 129.393 105.298 129.105 104.884C128.817 104.464 128.664 103.984 128.646 103.444H129.996C130.026 103.99 130.245 104.401 130.653 104.677C131.067 104.947 131.628 105.082 132.336 105.082C132.708 105.082 133.05 105.022 133.362 104.902C133.674 104.782 133.923 104.617 134.109 104.407C134.295 104.197 134.388 103.96 134.388 103.696C134.388 103.36 134.265 103.096 134.019 102.904C133.773 102.712 133.38 102.544 132.84 102.4L131.166 101.86C130.44 101.632 129.882 101.32 129.492 100.924C129.108 100.522 128.916 100.042 128.916 99.484C128.916 98.788 129.222 98.23 129.834 97.81C130.446 97.39 131.25 97.18 132.246 97.18C133.302 97.18 134.121 97.396 134.703 97.828C135.285 98.26 135.588 98.8 135.612 99.448H134.226C134.172 99.07 133.98 98.785 133.65 98.593C133.32 98.395 132.852 98.296 132.246 98.296C131.664 98.296 131.208 98.428 130.878 98.692C130.554 98.95 130.392 99.238 130.392 99.556C130.392 100.15 130.902 100.588 131.922 100.87L133.632 101.446C134.37 101.668 134.934 101.959 135.324 102.319C135.72 102.679 135.918 103.138 135.918 103.696C135.918 104.128 135.777 104.536 135.495 104.92C135.213 105.304 134.814 105.616 134.298 105.856C133.782 106.096 133.17 106.216 132.462 106.216ZM141.577 106.216C140.803 106.216 140.113 106.045 139.507 105.703C138.907 105.361 138.433 104.854 138.085 104.182C137.737 103.51 137.563 102.682 137.563 101.698C137.563 100.708 137.737 99.88 138.085 99.214C138.433 98.542 138.907 98.035 139.507 97.693C140.113 97.351 140.803 97.18 141.577 97.18C142.345 97.18 143.029 97.351 143.629 97.693C144.235 98.035 144.709 98.542 145.051 99.214C145.399 99.88 145.573 100.708 145.573 101.698C145.573 102.682 145.399 103.51 145.051 104.182C144.709 104.854 144.235 105.361 143.629 105.703C143.029 106.045 142.345 106.216 141.577 106.216ZM141.541 104.992C142.099 104.992 142.573 104.86 142.963 104.596C143.353 104.326 143.647 103.945 143.845 103.453C144.049 102.961 144.151 102.376 144.151 101.698C144.151 100.672 143.938 99.865 143.512 99.277C143.086 98.683 142.453 98.386 141.613 98.386C141.049 98.386 140.572 98.521 140.182 98.791C139.798 99.055 139.504 99.436 139.3 99.934C139.102 100.426 139.003 101.014 139.003 101.698C139.003 102.712 139.216 103.516 139.642 104.11C140.074 104.698 140.707 104.992 141.541 104.992ZM147.946 106V93.724H149.35V106H147.946ZM158.481 97.378H159.885V106H158.481V97.378ZM152.379 97.378H153.783V102.742C153.783 103.462 153.957 104.008 154.305 104.38C154.659 104.752 155.163 104.938 155.817 104.938C156.357 104.938 156.825 104.794 157.221 104.506C157.623 104.218 157.932 103.822 158.148 103.318C158.37 102.808 158.481 102.226 158.481 101.572H159.003C159.003 102.538 158.862 103.363 158.58 104.047C158.304 104.731 157.911 105.256 157.401 105.622C156.897 105.982 156.303 106.162 155.619 106.162C154.971 106.162 154.404 106.042 153.918 105.802C153.432 105.562 153.054 105.199 152.784 104.713C152.514 104.221 152.379 103.6 152.379 102.85V97.378ZM165.816 106.216C165.348 106.216 164.928 106.126 164.556 105.946C164.184 105.766 163.89 105.496 163.674 105.136C163.458 104.776 163.35 104.326 163.35 103.786V95.002H164.736V103.75C164.736 104.638 165.15 105.082 165.978 105.082C166.224 105.082 166.461 105.055 166.689 105.001C166.923 104.947 167.184 104.866 167.472 104.758L167.67 105.766C167.364 105.898 167.058 106.006 166.752 106.09C166.452 106.174 166.14 106.216 165.816 106.216ZM161.964 98.368V97.396H167.454V98.368H161.964ZM170.369 95.362C170.081 95.362 169.853 95.281 169.685 95.119C169.517 94.951 169.433 94.732 169.433 94.462C169.433 94.198 169.517 93.988 169.685 93.832C169.853 93.676 170.081 93.598 170.369 93.598C170.657 93.598 170.885 93.676 171.053 93.832C171.221 93.988 171.305 94.198 171.305 94.462C171.305 94.732 171.221 94.951 171.053 95.119C170.885 95.281 170.657 95.362 170.369 95.362ZM169.667 106V97.378H171.071V106H169.667ZM177.693 106.216C176.919 106.216 176.229 106.045 175.623 105.703C175.023 105.361 174.549 104.854 174.201 104.182C173.853 103.51 173.679 102.682 173.679 101.698C173.679 100.708 173.853 99.88 174.201 99.214C174.549 98.542 175.023 98.035 175.623 97.693C176.229 97.351 176.919 97.18 177.693 97.18C178.461 97.18 179.145 97.351 179.745 97.693C180.351 98.035 180.825 98.542 181.167 99.214C181.515 99.88 181.689 100.708 181.689 101.698C181.689 102.682 181.515 103.51 181.167 104.182C180.825 104.854 180.351 105.361 179.745 105.703C179.145 106.045 178.461 106.216 177.693 106.216ZM177.657 104.992C178.215 104.992 178.689 104.86 179.079 104.596C179.469 104.326 179.763 103.945 179.961 103.453C180.165 102.961 180.267 102.376 180.267 101.698C180.267 100.672 180.054 99.865 179.628 99.277C179.202 98.683 178.569 98.386 177.729 98.386C177.165 98.386 176.688 98.521 176.298 98.791C175.914 99.055 175.62 99.436 175.416 99.934C175.218 100.426 175.119 101.014 175.119 101.698C175.119 102.712 175.332 103.516 175.758 104.11C176.19 104.698 176.823 104.992 177.657 104.992ZM190.182 106V100.942C190.182 100.12 189.984 99.496 189.588 99.07C189.198 98.638 188.664 98.422 187.986 98.422C187.47 98.422 187.023 98.563 186.645 98.845C186.267 99.127 185.976 99.532 185.772 100.06C185.568 100.582 185.466 101.206 185.466 101.932H184.926C184.926 100.93 185.058 100.075 185.322 99.367C185.586 98.659 185.97 98.119 186.474 97.747C186.984 97.369 187.602 97.18 188.328 97.18C189.006 97.18 189.585 97.333 190.065 97.639C190.551 97.939 190.923 98.371 191.181 98.935C191.439 99.499 191.568 100.168 191.568 100.942V106H190.182ZM184.062 106V97.396H185.268L185.466 99.376V106H184.062Z" fill="#6E707E"/>
</svg>
