<svg width="228" height="48" viewBox="0 0 228 48" fill="none" xmlns="http://www.w3.org/2000/svg">
<circle cx="24" cy="24" r="24" fill="white"/>
<path d="M29.4847 12.0031C27.9066 12.125 26.2535 12.7313 24.7441 13.7406C23.9535 14.2719 23.6785 14.5156 21.5035 16.6281C20.341 17.7594 19.3222 18.7656 19.241 18.8656C19.0441 19.1031 18.9004 19.3625 18.7941 19.6719C18.7191 19.8906 18.7066 19.9688 18.7097 20.2969C18.7097 20.6125 18.7222 20.7094 18.7879 20.9125C19.0441 21.6875 19.6472 22.2625 20.4847 22.5313C20.6504 22.5844 20.8035 22.6063 21.1097 22.6156C21.6097 22.6344 21.891 22.575 22.3222 22.3563C22.6035 22.2156 22.6316 22.1906 23.5472 21.2688L24.4847 20.325L24.8285 20.3531C25.3097 20.3906 26.2222 20.3563 26.7035 20.2844C27.6691 20.1375 28.4847 19.8219 29.141 19.3375C29.5879 19.0063 30.0879 18.4531 30.391 17.95C30.5785 17.6375 30.5222 17.3406 30.2472 17.1938C30.0847 17.1063 29.8847 17.1125 29.7535 17.2094C29.7097 17.2438 29.5816 17.4031 29.4691 17.5656C28.816 18.5094 27.9472 19.0563 26.7504 19.2844C26.2972 19.3688 25.2347 19.4 24.6285 19.3469C24.2566 19.3125 24.2066 19.3156 24.091 19.3656C24.0035 19.4063 23.7004 19.6969 23.0441 20.375C22.5347 20.8969 22.0629 21.3656 21.991 21.4125C21.4191 21.7938 20.616 21.7 20.0972 21.1938C19.6347 20.7406 19.5566 20.1469 19.8941 19.6344C20.0285 19.4375 24.1097 15.4531 24.5129 15.1313C24.8847 14.8313 25.6785 14.3063 26.1097 14.0688C27.9597 13.0594 29.9597 12.7438 31.7972 13.1781C34.066 13.7125 35.9941 15.3188 36.9035 17.4438C37.1629 18.0469 37.3129 18.5719 37.4254 19.2656C37.5035 19.7406 37.5035 20.75 37.4254 21.25C37.2191 22.5875 36.6441 23.8625 35.7347 25C35.4191 25.4 34.816 26.0375 34.766 26.025C34.7472 26.0188 33.4035 24.7281 31.7847 23.1563C30.1629 21.5844 28.8097 20.2813 28.7722 20.2594C28.6629 20.1969 28.4066 20.2094 28.2879 20.2813C28.0629 20.4188 27.9879 20.7563 28.1347 20.9656C28.1722 21.0219 29.541 22.3594 31.1722 23.9406C33.3191 26.0219 34.1566 26.8531 34.1972 26.9406C34.2472 27.05 34.2504 27.0906 34.2191 27.2344C34.1754 27.45 34.0004 27.7188 33.7566 27.9438C33.3722 28.2969 32.9035 28.4281 32.6504 28.25C32.5879 28.2063 31.341 27.0219 29.8785 25.6188C27.0441 22.8969 27.1222 22.9656 26.8629 23.0125C26.7347 23.0375 26.5816 23.1563 26.516 23.2844C26.4597 23.3906 26.4566 23.5938 26.5066 23.7063C26.5285 23.75 27.691 24.8875 29.0941 26.2281C30.4941 27.5688 31.7004 28.7313 31.7754 28.8063C32.1129 29.1625 32.0379 29.6594 31.5785 30.0875C31.2347 30.4094 30.8441 30.5375 30.5472 30.425C30.4347 30.3813 29.8504 29.85 27.6472 27.7906C26.1316 26.3719 24.8472 25.1906 24.791 25.1688C24.5816 25.0781 24.3097 25.1625 24.191 25.3531C24.0941 25.5094 24.0941 25.75 24.191 25.8844C24.2285 25.9406 25.4879 27.1313 26.9879 28.5313C28.6629 30.0938 29.7316 31.1156 29.7629 31.1781C29.8254 31.3094 29.8285 31.5469 29.766 31.7156C29.6035 32.1781 29.0285 32.6375 28.5597 32.6781C28.2129 32.7094 28.2222 32.7156 26.8316 31.3688C26.1441 30.6969 25.5379 30.1281 25.4879 30.1031C25.366 30.0406 25.1441 30.0438 25.0222 30.1156C24.7879 30.2531 24.7097 30.5563 24.8535 30.7844C24.891 30.8469 25.4629 31.4219 26.1254 32.0625C26.7879 32.7031 27.3597 33.2719 27.3972 33.3219C27.5972 33.5938 27.616 33.9594 27.4472 34.3188C27.2535 34.7344 26.8629 35.0125 26.4816 35.0125C26.1191 35.0125 26.0566 34.9656 24.7879 33.7063C23.7691 32.6938 23.6535 32.5719 23.6722 32.5C23.6816 32.4563 23.6972 32.2844 23.7097 32.1188C23.7316 31.7281 23.6879 31.4969 23.5254 31.1563C23.2254 30.5313 22.491 30.0625 21.8066 30.0625H21.6254V29.8344C21.6222 28.85 20.8222 28.0031 19.8097 27.9188L19.5785 27.8969L19.5754 27.6125C19.566 26.9688 19.1847 26.3281 18.616 26C18.4035 25.8781 18.0379 25.7625 17.7754 25.7344L17.5629 25.7125V25.4563C17.5629 24.6156 17.0222 23.9031 16.1722 23.6188C15.9879 23.5594 15.891 23.5469 15.5472 23.5469C15.191 23.55 15.1097 23.5594 14.891 23.6344C14.7535 23.6813 14.5691 23.7656 14.4785 23.8219C14.3035 23.9313 13.0285 25.0344 12.8785 25.2063C12.8254 25.2656 12.7785 25.3125 12.7722 25.3125C12.7441 25.3125 12.3316 24.7656 12.0879 24.4063C11.1379 23.0063 10.6472 21.7219 10.5254 20.3219C10.4191 19.0656 10.7504 17.775 11.4629 16.6875C11.7597 16.2344 11.9941 15.95 12.4254 15.5313C13.616 14.3719 15.1691 13.6156 16.9566 13.325C17.3722 13.2594 18.6066 13.2313 19.0347 13.2781C19.9754 13.3844 20.9129 13.6563 21.7472 14.0656C22.0316 14.2063 22.3066 14.3313 22.3566 14.3469C22.5691 14.4094 22.8691 14.2313 22.9254 14.0125C22.9566 13.8844 22.9191 13.6688 22.8472 13.5656C22.7191 13.3844 21.6191 12.8813 20.8441 12.6469C17.8504 11.7406 14.4441 12.4594 12.0816 14.5031C10.716 15.6781 9.88474 17.1188 9.59099 18.8094C9.50661 19.2813 9.49099 20.2688 9.55974 20.75C9.81286 22.5781 10.6566 24.3438 12.0972 26.0531C12.3691 26.375 12.3722 26.3781 12.391 26.5875C12.4441 27.1219 12.6129 27.4875 12.9691 27.8438C13.1472 28.025 13.266 28.1125 13.4722 28.2125C13.7379 28.3438 14.0722 28.4344 14.2847 28.4375H14.3972L14.4129 28.7563C14.4316 29.1531 14.5285 29.4531 14.7379 29.7594C15.0722 30.2438 15.6441 30.5781 16.2191 30.6156L16.4535 30.6344L16.4566 30.9188C16.4629 31.4438 16.6722 31.8969 17.0785 32.275C17.4191 32.5969 17.9504 32.8094 18.4004 32.8125H18.5691L18.5472 32.9031C18.5222 33.0281 18.5785 33.4281 18.6566 33.6469C18.8191 34.1156 19.1754 34.5094 19.6347 34.7313C20.0879 34.9531 20.4847 35.0125 20.9441 34.925C21.4535 34.8281 21.6347 34.7156 22.4691 33.9813L23.1004 33.4313L23.5597 33.8813C25.4035 35.6969 25.3441 35.6438 25.6816 35.8125C26.9285 36.4313 28.4472 35.4375 28.5535 33.9344L28.5722 33.6656L28.7566 33.6438C28.8566 33.6344 29.0629 33.5781 29.2129 33.5219C30.0504 33.2094 30.6941 32.4281 30.7972 31.6L30.8191 31.4375H30.9347C31.216 31.4375 31.6785 31.2563 32.0129 31.0188C32.5222 30.6531 32.8629 30.1219 32.9472 29.5594L32.9816 29.3125H33.0941C33.3347 29.3125 33.7504 29.1594 34.0722 28.95C34.7316 28.5219 35.2191 27.7656 35.2191 27.1656V27.0156L35.7129 26.5156C36.541 25.6781 37.1035 24.9188 37.566 24.0188C38.2035 22.7813 38.5004 21.5969 38.5004 20.3094C38.5004 18.1313 37.6472 16.0875 36.0722 14.4906C34.3254 12.7188 31.9379 11.8156 29.4847 12.0031ZM15.7347 24.5344C16.2472 24.6281 16.5754 25 16.5785 25.4844C16.5785 25.8375 16.491 25.9813 16.0222 26.3813C15.8129 26.5625 15.4972 26.8375 15.3254 26.9938C14.8816 27.3906 14.8129 27.4219 14.4066 27.4219C14.1254 27.4219 14.0597 27.4125 13.9441 27.35C13.7472 27.2438 13.5691 27.0719 13.4754 26.8938C13.4066 26.7594 13.391 26.6938 13.391 26.4844C13.391 26.0594 13.4441 25.9906 14.4222 25.1406C14.9504 24.6813 15.1004 24.5813 15.3535 24.5344C15.5379 24.4969 15.5316 24.4969 15.7347 24.5344ZM17.9597 26.7844C18.1972 26.8719 18.466 27.1406 18.541 27.3594C18.641 27.6531 18.5941 27.975 18.416 28.2156C18.3004 28.3688 17.0566 29.4531 16.9097 29.5313C16.8472 29.5625 16.7097 29.6031 16.6066 29.6219C16.1472 29.7063 15.6785 29.4781 15.4816 29.075C15.3035 28.7094 15.4129 28.2188 15.7254 27.9688C15.8504 27.8688 16.7566 27.0844 16.9441 26.9125C17.1504 26.7219 17.6285 26.6625 17.9597 26.7844ZM19.8472 28.9188C20.5379 29.0813 20.8535 29.8125 20.4785 30.3781C20.3785 30.5281 19.1316 31.6188 18.9441 31.7188C18.8129 31.7875 18.7597 31.7969 18.4691 31.7969C18.1754 31.7969 18.1254 31.7875 17.9847 31.7125C17.6566 31.5406 17.4691 31.2719 17.4441 30.9375C17.4285 30.6969 17.4691 30.525 17.5847 30.35C17.6785 30.2156 18.9535 29.0875 19.1097 29.0063C19.216 28.95 19.4785 28.8813 19.5941 28.8781C19.6379 28.8781 19.7504 28.8938 19.8472 28.9188ZM22.1347 31.1188C22.3222 31.2031 22.5504 31.4156 22.641 31.5938C22.791 31.8906 22.7691 32.2531 22.5847 32.5188C22.4441 32.7188 21.2441 33.7625 21.0316 33.8688C20.8816 33.9438 20.8254 33.9531 20.5629 33.9531C20.3129 33.9531 20.241 33.9406 20.1097 33.875C19.5441 33.5969 19.3597 32.9094 19.7254 32.4438C19.816 32.3281 20.816 31.4375 21.0847 31.2281C21.3379 31.0313 21.8254 30.9813 22.1347 31.1188Z" fill="black"/>
<path d="M22.2816 27.3469C22.0253 27.45 21.9035 27.75 22.0128 28.0094C22.0566 28.1125 23.6441 29.675 23.7785 29.75C24.0035 29.8688 24.3347 29.7532 24.441 29.5188C24.5847 29.2032 24.5441 29.1438 23.5753 28.2063C23.0941 27.7375 22.7035 27.3844 22.641 27.3563C22.5191 27.3063 22.3941 27.3032 22.2816 27.3469Z" fill="black"/>
<path d="M67.428 32.312C66.388 32.312 65.432 32.128 64.56 31.76C63.688 31.384 62.984 30.828 62.448 30.092C61.92 29.356 61.644 28.436 61.62 27.332H63.852C63.852 27.996 64.012 28.54 64.332 28.964C64.66 29.388 65.092 29.704 65.628 29.912C66.164 30.112 66.756 30.212 67.404 30.212C68.06 30.212 68.64 30.112 69.144 29.912C69.648 29.712 70.036 29.444 70.308 29.108C70.588 28.772 70.728 28.388 70.728 27.956C70.728 27.372 70.548 26.904 70.188 26.552C69.828 26.192 69.28 25.888 68.544 25.64L65.7 24.584C64.476 24.128 63.544 23.604 62.904 23.012C62.264 22.412 61.944 21.58 61.944 20.516C61.944 19.308 62.416 18.328 63.36 17.576C64.304 16.816 65.632 16.436 67.344 16.436C68.968 16.436 70.228 16.812 71.124 17.564C72.028 18.316 72.544 19.34 72.672 20.636H70.428C70.316 19.98 70.008 19.46 69.504 19.076C69.008 18.692 68.288 18.5 67.344 18.5C66.432 18.5 65.72 18.7 65.208 19.1C64.696 19.492 64.44 19.988 64.44 20.588C64.44 21.084 64.6 21.48 64.92 21.776C65.248 22.072 65.756 22.34 66.444 22.58L69.684 23.768C70.796 24.16 71.664 24.688 72.288 25.352C72.912 26.016 73.224 26.86 73.224 27.884C73.224 28.748 73 29.512 72.552 30.176C72.104 30.84 71.448 31.364 70.584 31.748C69.72 32.124 68.668 32.312 67.428 32.312ZM84.7119 20.42H87.0039V32H84.7119V20.42ZM76.6479 20.42H78.9279V27.572C78.9279 28.444 79.1399 29.104 79.5639 29.552C79.9959 30 80.5999 30.224 81.3759 30.224C82.0319 30.224 82.6079 30.052 83.1039 29.708C83.6079 29.364 83.9999 28.876 84.2799 28.244C84.5679 27.612 84.7119 26.864 84.7119 26H85.4439C85.4439 27.352 85.2599 28.488 84.8919 29.408C84.5239 30.328 84.0079 31.028 83.3439 31.508C82.6799 31.98 81.9039 32.216 81.0159 32.216C80.1679 32.216 79.4119 32.06 78.7479 31.748C78.0919 31.436 77.5759 30.956 77.1999 30.308C76.8319 29.652 76.6479 28.808 76.6479 27.776V20.42ZM96.9101 32.312C96.0701 32.312 95.3421 32.124 94.7261 31.748C94.1101 31.364 93.6381 30.804 93.3101 30.068C92.9901 29.324 92.8301 28.404 92.8301 27.308H93.7181C93.7181 27.94 93.8541 28.476 94.1261 28.916C94.3981 29.348 94.7541 29.68 95.1941 29.912C95.6421 30.136 96.1181 30.248 96.6221 30.248C97.1501 30.248 97.6621 30.1 98.1581 29.804C98.6621 29.5 99.0741 29.048 99.3941 28.448C99.7141 27.848 99.8741 27.104 99.8741 26.216C99.8741 25.368 99.7301 24.644 99.4421 24.044C99.1621 23.444 98.7781 22.984 98.2901 22.664C97.8021 22.344 97.2541 22.184 96.6461 22.184C96.1341 22.184 95.6541 22.308 95.2061 22.556C94.7581 22.796 94.3981 23.152 94.1261 23.624C93.8541 24.088 93.7181 24.656 93.7181 25.328H92.8301C92.8301 24.168 93.0141 23.204 93.3821 22.436C93.7581 21.668 94.2621 21.096 94.8941 20.72C95.5261 20.336 96.2261 20.144 96.9941 20.144C97.8981 20.144 98.7461 20.388 99.5381 20.876C100.33 21.356 100.97 22.048 101.458 22.952C101.954 23.856 102.202 24.944 102.202 26.216C102.202 27.488 101.954 28.58 101.458 29.492C100.962 30.404 100.31 31.104 99.5021 31.592C98.7021 32.072 97.8381 32.312 96.9101 32.312ZM91.4381 37.664V20.456H93.3221L93.7181 23.228V37.664H91.4381ZM110.967 32.312C110.127 32.312 109.399 32.124 108.783 31.748C108.167 31.364 107.695 30.804 107.367 30.068C107.047 29.324 106.887 28.404 106.887 27.308H107.775C107.775 27.94 107.911 28.476 108.183 28.916C108.455 29.348 108.811 29.68 109.251 29.912C109.699 30.136 110.175 30.248 110.679 30.248C111.207 30.248 111.719 30.1 112.215 29.804C112.719 29.5 113.131 29.048 113.451 28.448C113.771 27.848 113.931 27.104 113.931 26.216C113.931 25.368 113.787 24.644 113.499 24.044C113.219 23.444 112.835 22.984 112.347 22.664C111.859 22.344 111.311 22.184 110.703 22.184C110.191 22.184 109.711 22.308 109.263 22.556C108.815 22.796 108.455 23.152 108.183 23.624C107.911 24.088 107.775 24.656 107.775 25.328H106.887C106.887 24.168 107.071 23.204 107.439 22.436C107.815 21.668 108.319 21.096 108.951 20.72C109.583 20.336 110.283 20.144 111.051 20.144C111.955 20.144 112.803 20.388 113.595 20.876C114.387 21.356 115.027 22.048 115.515 22.952C116.011 23.856 116.259 24.944 116.259 26.216C116.259 27.488 116.011 28.58 115.515 29.492C115.019 30.404 114.367 31.104 113.559 31.592C112.759 32.072 111.895 32.312 110.967 32.312ZM105.495 37.664V20.456H107.379L107.775 23.228V37.664H105.495ZM123.896 32.312C122.848 32.312 121.908 32.084 121.076 31.628C120.252 31.172 119.6 30.492 119.12 29.588C118.64 28.684 118.4 27.568 118.4 26.24C118.4 24.888 118.64 23.764 119.12 22.868C119.6 21.964 120.252 21.284 121.076 20.828C121.908 20.372 122.848 20.144 123.896 20.144C124.928 20.144 125.856 20.372 126.68 20.828C127.504 21.284 128.152 21.964 128.624 22.868C129.104 23.764 129.344 24.888 129.344 26.24C129.344 27.568 129.104 28.684 128.624 29.588C128.152 30.492 127.504 31.172 126.68 31.628C125.856 32.084 124.928 32.312 123.896 32.312ZM123.824 30.32C124.488 30.32 125.06 30.16 125.54 29.84C126.028 29.52 126.4 29.056 126.656 28.448C126.92 27.832 127.052 27.096 127.052 26.24C127.052 24.928 126.784 23.912 126.248 23.192C125.72 22.472 124.956 22.112 123.956 22.112C123.284 22.112 122.704 22.276 122.216 22.604C121.736 22.924 121.364 23.392 121.1 24.008C120.844 24.616 120.716 25.36 120.716 26.24C120.716 27.528 120.984 28.532 121.52 29.252C122.056 29.964 122.824 30.32 123.824 30.32ZM132.624 32V20.42H134.904V32H132.624ZM134.28 26.84C134.28 25.36 134.432 24.132 134.736 23.156C135.048 22.172 135.48 21.44 136.032 20.96C136.592 20.48 137.248 20.24 138 20.24C138.224 20.24 138.432 20.256 138.624 20.288C138.824 20.32 139.02 20.364 139.212 20.42L139.128 22.688C138.912 22.632 138.676 22.584 138.42 22.544C138.172 22.496 137.944 22.472 137.736 22.472C137.08 22.472 136.544 22.648 136.128 23C135.712 23.344 135.404 23.844 135.204 24.5C135.004 25.148 134.904 25.928 134.904 26.84H134.28ZM145.069 32.312C144.413 32.312 143.821 32.188 143.293 31.94C142.765 31.692 142.345 31.32 142.033 30.824C141.729 30.32 141.577 29.688 141.577 28.928V17.312H143.845V28.856C143.845 29.944 144.353 30.488 145.369 30.488C145.681 30.488 145.985 30.456 146.281 30.392C146.577 30.32 146.913 30.216 147.289 30.08L147.613 31.7C147.189 31.876 146.769 32.02 146.353 32.132C145.945 32.252 145.517 32.312 145.069 32.312ZM139.813 22.004V20.456H147.265V22.004H139.813ZM154.556 32.312C153.436 32.312 152.492 32.156 151.724 31.844C150.956 31.524 150.368 31.084 149.96 30.524C149.56 29.956 149.352 29.292 149.336 28.532H151.484C151.516 29.196 151.78 29.688 152.276 30.008C152.78 30.328 153.46 30.488 154.316 30.488C154.772 30.488 155.184 30.416 155.552 30.272C155.928 30.128 156.224 29.932 156.44 29.684C156.664 29.436 156.776 29.156 156.776 28.844C156.776 28.452 156.632 28.144 156.344 27.92C156.056 27.688 155.592 27.484 154.952 27.308L152.588 26.504C151.644 26.184 150.92 25.76 150.416 25.232C149.912 24.696 149.66 24.056 149.66 23.312C149.66 22.36 150.084 21.596 150.932 21.02C151.78 20.436 152.904 20.144 154.304 20.144C155.752 20.144 156.868 20.452 157.652 21.068C158.444 21.676 158.856 22.44 158.888 23.36H156.692C156.636 22.904 156.408 22.556 156.008 22.316C155.616 22.068 155.048 21.944 154.304 21.944C153.608 21.944 153.06 22.096 152.66 22.4C152.268 22.704 152.072 23.048 152.072 23.432C152.072 24.12 152.664 24.632 153.848 24.968L156.332 25.844C157.276 26.148 158.004 26.54 158.516 27.02C159.028 27.5 159.284 28.108 159.284 28.844C159.284 29.436 159.088 29.996 158.696 30.524C158.304 31.052 157.752 31.484 157.04 31.82C156.336 32.148 155.508 32.312 154.556 32.312ZM173.768 32.312C172.416 32.312 171.248 31.984 170.264 31.328C169.288 30.664 168.532 29.732 167.996 28.532C167.46 27.324 167.192 25.908 167.192 24.284C167.192 22.572 167.476 21.136 168.044 19.976C168.612 18.808 169.392 17.928 170.384 17.336C171.384 16.736 172.512 16.436 173.768 16.436C175.456 16.436 176.8 16.856 177.8 17.696C178.8 18.528 179.464 19.612 179.792 20.948L177.356 21.416C177.068 20.528 176.612 19.82 175.988 19.292C175.364 18.756 174.624 18.488 173.768 18.488C173.016 18.488 172.328 18.704 171.704 19.136C171.08 19.568 170.58 20.216 170.204 21.08C169.828 21.936 169.64 23.004 169.64 24.284C169.64 25.468 169.796 26.508 170.108 27.404C170.42 28.292 170.88 28.984 171.488 29.48C172.096 29.976 172.856 30.224 173.768 30.224C174.88 30.224 175.756 29.928 176.396 29.336C177.036 28.736 177.356 27.956 177.356 26.996H179.816C179.816 28.116 179.564 29.072 179.06 29.864C178.564 30.648 177.864 31.252 176.96 31.676C176.056 32.1 174.992 32.312 173.768 32.312ZM187.354 32.312C186.306 32.312 185.366 32.084 184.534 31.628C183.71 31.172 183.058 30.492 182.578 29.588C182.098 28.684 181.858 27.568 181.858 26.24C181.858 24.888 182.098 23.764 182.578 22.868C183.058 21.964 183.71 21.284 184.534 20.828C185.366 20.372 186.306 20.144 187.354 20.144C188.386 20.144 189.314 20.372 190.138 20.828C190.962 21.284 191.61 21.964 192.082 22.868C192.562 23.764 192.802 24.888 192.802 26.24C192.802 27.568 192.562 28.684 192.082 29.588C191.61 30.492 190.962 31.172 190.138 31.628C189.314 32.084 188.386 32.312 187.354 32.312ZM187.282 30.32C187.946 30.32 188.518 30.16 188.998 29.84C189.486 29.52 189.858 29.056 190.114 28.448C190.378 27.832 190.51 27.096 190.51 26.24C190.51 24.928 190.242 23.912 189.706 23.192C189.178 22.472 188.414 22.112 187.414 22.112C186.742 22.112 186.162 22.276 185.674 22.604C185.194 22.924 184.822 23.392 184.558 24.008C184.302 24.616 184.174 25.36 184.174 26.24C184.174 27.528 184.442 28.532 184.978 29.252C185.514 29.964 186.282 30.32 187.282 30.32ZM200.307 32.312C199.187 32.312 198.243 32.156 197.475 31.844C196.707 31.524 196.119 31.084 195.711 30.524C195.311 29.956 195.103 29.292 195.087 28.532H197.235C197.267 29.196 197.531 29.688 198.027 30.008C198.531 30.328 199.211 30.488 200.067 30.488C200.523 30.488 200.935 30.416 201.303 30.272C201.679 30.128 201.975 29.932 202.191 29.684C202.415 29.436 202.527 29.156 202.527 28.844C202.527 28.452 202.383 28.144 202.095 27.92C201.807 27.688 201.343 27.484 200.703 27.308L198.339 26.504C197.395 26.184 196.671 25.76 196.167 25.232C195.663 24.696 195.411 24.056 195.411 23.312C195.411 22.36 195.835 21.596 196.683 21.02C197.531 20.436 198.655 20.144 200.055 20.144C201.503 20.144 202.619 20.452 203.403 21.068C204.195 21.676 204.607 22.44 204.639 23.36H202.443C202.387 22.904 202.159 22.556 201.759 22.316C201.367 22.068 200.799 21.944 200.055 21.944C199.359 21.944 198.811 22.096 198.411 22.4C198.019 22.704 197.823 23.048 197.823 23.432C197.823 24.12 198.415 24.632 199.599 24.968L202.083 25.844C203.027 26.148 203.755 26.54 204.267 27.02C204.779 27.5 205.035 28.108 205.035 28.844C205.035 29.436 204.839 29.996 204.447 30.524C204.055 31.052 203.503 31.484 202.791 31.82C202.087 32.148 201.259 32.312 200.307 32.312ZM212.184 32.312C211.528 32.312 210.936 32.188 210.408 31.94C209.88 31.692 209.46 31.32 209.148 30.824C208.844 30.32 208.692 29.688 208.692 28.928V17.312H210.96V28.856C210.96 29.944 211.468 30.488 212.484 30.488C212.796 30.488 213.1 30.456 213.396 30.392C213.692 30.32 214.028 30.216 214.404 30.08L214.728 31.7C214.304 31.876 213.884 32.02 213.468 32.132C213.06 32.252 212.632 32.312 212.184 32.312ZM206.928 22.004V20.456H214.38V22.004H206.928ZM221.671 32.312C220.551 32.312 219.607 32.156 218.839 31.844C218.071 31.524 217.483 31.084 217.075 30.524C216.675 29.956 216.467 29.292 216.451 28.532H218.599C218.631 29.196 218.895 29.688 219.391 30.008C219.895 30.328 220.575 30.488 221.431 30.488C221.887 30.488 222.299 30.416 222.667 30.272C223.043 30.128 223.339 29.932 223.555 29.684C223.779 29.436 223.891 29.156 223.891 28.844C223.891 28.452 223.747 28.144 223.459 27.92C223.171 27.688 222.707 27.484 222.067 27.308L219.703 26.504C218.759 26.184 218.035 25.76 217.531 25.232C217.027 24.696 216.775 24.056 216.775 23.312C216.775 22.36 217.199 21.596 218.047 21.02C218.895 20.436 220.019 20.144 221.419 20.144C222.867 20.144 223.983 20.452 224.767 21.068C225.559 21.676 225.971 22.44 226.003 23.36H223.807C223.751 22.904 223.523 22.556 223.123 22.316C222.731 22.068 222.163 21.944 221.419 21.944C220.723 21.944 220.175 22.096 219.775 22.4C219.383 22.704 219.187 23.048 219.187 23.432C219.187 24.12 219.779 24.632 220.963 24.968L223.447 25.844C224.391 26.148 225.119 26.54 225.631 27.02C226.143 27.5 226.399 28.108 226.399 28.844C226.399 29.436 226.203 29.996 225.811 30.524C225.419 31.052 224.867 31.484 224.155 31.82C223.451 32.148 222.623 32.312 221.671 32.312Z" fill="white"/>
</svg>
