<svg width="28" height="28" viewBox="0 0 28 28" fill="none" xmlns="http://www.w3.org/2000/svg">
<path fill-rule="evenodd" clip-rule="evenodd" d="M12.833 24.7204L13.6743 23.7724C14.629 22.6791 15.4877 21.6417 16.2517 20.6551L16.8823 19.8231C19.5157 16.2751 20.833 13.4591 20.833 11.3777C20.833 6.93507 17.2517 3.33374 12.833 3.33374C8.41434 3.33374 4.83301 6.93507 4.83301 11.3777C4.83301 13.4591 6.15034 16.2751 8.78367 19.8231L9.41434 20.6551C10.5043 22.0516 11.6446 23.4067 12.833 24.7204Z" stroke="#0176D3" stroke-linecap="round" stroke-linejoin="round"/>
<path d="M12.833 14.6672C14.674 14.6672 16.1664 13.1748 16.1664 11.3338C16.1664 9.49287 14.674 8.00049 12.833 8.00049C10.9921 8.00049 9.49969 9.49287 9.49969 11.3338C9.49969 13.1748 10.9921 14.6672 12.833 14.6672Z" stroke="#0176D3" stroke-linecap="round" stroke-linejoin="round"/>
</svg>
