<svg width="28" height="28" viewBox="0 0 28 28" fill="none" xmlns="http://www.w3.org/2000/svg">
<path d="M5.73143 22C5.23786 22 4.82607 21.835 4.49607 21.505C4.16607 21.175 4.00071 20.7629 4 20.2686V8.73143C4 8.23786 4.16536 7.82607 4.49607 7.49607C4.82679 7.16607 5.23821 7.00071 5.73036 7H21.5554C22.0482 7 22.4596 7.16536 22.7896 7.49607C23.1196 7.82679 23.285 8.23857 23.2857 8.73143V20.2696C23.2857 20.7625 23.1204 21.1743 22.7896 21.505C22.4589 21.8357 22.0475 22.0007 21.5554 22H5.73143ZM13.6429 14.6243L5.07143 9.01964V20.2696C5.07143 20.4618 5.13321 20.6196 5.25679 20.7432C5.38036 20.8668 5.53857 20.9286 5.73143 20.9286H21.5554C21.7475 20.9286 21.9054 20.8668 22.0289 20.7432C22.1525 20.6196 22.2143 20.4614 22.2143 20.2686V9.01857L13.6429 14.6243ZM13.6429 13.4286L21.8843 8.07143H5.40143L13.6429 13.4286ZM5.07143 9.01964V8.07143V20.2696C5.07143 20.4618 5.13321 20.6196 5.25679 20.7432C5.38036 20.8668 5.53857 20.9286 5.73143 20.9286H5.07143V9.01964Z" fill="#0176D3"/>
<path d="M5.07143 9.01964L13.6429 14.6243L22.2143 9.01857V20.2686C22.2143 20.4614 22.1525 20.6196 22.0289 20.7432C21.9054 20.8668 21.7475 20.9286 21.5554 20.9286H5.73143M5.07143 9.01964V20.2696M5.07143 9.01964V8.07143V20.2696M5.07143 9.01964V20.9286H5.73143M5.07143 20.2696C5.07143 20.4618 5.13321 20.6196 5.25679 20.7432C5.38036 20.8668 5.53857 20.9286 5.73143 20.9286M5.73143 22C5.23786 22 4.82607 21.835 4.49607 21.505C4.16607 21.175 4.00071 20.7629 4 20.2686V8.73143C4 8.23786 4.16536 7.82607 4.49607 7.49607C4.82679 7.16607 5.23821 7.00071 5.73036 7H21.5554C22.0482 7 22.4596 7.16536 22.7896 7.49607C23.1196 7.82679 23.285 8.23857 23.2857 8.73143V20.2696C23.2857 20.7625 23.1204 21.1743 22.7896 21.505C22.4589 21.8357 22.0475 22.0007 21.5554 22H5.73143ZM13.6429 13.4286L21.8843 8.07143H5.40143L13.6429 13.4286Z" stroke="#0176D3" stroke-width="0.2"/>
</svg>
