<svg width="48" height="48" viewBox="0 0 48 48" fill="none" xmlns="http://www.w3.org/2000/svg">
<g clip-path="url(#clip0_1_544)">
<path d="M28.1625 0.740635C27.6469 0.871883 27.2063 1.20938 27.0094 1.63126C26.8406 1.96876 26.8125 2.20314 26.8125 3.20626V4.38751L25.8563 4.42501C24.9563 4.45313 24.8625 4.48126 24.4688 4.75314C24.2344 4.91251 23.9906 5.14688 23.9156 5.27813L23.7938 5.51251L21.525 5.55001C19.5656 5.59689 19.1813 5.62501 18.6563 5.79376C17.7656 6.08438 16.9313 6.61876 16.275 7.31251C15.5813 8.06251 15.2438 8.66251 15 9.61876C14.8219 10.3031 14.8125 10.6688 14.8125 15.8156V21.3L14.3344 20.8781C12.7688 19.5094 10.3313 18.7594 8.1844 19.0031C5.27815 19.3219 2.85002 21.0094 1.5844 23.5781C1.07815 24.6094 0.890648 25.2375 0.740648 26.4281C0.421898 29.0344 1.64065 32.0063 3.7219 33.6844C6.85315 36.2156 11.2031 36.2156 14.3063 33.6938L14.8125 33.2813V37.9031C14.8125 42.2344 14.8219 42.5813 15 43.275C15.4594 45.0469 16.875 46.5188 18.7031 47.0906L19.3594 47.2969H30.9375C40.05 47.2969 42.6281 47.2688 43.0313 47.175C45.0375 46.7063 46.6875 45.0094 47.1094 42.9844C47.3156 42 47.3156 10.875 47.1094 9.89063C46.9031 8.89688 46.3969 7.95938 45.6656 7.21876C44.9625 6.50626 44.4375 6.17813 43.4719 5.83126C42.8344 5.60626 42.6563 5.58751 40.575 5.55001L38.3531 5.51251L38.1094 5.13751C37.7531 4.59376 37.275 4.40626 36.225 4.40626H35.3625L35.325 3.15939C35.2875 1.89376 35.2313 1.65938 34.8375 1.23751C34.3688 0.712509 34.3031 0.703133 31.2656 0.684383C29.7188 0.675007 28.3219 0.703136 28.1625 0.740635ZM34.0313 1.96876C34.2 2.13751 34.2188 2.27813 34.2188 3.28126V4.40626H31.0781H27.9375V3.24376C27.9375 2.13751 27.9469 2.06251 28.1438 1.93126C28.3219 1.80001 28.7625 1.78126 31.0969 1.78126C33.7219 1.78126 33.8531 1.79063 34.0313 1.96876ZM37.2094 5.77501C37.3969 6.00938 37.4063 6.14063 37.4063 8.36251V10.7063L37.1344 10.9781L36.8625 11.25H31.125C24.7969 11.25 24.9563 11.2688 24.7594 10.6688C24.7031 10.4813 24.6656 9.52501 24.6844 8.18438C24.7031 6.02813 24.7031 6.00938 24.9281 5.77501L25.1531 5.53126H31.0875H37.0219L37.2094 5.77501ZM23.625 7.92188V9.18751H22.2375C21.2719 9.18751 20.7 9.23438 20.3719 9.32813C19.7344 9.51563 19.0313 10.1531 18.7406 10.8L18.5156 11.2969V26.4375V41.5781L18.7406 42.0656C18.9844 42.6094 19.5844 43.2188 20.1281 43.4719C20.4656 43.6313 21.1125 43.6406 30.8344 43.6688C42.2719 43.6969 41.7656 43.7156 42.5719 43.0969C42.7875 42.9375 43.0969 42.5625 43.2563 42.2813L43.5469 41.7656V26.4375V11.1094L43.2563 10.5938C42.6375 9.49688 41.8875 9.18751 39.8719 9.18751H38.5313V7.91251V6.63751L40.6688 6.67501C42.6188 6.71251 42.8438 6.73126 43.3313 6.92813C44.5688 7.41563 45.5531 8.46563 45.9375 9.72188C46.125 10.3219 46.125 10.575 46.125 26.4375C46.125 42.1781 46.125 42.5531 45.9375 43.1344C45.4781 44.6344 44.2875 45.75 42.7969 46.0781C42.225 46.2094 40.7531 46.2188 30.7031 46.2L19.2656 46.1719L18.7313 45.9563C17.5875 45.4969 16.6219 44.5594 16.1906 43.5C15.9844 42.9844 15.9844 42.9375 15.9563 37.5L15.9281 32.025L16.4063 31.0781C17.1094 29.6813 17.2781 28.9313 17.2781 27.2813C17.2875 25.6406 17.1188 24.9094 16.4063 23.475L15.9375 22.5281V16.3875C15.9375 10.6125 15.9469 10.2 16.1156 9.66563C16.5563 8.25938 17.6719 7.20001 19.1531 6.79688C19.5 6.70313 20.2313 6.66563 21.6375 6.66563L23.625 6.65626V7.92188ZM23.625 10.5469C23.625 11.1281 24.075 11.7938 24.675 12.1031C25.0031 12.2719 25.3125 12.2813 31.0406 12.2813C37.0125 12.2813 37.0688 12.2813 37.4813 12.0844C37.9594 11.85 38.3906 11.25 38.4844 10.6781L38.55 10.3125H39.975C41.3156 10.3125 41.4281 10.3313 41.7281 10.5281C41.8969 10.6406 42.1406 10.8844 42.2531 11.0531L42.4688 11.3719V26.4375V41.5031L42.2625 41.8125C42.1406 41.9813 41.925 42.2156 41.7844 42.3188L41.5219 42.5156H31.05H20.5781L20.2594 42.2906C20.0906 42.1688 19.8656 41.8969 19.7719 41.6813C19.6031 41.3156 19.5938 40.725 19.5938 26.4375C19.5938 12.15 19.6031 11.5594 19.7719 11.1938C19.9313 10.8375 20.2781 10.5094 20.625 10.3781C20.7 10.35 21.4125 10.3219 22.2 10.3219L23.625 10.3125V10.5469ZM11.1094 20.3438C14.2031 21.3188 16.2188 24.0563 16.2188 27.2813C16.2188 30.45 14.3156 33.0844 11.25 34.1344C10.4156 34.425 10.275 34.4438 9.09377 34.4531C7.57502 34.4531 7.00315 34.3219 5.71877 33.6844C4.9594 33.3094 4.6969 33.1125 3.93752 32.3438C2.42815 30.8344 1.82815 29.3906 1.82815 27.2813C1.82815 25.9219 1.96877 25.2844 2.5219 24.1406C3.45002 22.1906 5.16565 20.7938 7.31252 20.2406C8.28752 19.9969 10.1625 20.0438 11.1094 20.3438Z" fill="#18181A"/>
<path d="M24.3094 14.6531C24.2157 14.775 23.9719 15.2156 23.775 15.6281L23.4094 16.3875L22.5094 16.5C21.5157 16.6312 21.3375 16.6969 21.1875 16.9687C21.0469 17.2312 21.1782 17.4562 21.9563 18.2437L22.6125 18.9187L22.4625 19.7437C22.2563 20.8969 22.2657 21.0562 22.5657 21.2531C22.8094 21.4125 22.8188 21.4125 23.7657 20.9156L24.7219 20.4187L25.6594 20.9062C26.4563 21.3094 26.6344 21.375 26.8032 21.2906C27.1688 21.0937 27.1969 20.8969 27.0094 19.8656L26.8313 18.8906L27.5719 18.1406C28.7063 16.9875 28.6032 16.7062 26.9719 16.5L26.0532 16.3781L25.5938 15.4687C25.3407 14.9625 25.0688 14.5312 24.9844 14.4937C24.6938 14.3906 24.4782 14.4375 24.3094 14.6531ZM25.0313 16.7719C25.3219 17.3531 25.3688 17.3812 26.0907 17.4844C26.3344 17.5125 26.5313 17.5687 26.5313 17.5969C26.5313 17.625 26.3344 17.8594 26.1 18.1125C25.7532 18.4875 25.6875 18.6187 25.725 18.825C25.7532 18.9656 25.8 19.2375 25.8375 19.4437L25.9032 19.8L25.3313 19.4906L24.7594 19.1719L24.2438 19.4344C23.9532 19.575 23.6907 19.6875 23.6625 19.6875C23.6344 19.6875 23.6438 19.4156 23.6719 19.0875L23.7375 18.4781L23.3063 18.0187L22.8657 17.55L23.3625 17.4844C24.0188 17.4 24.1969 17.2687 24.4594 16.6969C24.5907 16.4344 24.7032 16.2187 24.7219 16.2187C24.7313 16.2187 24.8719 16.4719 25.0313 16.7719Z" fill="#18181A"/>
<path d="M29.5312 16.125C29.4281 16.2281 29.3438 16.3969 29.3438 16.5C29.3438 16.6031 29.4281 16.7719 29.5312 16.875C29.7094 17.0531 29.8406 17.0625 32.7656 17.0625C35.6906 17.0625 35.8219 17.0531 36 16.875C36.1031 16.7719 36.1875 16.6031 36.1875 16.5C36.1875 16.3969 36.1031 16.2281 36 16.125C35.8219 15.9469 35.6906 15.9375 32.7656 15.9375C29.8406 15.9375 29.7094 15.9469 29.5312 16.125Z" fill="#18181A"/>
<path d="M29.5031 18.9187C29.2969 19.1437 29.3062 19.4344 29.5125 19.6219C29.6625 19.7625 29.9625 19.7812 31.7437 19.7812C33.225 19.7812 33.8344 19.7531 33.9187 19.6687C34.1062 19.4812 34.0594 18.9562 33.8531 18.8437C33.7406 18.7875 32.8687 18.75 31.6594 18.75C29.8312 18.75 29.6437 18.7687 29.5031 18.9187Z" fill="#18181A"/>
<path d="M24.422 23.9437C24.3188 24.0187 24.047 24.45 23.822 24.9187L23.4095 25.7625L22.4626 25.8844C21.6938 25.9781 21.4782 26.0437 21.3001 26.2219C20.9907 26.5312 21.0845 26.7375 21.9095 27.5719L22.6126 28.2937L22.4626 29.1187C22.2563 30.2719 22.2657 30.4312 22.5563 30.6281C22.8095 30.7875 22.8188 30.7875 23.7751 30.2906L24.7407 29.7937L25.6313 30.2719C26.1188 30.5344 26.5782 30.75 26.6532 30.75C26.7188 30.75 26.8782 30.6469 26.9907 30.525L27.197 30.3L27.0188 29.2875L26.8313 28.2656L27.572 27.5156C28.0501 27.0281 28.3126 26.6906 28.3126 26.55C28.3126 26.1562 28.0313 26.0156 27.0095 25.8844L26.0532 25.7625L25.6407 24.9375C25.0688 23.8031 24.8626 23.6344 24.422 23.9437ZM25.0313 26.1469C25.322 26.7281 25.3688 26.7656 26.0907 26.8687C26.3345 26.8969 26.5313 26.9531 26.5313 26.9812C26.5313 27.0094 26.3345 27.2344 26.1001 27.4875C25.7438 27.8625 25.6782 28.0031 25.7157 28.2C25.7438 28.3406 25.8001 28.6125 25.8282 28.8094L25.9032 29.175L25.3126 28.8656L24.7313 28.5656L24.197 28.8375C23.9063 28.9875 23.6438 29.1187 23.6157 29.1375C23.5782 29.1469 23.5876 28.9875 23.6345 28.7625C23.7751 28.0031 23.747 27.8625 23.2876 27.375L22.8657 26.925L23.4095 26.8594C24.0563 26.775 24.1782 26.6812 24.4688 26.0625C24.5907 25.8 24.7032 25.5937 24.722 25.5937C24.7313 25.5937 24.872 25.8469 25.0313 26.1469Z" fill="#18181A"/>
<path d="M29.5031 25.4813C29.2969 25.7063 29.3062 25.9969 29.5125 26.1938C29.6719 26.3344 30.1594 26.3438 34.9687 26.3251L40.2562 26.2969L40.3969 26.0532C40.5187 25.8282 40.5187 25.7813 40.3781 25.5563L40.2187 25.3126H34.9312C29.9344 25.3126 29.6437 25.3219 29.5031 25.4813Z" fill="#18181A"/>
<path d="M29.5031 28.2937C29.2969 28.5187 29.3062 28.8094 29.5125 28.9969C29.6625 29.1375 29.9625 29.1562 31.7437 29.1562C33.9562 29.1562 34.0312 29.1375 34.0312 28.6781C34.0312 28.1531 33.9281 28.125 31.6969 28.125C29.8406 28.125 29.6437 28.1437 29.5031 28.2937Z" fill="#18181A"/>
<path d="M24.4219 33.3187C24.3188 33.3937 24.0469 33.8249 23.8219 34.2937L23.4094 35.1374L22.7156 35.2406C22.3313 35.2968 21.9188 35.3437 21.7875 35.3437C21.4594 35.3437 21.0656 35.7562 21.1406 36.0281C21.1781 36.1406 21.525 36.5343 21.9188 36.8906L22.6219 37.5562L22.4719 38.4093C22.275 39.4874 22.275 39.6843 22.4813 39.8718C22.7344 40.1062 22.8844 40.0781 23.8313 39.5999L24.6938 39.1687L25.6031 39.6093C26.2875 39.9562 26.5688 40.0406 26.7563 39.9937C27.1688 39.8906 27.2156 39.6281 27.0188 38.5593L26.8406 37.6124L27.5719 36.8812C28.6594 35.7937 28.5938 35.5124 27.1875 35.2968C26.7 35.2218 26.2406 35.1562 26.1844 35.1562C26.1188 35.1562 25.8938 34.8093 25.6781 34.3781C25.1063 33.2343 24.8531 33.0187 24.4219 33.3187ZM25.0313 35.5406C25.2938 36.0843 25.3688 36.1406 26.0438 36.2343L26.5406 36.2999L26.1 36.7687C25.7063 37.1906 25.6781 37.2562 25.725 37.5749C25.7625 37.7624 25.8094 38.0531 25.8375 38.2124L25.8938 38.5031L25.3125 38.2218L24.7406 37.9312L24.225 38.1843C23.9438 38.3249 23.6906 38.4374 23.6625 38.4374C23.6344 38.4374 23.6438 38.1562 23.6719 37.8187L23.7469 37.1999L23.2969 36.7499L22.8563 36.3093L23.4094 36.2343C24.0563 36.1593 24.1313 36.1031 24.4313 35.5124C24.5531 35.2687 24.6938 35.0624 24.7313 35.0624C24.7781 35.0624 24.9094 35.2781 25.0313 35.5406Z" fill="#18181A"/>
<path d="M29.5031 34.8563C29.2969 35.0813 29.3062 35.3719 29.5125 35.5688C29.6719 35.7094 30.1594 35.7188 34.9687 35.7001L40.2562 35.6719L40.3969 35.4282C40.5187 35.2032 40.5187 35.1563 40.3781 34.9313L40.2187 34.6876H34.9312C29.9344 34.6876 29.6437 34.6969 29.5031 34.8563Z" fill="#18181A"/>
<path d="M29.5031 37.6688C29.3343 37.8469 29.2968 38.1281 29.4187 38.3063C29.6156 38.6063 29.9156 38.625 33.8156 38.625C38.1187 38.625 38.1844 38.6156 38.2312 38.1C38.2875 37.4813 38.4093 37.5 33.8062 37.5C29.9062 37.5 29.6437 37.5094 29.5031 37.6688Z" fill="#18181A"/>
<path d="M6.25313 22.8187C5.57812 23.0062 5.0625 23.4094 4.7625 23.9906L4.5 24.4875V27.1781C4.5 28.7906 4.5375 30 4.60313 30.225C4.725 30.675 5.37188 31.3781 5.85938 31.6031C6.19688 31.7625 6.525 31.7812 9 31.7812C11.7094 31.7812 11.775 31.7719 12.2344 31.5562C12.75 31.3219 13.125 30.9281 13.3875 30.3844C13.5281 30.0937 13.5469 29.7 13.5469 27.2812C13.5469 24.9281 13.5281 24.4687 13.3969 24.1781C13.1625 23.6719 12.7031 23.1937 12.2063 22.95C11.7844 22.7437 11.6719 22.7344 9.23438 22.7156C7.35 22.6969 6.59063 22.725 6.25313 22.8187ZM11.8031 23.9812C12.45 24.3281 12.4781 24.4781 12.45 27.3937L12.4219 29.9812L12.1875 30.2344C11.7469 30.7219 11.5406 30.75 8.98125 30.75C6.375 30.75 6.17813 30.7125 5.775 30.1594C5.5875 29.9062 5.57812 29.775 5.57812 27.2906C5.57812 24.4125 5.5875 24.3844 6.21563 24C6.49688 23.8312 6.70312 23.8125 9 23.8125C11.2313 23.8125 11.5219 23.8312 11.8031 23.9812Z" fill="#18181A"/>
<path d="M9.56254 26.5781L8.19379 27.9375L7.68754 27.4219C7.14379 26.8688 6.80629 26.7656 6.52504 27.0563C6.23442 27.3375 6.35629 27.5813 7.19067 28.425C7.78129 29.025 8.07192 29.25 8.24067 29.25C8.41879 29.25 8.86879 28.8563 10.0969 27.6281C11.7938 25.9406 11.9344 25.725 11.5688 25.3688C11.2219 25.0219 10.9969 25.1625 9.56254 26.5781Z" fill="#18181A"/>
</g>
<defs>
<clipPath id="clip0_1_544">
<rect width="48" height="48" fill="white"/>
</clipPath>
</defs>
</svg>
