<svg width="96" height="96" viewBox="0 0 96 96" fill="none" xmlns="http://www.w3.org/2000/svg">
<rect width="96" height="96" rx="2" fill="#032E61"/>
<path fill-rule="evenodd" clip-rule="evenodd" d="M42.9686 12.5806C44.9031 10.5653 47.5981 9.31382 50.5773 9.31382C54.5374 9.31382 57.9937 11.5228 59.8337 14.802C61.48 14.0666 63.2631 13.6875 65.0662 13.6897C72.2097 13.6897 78 19.5316 78 26.7392C78 33.9468 72.2097 39.7887 65.0662 39.7887C64.1928 39.7887 63.3411 39.7015 62.5175 39.5354C60.8974 42.4249 57.808 44.3779 54.2638 44.3779C52.7801 44.3779 51.3765 44.0367 50.1278 43.4257C48.4846 47.291 44.657 50 40.1968 50C35.5522 50 31.5926 47.06 30.0735 42.9381C29.3967 43.0809 28.7068 43.1529 28.015 43.1527C22.4839 43.1533 18 38.6226 18 33.0333C17.9959 31.262 18.456 29.5206 19.3347 27.9826C20.2133 26.4446 21.4796 25.1638 23.0075 24.2678C22.3737 22.8071 22.0475 21.2315 22.0495 19.6393C22.0495 13.2106 27.2669 8.00001 33.703 8.00001C35.4959 7.99792 37.2651 8.41026 38.8723 9.20484C40.4796 9.99943 41.8815 11.1548 42.9686 12.5806Z" fill="#00A1E0"/>
<path fill-rule="evenodd" clip-rule="evenodd" d="M26.6864 29.7807L26.9292 29.1067C26.9679 28.9912 27.0552 29.0293 27.0906 29.0509C27.1582 29.091 27.2067 29.1271 27.294 29.1782C28.0093 29.6304 28.672 29.635 28.8787 29.635C29.4142 29.635 29.7462 29.3515 29.7462 28.9689V28.9492C29.7462 28.5332 29.2344 28.3757 28.6432 28.1945L28.5119 28.1525C27.7002 27.9215 26.832 27.5875 26.832 26.5598V26.5388C26.832 25.5636 27.6188 24.8831 28.7449 24.8831L28.8682 24.8818C29.5297 24.8818 30.1688 25.0741 30.6321 25.3549C30.6741 25.3812 30.7148 25.4297 30.6912 25.4941L30.4418 26.168C30.3979 26.2829 30.2778 26.2067 30.2778 26.2067C29.7944 25.9549 29.2596 25.8177 28.7147 25.8058C28.237 25.8058 27.9299 26.0591 27.9299 26.403V26.4246C27.9299 26.8256 28.4561 26.9969 29.0664 27.1957L29.1714 27.2285C29.9805 27.4845 30.8441 27.8388 30.8441 28.8134V28.8337C30.8441 29.887 30.0789 30.5413 28.8486 30.5413C28.2442 30.5413 27.6661 30.4481 27.0545 30.1232C26.939 30.0563 26.8248 29.9986 26.712 29.9165C26.7001 29.8995 26.6483 29.8791 26.6857 29.7807H26.6864ZM44.7037 29.7807L44.9472 29.1067C44.9826 28.9965 45.0857 29.0372 45.108 29.0509C45.1749 29.0923 45.2248 29.1271 45.3114 29.1782C46.028 29.6304 46.6894 29.635 46.8981 29.635C47.4316 29.635 47.7643 29.3515 47.7643 28.9689V28.9492C47.7643 28.5332 47.2531 28.3757 46.6619 28.1945L46.5306 28.1525C45.7176 27.9215 44.8494 27.5875 44.8494 26.5598V26.5388C44.8494 25.5636 45.6369 24.8831 46.7629 24.8831L46.8856 24.8818C47.5471 24.8818 48.1869 25.0741 48.6508 25.3549C48.6915 25.3812 48.7328 25.4297 48.7099 25.4941C48.6869 25.5538 48.4822 26.105 48.4605 26.168C48.4152 26.2829 48.2965 26.2067 48.2965 26.2067C47.8129 25.9548 47.2778 25.8176 46.7327 25.8058C46.255 25.8058 45.9479 26.0591 45.9479 26.403V26.4246C45.9479 26.8256 46.4735 26.9969 47.0844 27.1957L47.1894 27.2285C47.9985 27.4845 48.8614 27.8388 48.8614 28.8134V28.8337C48.8614 29.887 48.097 30.5413 46.8666 30.5413C46.2616 30.5413 45.6835 30.4481 45.0725 30.1232C44.957 30.0563 44.8429 29.9986 44.7293 29.9165C44.7175 29.8995 44.6657 29.8791 44.7037 29.7807ZM58.0312 26.6117C58.1323 26.9503 58.1822 27.3224 58.1822 27.7155C58.1822 28.1092 58.1323 28.48 58.0312 28.8186C57.9388 29.1451 57.7802 29.4492 57.5653 29.7118C57.35 29.9668 57.0799 30.1701 56.7753 30.3063C56.4603 30.4507 56.0902 30.5229 55.6741 30.5229C55.2581 30.5229 54.8867 30.4507 54.573 30.3063C54.2683 30.1701 53.9983 29.9668 53.783 29.7118C53.5683 29.4492 53.4095 29.1455 53.3164 28.8193C53.2132 28.4605 53.1624 28.0887 53.1655 27.7155C53.1655 27.3217 53.216 26.9503 53.3164 26.6117C53.4175 26.2704 53.5743 25.9698 53.7823 25.7192C53.9982 25.4631 54.2683 25.2582 54.573 25.1193C54.8874 24.9723 55.2568 24.8982 55.6741 24.8982C56.0915 24.8982 56.4609 24.9723 56.7753 25.1193C57.0889 25.2657 57.3553 25.4672 57.5653 25.7192C57.774 25.9698 57.9315 26.2704 58.0312 26.6117ZM57.0049 27.7155C57.0049 27.1202 56.8947 26.6523 56.6755 26.3242C56.459 25.9987 56.1309 25.8412 55.6741 25.8412C55.2174 25.8412 54.8919 25.9987 54.678 26.3242C54.4634 26.6523 54.3539 27.1202 54.3539 27.7155C54.3539 28.31 54.4634 28.7812 54.6793 29.112C54.8919 29.4414 55.2174 29.6009 55.6741 29.6009C56.1309 29.6009 56.459 29.4407 56.6755 29.112C56.8934 28.7812 57.0049 28.31 57.0049 27.7155ZM66.4687 29.4414L66.7207 30.1383C66.7535 30.2237 66.6793 30.2611 66.6793 30.2611C66.2902 30.412 65.7501 30.5196 65.2245 30.5196C64.3334 30.5196 63.6509 30.263 63.1955 29.7564C62.7428 29.2511 62.5118 28.564 62.5118 27.7115C62.5118 27.3171 62.5689 26.9437 62.6804 26.6057C62.792 26.2645 62.9593 25.9639 63.1798 25.7132C63.4087 25.4555 63.6911 25.2508 64.0073 25.1134C64.3354 24.9671 64.7212 24.8936 65.1517 24.8936C65.4424 24.8936 65.7009 24.9113 65.9227 24.9441C66.1596 24.9809 66.4752 25.0662 66.6085 25.118C66.6327 25.1272 66.7003 25.16 66.6728 25.2394C66.5756 25.5131 66.5094 25.6916 66.4195 25.941C66.3801 26.0473 66.3 26.0118 66.3 26.0118C65.9621 25.9055 65.6379 25.857 65.2147 25.857C64.7061 25.857 64.3242 26.0263 64.0749 26.3577C63.8229 26.6917 63.6818 27.1294 63.6798 27.7115C63.6779 28.3501 63.838 28.8232 64.1214 29.1159C64.4043 29.4079 64.7993 29.5556 65.2967 29.5556C65.4982 29.5556 65.6885 29.5425 65.8597 29.5156C66.029 29.4887 66.1878 29.4362 66.3374 29.3777C66.3374 29.3777 66.4339 29.3417 66.4687 29.4414ZM71.7249 26.4181C71.9486 27.2016 71.8318 27.8782 71.8279 27.9156C71.8194 28.0049 71.7275 28.0062 71.7275 28.0062L68.2503 28.0036C68.2719 28.5318 68.3986 28.9059 68.6545 29.1599C68.9058 29.4086 69.3048 29.5681 69.8449 29.5687C70.6704 29.5707 71.0227 29.4047 71.2728 29.3121C71.2728 29.3121 71.3679 29.278 71.404 29.3725L71.6304 30.0097C71.6763 30.1167 71.6396 30.1541 71.6009 30.1757C71.383 30.2958 70.8547 30.5203 69.8494 30.5229C69.3619 30.5249 68.9373 30.4553 68.5876 30.3195C68.2552 30.1964 67.9558 29.998 67.7128 29.74C67.4806 29.4868 67.3081 29.1847 67.2082 28.856C67.1006 28.4959 67.0477 28.1215 67.0514 27.7457C67.0514 27.3519 67.1019 26.9778 67.2036 26.6359C67.3053 26.2914 67.4635 25.9876 67.6741 25.7323C67.8924 25.4717 68.1662 25.2632 68.4754 25.122C68.7943 24.9717 69.1893 24.8982 69.6237 24.8982C69.9958 24.8982 70.3357 24.9782 70.6185 25.1003C70.8364 25.1935 71.0555 25.3622 71.28 25.6037C71.4217 25.7559 71.6376 26.0893 71.7249 26.4181ZM68.2667 27.1445H70.7471C70.7215 26.8256 70.6592 26.5395 70.5161 26.3242C70.2983 25.9987 69.9977 25.8196 69.5417 25.8196C69.085 25.8196 68.7608 25.9987 68.5462 26.3242C68.4058 26.5395 68.3159 26.8138 68.2667 27.1445ZM43.8723 26.4181C44.0954 27.2016 43.9806 27.8782 43.9767 27.9156C43.9675 28.0049 43.8756 28.0062 43.8756 28.0062L40.3977 28.0036C40.42 28.5318 40.546 28.9059 40.8026 29.1599C41.0539 29.4086 41.4523 29.5681 41.9923 29.5687C42.8178 29.5707 43.1715 29.4047 43.4209 29.3121C43.4209 29.3121 43.516 29.278 43.5514 29.3725L43.7785 30.0097C43.8244 30.1167 43.7877 30.1541 43.7496 30.1757C43.5304 30.2958 43.0015 30.5203 41.9976 30.5229C41.5093 30.5249 41.0848 30.4553 40.7357 30.3195C40.4032 30.1962 40.1037 29.9979 39.8603 29.74C39.6287 29.4866 39.4567 29.1845 39.357 28.856C39.2486 28.496 39.1953 28.1216 39.1989 27.7457C39.1989 27.3519 39.25 26.9778 39.3511 26.6359C39.4456 26.306 39.6059 25.9987 39.8222 25.7323C40.0405 25.4719 40.314 25.2635 40.6228 25.122C40.943 24.9717 41.3381 24.8982 41.7712 24.8982C42.1135 24.8974 42.4524 24.9661 42.7673 25.1003C42.9851 25.1935 43.2043 25.3622 43.4281 25.6037C43.5698 25.7559 43.7857 26.0893 43.8723 26.4181ZM40.4135 27.1445H42.8952C42.869 26.8256 42.8067 26.5395 42.6643 26.3242C42.4477 25.9987 42.1459 25.8196 41.6898 25.8196C41.2331 25.8196 40.9083 25.9987 40.695 26.3242C40.5533 26.5395 40.464 26.8138 40.4135 27.1445ZM34.2806 26.9785C34.2806 26.9785 34.5549 27.0028 34.8541 27.0461V26.8991C34.8541 26.4351 34.7577 26.2166 34.568 26.0702C34.3738 25.9219 34.0837 25.8452 33.7084 25.8452C33.7084 25.8452 32.8619 25.8347 32.1926 26.1982C32.1617 26.2166 32.1361 26.2271 32.1361 26.2271C32.1361 26.2271 32.0521 26.2566 32.022 26.1707L31.7759 25.5092C31.7378 25.414 31.8067 25.3707 31.8067 25.3707C32.1197 25.1266 32.8783 24.9789 32.8783 24.9789C33.1862 24.9248 33.4981 24.896 33.8108 24.8929C34.505 24.8929 35.0425 25.0544 35.408 25.374C35.7741 25.6949 35.9605 26.212 35.9605 26.9089L35.9625 30.0904C35.9625 30.0904 35.9697 30.1823 35.8824 30.2033C35.8824 30.2033 35.7544 30.2387 35.6396 30.2657C35.5235 30.2926 35.1048 30.3779 34.7629 30.4356C34.4138 30.4941 34.0604 30.5235 33.7064 30.5236C33.3685 30.5236 33.0588 30.4921 32.7858 30.4297C32.5314 30.3764 32.2905 30.2719 32.0777 30.1226C31.8839 29.9818 31.7282 29.7948 31.625 29.5786C31.518 29.36 31.4642 29.0929 31.4642 28.7845C31.4642 28.482 31.5278 28.2122 31.6505 27.9826C31.7739 27.7542 31.9432 27.5606 32.1558 27.409C32.3755 27.2543 32.621 27.1403 32.8809 27.0723C33.1519 27.0002 33.44 26.9627 33.7379 26.9627C33.9564 26.9627 34.1389 26.9673 34.2806 26.9785ZM32.8967 29.4224C32.8947 29.4217 33.2084 29.6685 33.9164 29.6252C34.4138 29.595 34.8548 29.5005 34.8548 29.5005V27.9189C34.8548 27.9189 34.4099 27.8461 33.9105 27.8388C33.2025 27.8303 32.9006 28.0908 32.9026 28.0902C32.6939 28.2385 32.5922 28.4583 32.5922 28.7628C32.5922 28.9577 32.627 29.11 32.6972 29.2163C32.7412 29.2865 32.7602 29.3128 32.8967 29.4224ZM62.3307 25.1863C62.2979 25.2814 62.1292 25.7579 62.0682 25.916C62.0459 25.9764 62.0091 26.0177 61.9415 26.0105C61.9415 26.0105 61.7421 25.9646 61.5596 25.9646C61.4343 25.9646 61.2552 25.9803 61.0937 26.0302C60.9318 26.08 60.7845 26.1685 60.6646 26.2881C60.5373 26.4108 60.4342 26.5834 60.3594 26.8C60.2833 27.0179 60.2439 27.3644 60.2439 27.7122V30.3031C60.244 30.3169 60.2414 30.3306 60.2361 30.3434C60.2309 30.3563 60.2232 30.3679 60.2134 30.3777C60.2037 30.3875 60.1921 30.3953 60.1793 30.4007C60.1665 30.406 60.1528 30.4087 60.1389 30.4087H59.2262C59.2122 30.4089 59.1984 30.4063 59.1854 30.4011C59.1724 30.3959 59.1606 30.3883 59.1506 30.3785C59.1406 30.3688 59.1326 30.3571 59.1271 30.3443C59.1216 30.3315 59.1187 30.3177 59.1186 30.3037V25.1161C59.1186 25.0577 59.1612 25.0111 59.2196 25.0111H60.1101C60.1691 25.0111 60.2111 25.0577 60.2111 25.1161V25.54C60.3443 25.3615 60.5832 25.204 60.7991 25.1069C61.0156 25.0084 61.2578 24.9362 61.6955 24.9625C61.9232 24.9763 62.2191 25.0386 62.2788 25.0616C62.2905 25.0663 62.3011 25.0732 62.3101 25.0821C62.319 25.0909 62.3261 25.1014 62.331 25.113C62.3358 25.1246 62.3382 25.1371 62.3382 25.1497C62.3381 25.1623 62.3356 25.1747 62.3307 25.1863ZM53.7541 22.7824C53.7784 22.7923 53.8446 22.8244 53.8184 22.9032L53.5513 23.6336C53.529 23.6887 53.5146 23.7215 53.4011 23.6874C53.2509 23.6402 53.0945 23.6158 52.9371 23.6152C52.7993 23.6152 52.6746 23.6329 52.5644 23.6697C52.4541 23.705 52.3541 23.7667 52.273 23.8495C52.1652 23.9537 52.0818 24.0806 52.0289 24.2209C51.901 24.5884 51.8518 24.9802 51.8452 25.0052H52.9568C53.0506 25.0052 53.0802 25.0485 53.071 25.1174L52.9411 25.8406C52.9201 25.9456 52.8249 25.9416 52.8249 25.9416H51.6792L50.8963 30.3752C50.829 30.7729 50.7267 31.1638 50.5905 31.5434C50.4678 31.8643 50.3412 32.0986 50.1378 32.3223C49.9641 32.5226 49.7433 32.6764 49.4953 32.7699C49.2545 32.8585 48.9618 32.9038 48.6423 32.9038C48.49 32.9038 48.326 32.9005 48.1324 32.8546C48.0245 32.8299 47.9183 32.7988 47.8141 32.7614C47.7715 32.7463 47.7367 32.6918 47.7616 32.6222C47.7853 32.5533 47.9913 31.9896 48.0189 31.9155C48.0543 31.8262 48.1449 31.8603 48.1449 31.8603C48.2066 31.8866 48.2499 31.9037 48.3319 31.9201C48.4152 31.9365 48.5268 31.9509 48.6114 31.9509C48.763 31.9509 48.9008 31.9325 49.0209 31.8918C49.1653 31.8452 49.2506 31.7606 49.3385 31.6477C49.4304 31.5289 49.5052 31.3682 49.582 31.1522C49.6587 30.9337 49.7289 30.645 49.7893 30.2952L50.5689 25.9423H49.8011C49.7093 25.9423 49.6778 25.899 49.6883 25.8294L49.8169 25.1062C49.8372 25.0012 49.935 25.0052 49.935 25.0052H50.7231L50.7657 24.7702C50.8839 24.072 51.1181 23.5411 51.4646 23.1926C51.813 22.8415 52.3085 22.6643 52.9371 22.6643C53.1169 22.6643 53.2757 22.6761 53.4102 22.7004C53.5421 22.7253 53.6425 22.7483 53.7541 22.7824ZM38.2178 30.3031C38.2178 30.3621 38.1771 30.4087 38.1181 30.4087H37.1961C37.1371 30.4087 37.097 30.3615 37.097 30.3037V22.8796C37.097 22.8225 37.1377 22.7752 37.1955 22.7752H38.1181C38.1771 22.7752 38.2178 22.8225 38.2178 22.8802V30.3031Z" fill="white"/>
<path d="M38.3027 69H36.1289L34.8223 66.8379C34.7246 66.6738 34.6309 66.5273 34.541 66.3984C34.4512 66.2695 34.3594 66.1602 34.2656 66.0703C34.1758 65.9766 34.0801 65.9062 33.9785 65.8594C33.8809 65.8086 33.7734 65.7832 33.6562 65.7832H33.1465V69H31.2539V60.5977H34.2539C36.293 60.5977 37.3125 61.3594 37.3125 62.8828C37.3125 63.1758 37.2676 63.4473 37.1777 63.6973C37.0879 63.9434 36.9609 64.166 36.7969 64.3652C36.6328 64.5645 36.4336 64.7363 36.1992 64.8809C35.9688 65.0254 35.7109 65.1387 35.4258 65.2207V65.2441C35.5508 65.2832 35.6719 65.3477 35.7891 65.4375C35.9062 65.5234 36.0195 65.625 36.1289 65.7422C36.2383 65.8594 36.3418 65.9863 36.4395 66.123C36.541 66.2559 36.6328 66.3867 36.7148 66.5156L38.3027 69ZM33.1465 62.0156V64.3535H33.9668C34.373 64.3535 34.6992 64.2363 34.9453 64.002C35.1953 63.7637 35.3203 63.4688 35.3203 63.1172C35.3203 62.3828 34.8809 62.0156 34.002 62.0156H33.1465ZM41.6895 60.5977V62.0625H40.9863V67.5352H41.6895V69H38.3906V67.5352H39.0938V62.0625H38.3906V60.5977H41.6895ZM42.9023 69V60.5977H45.8789C48.8633 60.5977 50.3555 61.9629 50.3555 64.6934C50.3555 66.002 49.9473 67.0469 49.1309 67.8281C48.3184 68.6094 47.2344 69 45.8789 69H42.9023ZM44.7949 62.1387V67.4648H45.7324C46.5527 67.4648 47.1953 67.2188 47.6602 66.7266C48.1289 66.2344 48.3633 65.5645 48.3633 64.7168C48.3633 63.916 48.1309 63.2871 47.666 62.8301C47.2051 62.3691 46.5566 62.1387 45.7207 62.1387H44.7949ZM58.6465 68.4375C57.8262 68.9102 56.8066 69.1465 55.5879 69.1465C54.2363 69.1465 53.1699 68.7734 52.3887 68.0273C51.6113 67.2773 51.2227 66.2461 51.2227 64.9336C51.2227 63.6133 51.6484 62.5371 52.5 61.7051C53.3516 60.873 54.4844 60.457 55.8984 60.457C56.7891 60.457 57.5742 60.5801 58.2539 60.8262V62.6016C57.6055 62.2266 56.8125 62.0391 55.875 62.0391C55.0898 62.0391 54.4492 62.2949 53.9531 62.8066C53.4609 63.3145 53.2148 63.9941 53.2148 64.8457C53.2148 65.709 53.4355 66.377 53.877 66.8496C54.3223 67.3223 54.9219 67.5586 55.6758 67.5586C56.1289 67.5586 56.4883 67.4941 56.7539 67.3652V65.7246H55.0723V64.2129H58.6465V68.4375ZM65.3203 69H60.2812V60.5977H65.127V62.1387H62.1738V64.0078H64.9219V65.543H62.1738V67.4648H65.3203V69ZM24.1406 82.1055V85H22.248V76.5977H25.2129C27.3301 76.5977 28.3887 77.4902 28.3887 79.2754C28.3887 80.1191 28.084 80.8027 27.4746 81.3262C26.8691 81.8457 26.0586 82.1055 25.043 82.1055H24.1406ZM24.1406 78.0508V80.6699H24.8848C25.8926 80.6699 26.3965 80.2285 26.3965 79.3457C26.3965 78.4824 25.8926 78.0508 24.8848 78.0508H24.1406ZM36.293 85H34.2305L33.6328 83.1309H30.6445L30.0527 85H28.002L31.0605 76.5977H33.3047L36.293 85ZM33.1992 81.6777L32.2969 78.8535C32.2305 78.6426 32.1836 78.3906 32.1562 78.0977H32.1094C32.0898 78.3438 32.041 78.5879 31.9629 78.8301L31.0488 81.6777H33.1992ZM44.3906 85H42.2168L40.9102 82.8379C40.8125 82.6738 40.7188 82.5273 40.6289 82.3984C40.5391 82.2695 40.4473 82.1602 40.3535 82.0703C40.2637 81.9766 40.168 81.9062 40.0664 81.8594C39.9688 81.8086 39.8613 81.7832 39.7441 81.7832H39.2344V85H37.3418V76.5977H40.3418C42.3809 76.5977 43.4004 77.3594 43.4004 78.8828C43.4004 79.1758 43.3555 79.4473 43.2656 79.6973C43.1758 79.9434 43.0488 80.166 42.8848 80.3652C42.7207 80.5645 42.5215 80.7363 42.2871 80.8809C42.0566 81.0254 41.7988 81.1387 41.5137 81.2207V81.2441C41.6387 81.2832 41.7598 81.3477 41.877 81.4375C41.9941 81.5234 42.1074 81.625 42.2168 81.7422C42.3262 81.8594 42.4297 81.9863 42.5273 82.123C42.6289 82.2559 42.7207 82.3867 42.8027 82.5156L44.3906 85ZM39.2344 78.0156V80.3535H40.0547C40.4609 80.3535 40.7871 80.2363 41.0332 80.002C41.2832 79.7637 41.4082 79.4688 41.4082 79.1172C41.4082 78.3828 40.9688 78.0156 40.0898 78.0156H39.2344ZM50.8359 78.1387H48.4395V85H46.541V78.1387H44.1562V76.5977H50.8359V78.1387ZM59.5254 85H57.6152L54.1523 79.7207C53.9492 79.4121 53.8086 79.1797 53.7305 79.0234H53.707C53.7383 79.3203 53.7539 79.7734 53.7539 80.3828V85H51.9668V76.5977H54.0059L57.3398 81.7129C57.4922 81.9434 57.6328 82.1719 57.7617 82.3984H57.7852C57.7539 82.2031 57.7383 81.8184 57.7383 81.2441V76.5977H59.5254V85ZM66.4863 85H61.4473V76.5977H66.293V78.1387H63.3398V80.0078H66.0879V81.543H63.3398V83.4648H66.4863V85ZM74.8828 85H72.709L71.4023 82.8379C71.3047 82.6738 71.2109 82.5273 71.1211 82.3984C71.0312 82.2695 70.9395 82.1602 70.8457 82.0703C70.7559 81.9766 70.6602 81.9062 70.5586 81.8594C70.4609 81.8086 70.3535 81.7832 70.2363 81.7832H69.7266V85H67.834V76.5977H70.834C72.873 76.5977 73.8926 77.3594 73.8926 78.8828C73.8926 79.1758 73.8477 79.4473 73.7578 79.6973C73.668 79.9434 73.541 80.166 73.377 80.3652C73.2129 80.5645 73.0137 80.7363 72.7793 80.8809C72.5488 81.0254 72.291 81.1387 72.0059 81.2207V81.2441C72.1309 81.2832 72.252 81.3477 72.3691 81.4375C72.4863 81.5234 72.5996 81.625 72.709 81.7422C72.8184 81.8594 72.9219 81.9863 73.0195 82.123C73.1211 82.2559 73.2129 82.3867 73.2949 82.5156L74.8828 85ZM69.7266 78.0156V80.3535H70.5469C70.9531 80.3535 71.2793 80.2363 71.5254 80.002C71.7754 79.7637 71.9004 79.4688 71.9004 79.1172C71.9004 78.3828 71.4609 78.0156 70.582 78.0156H69.7266Z" fill="white"/>
</svg>
