<svg width="48" height="48" viewBox="0 0 48 48" fill="none" xmlns="http://www.w3.org/2000/svg">
<path d="M15.6282 29.8875L15.6721 29.9773C15.4394 30.0911 15.2236 30.1069 15.0057 29.9868C14.7998 29.8733 14.6034 29.6438 14.3822 29.3051C13.9064 28.5912 13.4714 27.5873 13.1974 26.5763C13.0626 26.0853 12.9923 25.2709 12.9841 24.4663C12.9758 23.6615 13.0296 22.8496 13.1499 22.3635L13.1499 22.3633C13.5854 20.6213 14.5037 18.9923 15.7174 17.7975L15.7179 17.7971L31.3595 19.0969C31.1813 20.8875 30.4595 24.2531 30.0376 25.3125L30.1305 25.3494C30.1305 25.3494 30.1305 25.3495 30.1305 25.3495C30.1219 25.371 30.1137 25.3925 30.1055 25.414C30.0536 25.5495 30.0031 25.6816 29.8865 25.7801C29.7508 25.8948 29.5389 25.9573 29.1741 25.9967C28.4993 26.0696 27.2185 26.0694 24.6898 26.0688C24.4695 26.0688 24.2397 26.0688 24.0001 26.0688C23.76 26.0688 23.5299 26.0688 23.3092 26.0688C20.777 26.0694 19.4962 26.0696 18.8225 25.9967C18.4583 25.9573 18.2471 25.8948 18.1121 25.7799C17.9969 25.6819 17.9468 25.5505 17.8954 25.4159C17.8869 25.3938 17.8785 25.3716 17.8696 25.3494C17.6554 24.8114 17.3891 23.8058 17.1489 22.7029C16.9082 21.5981 16.6919 20.3878 16.5789 19.4368L16.5789 19.4366L16.4894 18.6687L16.3069 18.8409C15.9033 19.2355 15.2633 20.1254 14.9492 20.763L14.9487 20.7638C13.8373 22.9681 13.7913 25.4767 14.8096 27.6799L14.8096 27.68C14.8492 27.7656 14.8855 27.8453 14.9193 27.9192C15.019 28.1375 15.0956 28.3053 15.1623 28.4277C15.2069 28.5095 15.2432 28.5635 15.2742 28.5965C15.3047 28.6289 15.3204 28.6308 15.3247 28.6309C15.3311 28.6312 15.351 28.6288 15.3915 28.5962C15.4315 28.564 15.4803 28.5115 15.5423 28.4335C15.6335 28.3188 15.7435 28.1616 15.8855 27.9588C15.9368 27.8855 15.9922 27.8062 16.0525 27.7208C16.2639 27.4155 16.4684 27.1311 16.6273 26.918C16.7068 26.8114 16.7753 26.7222 16.8277 26.6569C16.8539 26.6243 16.8767 26.5969 16.8952 26.576C16.9104 26.5589 16.9311 26.5362 16.9509 26.523L17.0063 26.6063M15.6282 29.8875L15.6718 29.9775C15.7031 29.9624 15.7357 29.9365 15.7661 29.9094C15.7983 29.8808 15.8347 29.8444 15.8743 29.8023C15.9536 29.718 16.0495 29.6063 16.155 29.477C16.3662 29.2181 16.6196 28.8842 16.8635 28.5469C17.1074 28.2095 17.3428 27.8673 17.5175 27.5917C17.6047 27.4541 17.6778 27.3317 17.7293 27.2341C17.7551 27.1854 17.7763 27.1413 17.7914 27.1035C17.805 27.0695 17.8188 27.0284 17.8188 26.9906C17.8188 26.776 17.6796 26.6035 17.5118 26.5134C17.3443 26.4236 17.1245 26.4033 16.9496 26.5239L17.0063 26.6063M15.6282 29.8875C15.2063 30.0938 14.9063 29.925 14.4657 29.25L17.0063 26.6063M15.6282 29.8875C15.9188 29.7469 17.7188 27.2625 17.7188 26.9906C17.7188 26.6531 17.2782 26.4188 17.0063 26.6063M31.05 26.5235C31.0695 26.5367 31.09 26.5591 31.105 26.576C31.1235 26.5969 31.1463 26.6243 31.1724 26.6569C31.2249 26.7222 31.2934 26.8114 31.3728 26.918C31.5318 27.1311 31.7363 27.4155 31.9477 27.7209C32.0079 27.8062 32.0634 27.8855 32.1147 27.9588C32.2566 28.1616 32.3667 28.3188 32.4579 28.4335C32.5198 28.5115 32.5687 28.564 32.6087 28.5962C32.6492 28.6288 32.6691 28.6312 32.6754 28.6309C32.6798 28.6308 32.6954 28.6289 32.726 28.5965C32.757 28.5635 32.7933 28.5095 32.8379 28.4277C32.9046 28.3053 32.9812 28.1375 33.0809 27.9192C33.1146 27.8453 33.151 27.7656 33.1905 27.68L33.1906 27.6798C34.3844 25.1072 34.108 22.1728 32.4491 19.7444C32.2549 19.4671 31.9312 19.0791 31.731 18.888L31.7294 18.8863L31.51 18.6669L31.459 19.1068C31.4589 19.1071 31.4589 19.1073 31.4589 19.1076L32.372 29.8875L32.3284 29.9775C32.3284 29.9775 32.3283 29.9775 32.3283 29.9775C32.2969 29.9623 32.2643 29.9364 32.2339 29.9092C32.2018 29.8805 32.1653 29.8441 32.1257 29.8018C32.0464 29.7172 31.9506 29.6052 31.8451 29.4756C31.6339 29.216 31.3805 28.8812 31.1366 28.5433C30.8927 28.2054 30.6574 27.8629 30.4827 27.5878C30.3955 27.4505 30.3225 27.3285 30.271 27.2317C30.2453 27.1834 30.224 27.1397 30.2089 27.1024C30.1955 27.0692 30.1813 27.0282 30.1813 26.9906C30.1813 26.776 30.3206 26.6035 30.4883 26.5134C30.6556 26.4237 30.8752 26.4034 31.05 26.5235ZM31.05 26.5235C31.0497 26.5233 31.0495 26.5232 31.0493 26.523L30.9938 26.6063L31.0506 26.5239C31.0504 26.5238 31.0502 26.5236 31.05 26.5235ZM33.6179 29.3051C33.6178 29.3052 33.6178 29.3053 33.6177 29.3055L33.5345 29.25L33.6182 29.3047C33.6181 29.3048 33.618 29.3049 33.6179 29.3051ZM34.8028 26.5765C34.8027 26.5765 34.8027 26.5766 34.8027 26.5767L34.7063 26.55L34.8029 26.5762C34.8028 26.5763 34.8028 26.5764 34.8028 26.5765ZM31.6156 17.1578L31.6185 17.1954L31.5188 17.2031L31.5886 17.1315L31.6156 17.1578ZM23.183 2.27149C23.183 2.27147 23.183 2.27146 23.183 2.27145L23.2407 2.35313L23.183 2.27149ZM24.635 3.65438L24.6345 3.65396C24.468 3.49666 24.2996 3.35368 24.1644 3.25061C24.0967 3.19894 24.0388 3.15841 23.9945 3.13129C23.9722 3.11766 23.9551 3.1085 23.9431 3.10309C23.9424 3.10276 23.9417 3.10246 23.941 3.10218C23.9385 3.10313 23.9353 3.10447 23.9313 3.1063C23.9157 3.11353 23.8945 3.12559 23.8676 3.14355C23.814 3.17937 23.7453 3.23336 23.664 3.3037C23.5019 3.444 23.2971 3.64285 23.075 3.87432C22.6307 4.33723 22.1227 4.92456 21.7555 5.4219L21.7554 5.42208C19.6641 8.24164 18.3022 11.3583 17.7612 14.5946L17.7612 14.5948C17.3426 17.0691 17.7238 21.0091 18.7051 24.2144C18.7051 24.2144 18.7051 24.2145 18.7051 24.2145L18.9269 24.931L24.0183 24.9125L24.0185 24.9125L29.109 24.8848L29.304 24.2067L29.3042 24.206C29.4251 23.7968 29.6495 22.8901 29.7992 22.1976L29.7993 22.1971C30.6216 18.4875 30.6108 15.3551 29.7635 12.4499L29.7634 12.4498C28.8206 9.21068 26.7101 5.58995 24.635 3.65438ZM19.0032 7.78126L18.9147 7.73471C18.9147 7.73464 18.9148 7.73457 18.9148 7.7345C18.9148 7.73444 18.9149 7.73438 18.9149 7.73433L19.0032 7.78126ZM16.4848 15.8822L16.4848 15.8821L16.5845 15.8906L16.4848 15.8824C16.4848 15.8824 16.4848 15.8823 16.4848 15.8822ZM16.3755 17.1574L16.4022 17.1314L16.472 17.2031L16.3723 17.1946L16.3755 17.1574Z" fill="#18181A" stroke="#18181A" stroke-width="0.2"/>
<path d="M28.3616 15.4501C27.9605 16.8344 27.1929 17.7764 25.9663 18.3802C25.6103 18.5583 25.3841 18.661 25.1445 18.7237C24.9051 18.7863 24.6568 18.8077 24.259 18.8311L24.259 18.8311L24.2578 18.8311C22.8256 18.898 21.7005 18.4858 20.7415 17.5172L20.7413 17.517C20.1296 16.8958 19.7549 16.2431 19.544 15.4475L19.544 15.4475L19.5438 15.4469C18.9204 13.0298 20.4352 10.5009 22.8785 9.8781L22.8786 9.87808C23.2063 9.79491 23.6769 9.76945 24.1452 9.79073C24.6141 9.81205 25.0926 9.88077 25.4371 9.99237L25.4379 9.99264C26.6201 10.3867 27.7674 11.4963 28.2185 12.6863C28.3685 13.0784 28.4589 13.5838 28.4851 14.0807C28.5112 14.5769 28.4737 15.0744 28.3616 15.4501ZM28.3616 15.4501C28.3616 15.45 28.3617 15.4498 28.3617 15.4497L28.2657 15.4219L28.3615 15.4505C28.3615 15.4504 28.3616 15.4502 28.3616 15.4501ZM25.393 11.2285L25.393 11.2286L25.3913 11.2277C25.0805 11.0791 24.6748 10.9758 24.2666 10.9298C23.858 10.8838 23.456 10.8961 23.1525 10.972C22.5816 11.1171 21.9696 11.4817 21.5221 11.9474L21.5218 11.9478C20.0278 13.4873 20.3016 16.0005 22.0854 17.1659C22.7603 17.5944 23.3671 17.7489 24.2184 17.694C25.4378 17.612 26.5498 16.8469 27.0783 15.7261L27.0786 15.7255C27.1895 15.4945 27.2483 15.3425 27.2811 15.1496C27.3147 14.953 27.3219 14.7105 27.3219 14.2969C27.3219 13.8784 27.3146 13.6387 27.2801 13.4449C27.2462 13.2549 27.1855 13.1055 27.0696 12.869L27.0695 12.8688C26.7326 12.1768 26.0933 11.5468 25.393 11.2285Z" fill="#18181A" stroke="#18181A" stroke-width="0.2"/>
<path d="M15.3535 14.8996C15.2891 14.9523 15.2207 14.9912 15.0843 15.0189C14.9542 15.0453 14.7577 15.0624 14.4341 15.0742C13.7849 15.0977 12.5989 15.1 10.35 15.1H5.66357L5.39216 15.346L5.39101 15.347L5.11545 15.5892L5.06875 27.4222C5.06875 27.4223 5.06875 27.4223 5.06875 27.4223C5.05 32.6298 5.03359 35.6001 5.00663 37.2778C4.99315 38.1162 4.97702 38.6338 4.95648 38.9469C4.94624 39.103 4.93471 39.2117 4.92109 39.2853C4.91433 39.3218 4.90634 39.3537 4.89595 39.3798C4.88685 39.4027 4.86952 39.4381 4.83366 39.4602L4.78125 39.375M15.3535 14.8996C15.4463 14.8253 15.522 14.7544 15.5506 14.6581C15.5792 14.5615 15.5539 14.4612 15.5167 14.3496L15.5164 14.3487L15.4227 14.0768L15.3995 14.0097L15.3285 14.0094L10.4537 13.9906C8.16721 13.9766 6.94153 13.9719 6.24323 13.9918C5.54575 14.0118 5.3587 14.0563 5.16032 14.1503C4.67975 14.3759 4.28641 14.7782 4.0889 15.2616C4.04849 15.3574 4.02264 15.5187 4.00262 15.8511C3.98225 16.1893 3.96759 16.7184 3.95704 17.5616C3.93594 19.2487 3.93125 22.2003 3.93125 27.4125C3.93125 32.695 3.93594 35.6396 3.95704 37.2798C3.96759 38.0994 3.98225 38.5956 4.00267 38.8956C4.01286 39.0452 4.02468 39.1496 4.03901 39.2222C4.05212 39.2886 4.07057 39.3486 4.10933 39.3882C4.30556 39.5952 4.59362 39.6129 4.83494 39.4594L4.78125 39.375M15.3535 14.8996C15.3534 14.8997 15.3532 14.8999 15.3531 14.9L15.2906 14.8219L15.3539 14.8993C15.3538 14.8994 15.3537 14.8995 15.3535 14.8996ZM4.78125 39.375C4.90313 39.3 4.93125 37.8375 4.96875 27.4219L4.18125 15.3C4.05 15.6094 4.03125 16.9875 4.03125 27.4125C4.03125 37.9781 4.05 39.1875 4.18125 39.3188C4.34063 39.4875 4.575 39.5063 4.78125 39.375Z" fill="#18181A" stroke="#18181A" stroke-width="0.2"/>
<path d="M32.6797 14.9316L32.6802 14.9319C32.7474 14.979 32.8411 15.0072 32.9934 15.0279C33.1476 15.0489 33.3756 15.0636 33.7224 15.0742C34.4168 15.0953 35.6022 15.1 37.6594 15.1H42.3365L42.6079 15.346L42.609 15.347L42.8846 15.5892L42.9313 27.4222C42.9313 27.4223 42.9313 27.4223 42.9313 27.4223C42.95 32.6298 42.9664 35.6001 42.9934 37.2778C43.0069 38.1162 43.023 38.6338 43.0436 38.9469C43.0538 39.103 43.0653 39.2117 43.0789 39.2853C43.0857 39.3218 43.0937 39.3537 43.1041 39.3798C43.1131 39.4025 43.1302 39.4376 43.1656 39.4597M32.6797 14.9316L43.2188 39.375M32.6797 14.9316C32.5427 14.8346 32.4615 14.6847 32.4404 14.5333C32.4194 14.3821 32.4576 14.2197 32.5731 14.1043C32.5956 14.0817 32.6243 14.0708 32.6417 14.065C32.6625 14.058 32.687 14.0524 32.7137 14.0476C32.7673 14.0378 32.8403 14.0295 32.9334 14.0221C33.1202 14.0074 33.3976 13.9959 33.7841 13.9871C34.5576 13.9695 35.7751 13.9625 37.5938 13.9625C39.843 13.9625 41.0592 13.9672 41.7563 13.9919C42.4522 14.0165 42.6456 14.0611 42.8387 14.1498L42.8394 14.1501C43.3201 14.3757 43.7135 14.778 43.9111 15.2616M32.6797 14.9316L43.9111 15.2616M43.1656 39.4597C43.1658 39.4598 43.1661 39.46 43.1664 39.4602L43.2188 39.375M43.1656 39.4597C43.1654 39.4596 43.1652 39.4595 43.1651 39.4594L43.2188 39.375M43.1656 39.4597C43.4068 39.6129 43.6946 39.5951 43.8907 39.3882M43.2188 39.375C43.425 39.5063 43.6594 39.4875 43.8188 39.3188M43.8907 39.3882C43.8903 39.3887 43.8899 39.3891 43.8895 39.3895L43.8188 39.3188M43.8907 39.3882C43.9295 39.3486 43.9479 39.2886 43.961 39.2222C43.9753 39.1496 43.9872 39.0452 43.9974 38.8956C44.0178 38.5956 44.0324 38.0994 44.043 37.2798C44.0641 35.6396 44.0688 32.695 44.0688 27.4125C44.0688 22.2003 44.0641 19.2487 44.043 17.5616C44.0324 16.7184 44.0178 16.1893 43.9974 15.8511C43.9774 15.5187 43.9515 15.3573 43.9111 15.2616M43.8907 39.3882C43.891 39.388 43.8912 39.3877 43.8915 39.3874L43.8188 39.3188M43.8188 39.3188L43.9111 15.2616M43.9111 15.2616C43.9112 15.2618 43.9113 15.262 43.9114 15.2622L43.8188 15.3L43.9108 15.261C43.9109 15.2612 43.911 15.2614 43.9111 15.2616Z" fill="#18181A" stroke="#18181A" stroke-width="0.2"/>
<path d="M26.1915 27.8709C26.1908 27.871 26.1901 27.8711 26.1894 27.8712C26.159 27.8754 26.1136 27.8798 26.0539 27.8842C25.9349 27.893 25.7649 27.9015 25.5562 27.9091C25.1391 27.9242 24.5706 27.9359 23.9526 27.9406C23.9525 27.9406 23.9525 27.9406 23.9524 27.9406L21.7785 27.9497L21.6868 27.6288L21.6864 27.6271C21.6524 27.5154 21.6088 27.3994 21.5665 27.3014C21.5254 27.2062 21.4816 27.1191 21.4457 27.0713L21.4435 27.0683L21.4434 27.0683C21.3373 26.9372 21.1692 26.8913 21.0157 26.9051C20.8622 26.9189 20.7041 26.9937 20.6091 27.1297C20.54 27.2255 20.4993 27.3134 20.4993 27.4465C20.4993 27.5679 20.5335 27.7256 20.5938 27.9622L20.5939 27.9624C20.6755 28.2795 20.7861 28.5279 20.943 28.7105C21.1019 28.8954 21.3028 29.0065 21.5519 29.0573C21.638 29.075 21.696 29.0962 21.7384 29.1255C21.7784 29.1531 21.811 29.1923 21.8377 29.259C21.8951 29.4025 21.9172 29.6498 21.922 30.1042L21.922 30.1046C21.9497 31.9357 21.2369 33.8618 20.0061 35.2685L20.0056 35.269L19.7125 35.6085L19.2636 35.2477C19.2634 35.2476 19.2633 35.2475 19.2631 35.2474C18.5594 34.6691 17.8989 34.4469 16.9219 34.4469C16.6019 34.4469 16.3844 34.4585 16.1847 34.5019C15.984 34.5455 15.8065 34.6201 15.5654 34.7383L15.6094 34.8281M26.1915 27.8709L27.0376 27.0375M26.1915 27.8709C26.193 27.8675 26.1947 27.8637 26.1965 27.8596C26.2075 27.8338 26.2208 27.7994 26.2357 27.7582C26.2653 27.6762 26.2997 27.5707 26.332 27.4602M26.1915 27.8709L26.4282 27.4875M15.6094 34.8281L15.5656 34.7382C14.4417 35.2858 13.7077 36.2304 13.4954 37.4164C13.4347 37.7435 13.4135 37.9863 13.4583 38.1601C13.4817 38.2509 13.5239 38.3264 13.5894 38.3846C13.6537 38.4416 13.7338 38.476 13.8234 38.4972C13.9236 38.5222 14.0181 38.5328 14.1054 38.5183C14.1958 38.5032 14.2731 38.462 14.3372 38.3932C14.458 38.2639 14.5269 38.0413 14.5828 37.7335L14.5829 37.7333C14.7013 37.0727 14.9915 36.5483 15.4044 36.1891C15.8168 35.8303 16.3575 35.6314 16.987 35.6313C17.3745 35.6359 17.6874 35.6973 17.9804 35.8371C18.2746 35.9775 18.5555 36.2002 18.8742 36.5373C19.0213 36.6939 19.1688 36.8368 19.2876 36.9411C19.3468 36.9932 19.4002 37.0368 19.4436 37.068C19.4651 37.0835 19.486 37.0973 19.5052 37.1077C19.5148 37.1129 19.5256 37.1181 19.5369 37.1223C19.5471 37.126 19.5642 37.1313 19.5844 37.1313C19.618 37.1313 19.6486 37.1171 19.665 37.1089C19.6859 37.0985 19.7089 37.0845 19.7327 37.0687C19.7807 37.0367 19.8397 36.9921 19.9052 36.9391C20.0366 36.8327 20.2003 36.688 20.3655 36.5321L20.366 36.5317C21.0117 35.9145 21.7499 34.9209 22.1489 34.1228C22.7568 32.907 23.1355 31.0141 23.0404 29.6835L23.0404 29.6829L22.9925 29.0688H24.0001H25.0081L24.9597 29.7302L24.9597 29.7309C24.8552 31.307 25.2911 33.2106 26.0972 34.6427C26.3049 35.0144 26.8015 35.6309 27.2729 36.1504C27.5096 36.4113 27.7427 36.6507 27.9336 36.8256C28.0288 36.9129 28.1153 36.9858 28.1876 37.0375C28.2236 37.0632 28.2582 37.0852 28.29 37.1012C28.3191 37.1158 28.3571 37.1313 28.3969 37.1313C28.4296 37.1313 28.4592 37.119 28.478 37.1099C28.4997 37.0995 28.5228 37.0855 28.5462 37.0698C28.5931 37.0381 28.6489 36.994 28.7095 36.9418C28.8311 36.837 28.979 36.6938 29.1261 36.5372L29.0532 36.4688M15.6094 34.8281C16.0876 34.5938 16.2844 34.5469 16.9219 34.5469C17.8782 34.5469 18.5157 34.7625 19.2001 35.325L16.9876 35.5313C15.6844 35.5313 14.7282 36.3563 14.4844 37.7156C14.3719 38.3344 14.2219 38.4938 13.8469 38.4C13.5282 38.325 13.4719 38.0906 13.5938 37.4344C13.8001 36.2813 14.5126 35.3625 15.6094 34.8281ZM29.0532 36.4688L29.1259 36.5374C29.4449 36.2 29.7259 35.9749 30.0166 35.8346C30.3059 35.6949 30.6111 35.6361 30.9832 35.6406L30.9844 35.6406C31.6401 35.6406 32.1734 35.8246 32.5776 36.1709C32.9823 36.5176 33.2664 37.0349 33.4084 37.7172C33.4416 37.8785 33.4762 38.0133 33.5159 38.123C33.5554 38.2323 33.602 38.3226 33.6626 38.3904C33.7251 38.4605 33.8002 38.504 33.8892 38.5214C33.9752 38.5382 34.068 38.5295 34.1663 38.5068L34.1702 38.5059L34.1701 38.5059C34.2608 38.4811 34.3402 38.4395 34.4035 38.3756C34.4669 38.3117 34.509 38.2307 34.5336 38.1356C34.5817 37.95 34.566 37.6993 34.5045 37.3781L34.5045 37.378C34.3599 36.6258 34.0496 36.055 33.474 35.4794C32.0939 34.0898 30.0653 34.0642 28.547 35.3995C28.5468 35.3997 28.5467 35.3998 28.5465 35.3999L28.2927 35.6174L27.9366 35.2296C27.9365 35.2296 27.9364 35.2295 27.9364 35.2294C26.7451 33.918 26.0504 32.0306 26.0782 30.1515L26.0782 30.151C26.0805 29.9169 26.0858 29.7351 26.0986 29.5912C26.1115 29.4468 26.1315 29.3468 26.1603 29.2738C26.1879 29.2037 26.2239 29.1579 26.2728 29.1213C26.3245 29.0826 26.3948 29.0509 26.4973 29.0167L26.4979 29.0165C26.7269 28.9386 26.8927 28.8483 27.0233 28.6841C27.1501 28.5246 27.2364 28.304 27.3303 27.9847C27.4196 27.6884 27.4576 27.4559 27.4201 27.2824C27.4006 27.192 27.3602 27.1155 27.2955 27.056C27.232 26.9976 27.1516 26.9616 27.0609 26.9403M29.0532 36.4688C29.7001 35.7844 30.2157 35.5313 30.9844 35.5406L25.0594 29.7375C24.9563 31.2938 25.3876 33.1781 26.1844 34.5938C26.5876 35.3156 28.1438 37.0313 28.3969 37.0313C28.4719 37.0313 28.7626 36.7781 29.0532 36.4688ZM27.0609 26.9403C27.0608 26.9402 27.0606 26.9402 27.0605 26.9402L27.0376 27.0375M27.0609 26.9403C27.061 26.9403 27.0611 26.9403 27.0612 26.9403L27.0376 27.0375M27.0609 26.9403C26.8811 26.8966 26.7209 26.8896 26.5898 26.9847C26.4657 27.0747 26.3931 27.2395 26.332 27.4602M27.0376 27.0375C26.6907 26.9531 26.5501 27.0469 26.4282 27.4875M26.332 27.4602C26.3321 27.46 26.3321 27.4597 26.3322 27.4595L26.4282 27.4875M26.332 27.4602C26.3319 27.4604 26.3319 27.4606 26.3318 27.4608L26.4282 27.4875M25.9782 30.15C25.9876 29.2125 26.0438 29.0625 26.4657 28.9219L27.8626 35.2969C26.6532 33.9656 25.9501 32.0531 25.9782 30.15Z" fill="#18181A" stroke="#18181A" stroke-width="0.2"/>
<path d="M11.1789 33.5874L11.1782 33.5875C9.13592 34.1124 7.50403 35.8007 7.07408 37.8354C6.98455 38.2501 6.93823 38.5795 6.93945 38.8306C6.94065 39.0764 6.98735 39.2713 7.1109 39.3898C7.20754 39.4887 7.31753 39.5481 7.43165 39.5654C7.5466 39.5829 7.65853 39.5565 7.75479 39.496C7.9461 39.3757 8.06875 39.1276 8.06875 38.8219C8.06875 37.8322 8.6537 36.5918 9.49954 35.8012L9.49989 35.8008C9.9934 35.335 10.4855 35.0201 11.0216 34.8335C11.5576 34.6468 12.1433 34.5864 12.8267 34.6372C13.5211 34.6931 13.8873 34.722 14.0913 34.716C14.1931 34.7129 14.2699 34.7012 14.3306 34.6698C14.3956 34.6361 14.4292 34.5861 14.4558 34.5449L14.4565 34.5439L14.4565 34.5439C14.6592 34.2219 14.4482 33.7937 14.0789 33.6564L11.1789 33.5874ZM11.1789 33.5874C11.4747 33.5134 12.0849 33.4883 12.6678 33.5012M11.1789 33.5874L12.6678 33.5012M12.6678 33.5012C12.9616 33.5077 13.2526 33.5239 13.4994 33.5493M12.6678 33.5012L13.4994 33.5493M13.4994 33.5493C13.7427 33.5743 13.9529 33.6092 14.0787 33.6563L13.4994 33.5493Z" fill="#18181A" stroke="#18181A" stroke-width="0.2"/>
<path d="M34.4173 34.7104C34.2574 34.7438 34.1199 34.7633 34.0034 34.7655C33.8875 34.7677 33.7851 34.753 33.7004 34.7118C33.5167 34.6225 33.4625 34.4359 33.4625 34.2094C33.4625 34.1336 33.4657 34.0618 33.4846 33.9977C33.5049 33.9288 33.5421 33.8722 33.602 33.8243C33.6585 33.7791 33.7328 33.7436 33.8243 33.7096C33.9167 33.6753 34.0343 33.6398 34.1819 33.5976C34.5266 33.4991 35.1287 33.4719 35.7231 33.4978C36.3184 33.5236 36.9281 33.6037 37.2894 33.7307L37.2902 33.7309C39.3787 34.4843 40.8302 36.3353 41.0308 38.4845L41.0309 38.4852C41.0541 38.755 41.0647 38.936 41.0506 39.067C41.0354 39.2074 40.9912 39.2971 40.9082 39.3801C40.7034 39.5849 40.4521 39.622 40.2491 39.4993C40.0535 39.3811 39.9313 39.1316 39.9313 38.8219C39.9313 37.8322 39.3463 36.5919 38.5005 35.8012L38.5002 35.8009C37.3817 34.7466 36.0093 34.3791 34.4173 34.7104ZM34.4173 34.7104L34.3969 34.6125L34.4172 34.7104C34.4173 34.7104 34.4173 34.7104 34.4173 34.7104Z" fill="#18181A" stroke="#18181A" stroke-width="0.2"/>
<path d="M2.60201 41.99L2.60201 41.99L2.60163 41.9892C2.38183 41.559 2.25839 41.2472 2.2532 40.9836C2.24776 40.7073 2.37136 40.4998 2.59184 40.2793L2.91059 39.9605L2.93988 39.9313H2.98131H11.0907H19.2094H19.259L19.289 39.9707L19.4656 40.2031C19.5771 40.3357 19.7122 40.5783 19.78 40.7432L19.7804 40.7441L19.8678 40.9625H24.0001H28.1324L28.2197 40.7441L28.2201 40.7432C28.288 40.5783 28.423 40.3357 28.5345 40.2031L28.7111 39.9707L28.7411 39.9313H28.7907H36.9094H45.0188H45.0602L45.0895 39.9605L45.4083 40.2793C45.6288 40.4998 45.7524 40.7073 45.7469 40.9836C45.7417 41.2472 45.6183 41.559 45.3985 41.9892L45.3981 41.99C44.7008 43.3272 43.3759 44.4129 41.8798 44.8798V44.8798L41.8791 44.8801C41.5993 44.965 41.2482 45.0063 38.9237 45.0285C36.591 45.0508 32.2591 45.0531 24.0001 45.0531C15.741 45.0531 11.4091 45.0508 9.07645 45.0285C6.75191 45.0063 6.4008 44.965 6.12101 44.8801L6.12101 44.8801L6.12026 44.8798C4.62425 44.4129 3.29928 43.3272 2.60201 41.99ZM18.7996 41.3943L18.7991 41.3933L18.6566 41.0687H10.9969H3.4443L3.66108 41.4953L3.66108 41.4953L3.66137 41.4959C4.1648 42.5028 5.0444 43.274 6.1855 43.7065L6.1855 43.7065L6.18638 43.7068L6.72198 43.9156H24.0001H41.2781L41.8137 43.7068L41.8146 43.7065C42.9557 43.274 43.8353 42.5028 44.3387 41.4959L44.339 41.4953L44.5558 41.0687H37.0032H29.3435L29.201 41.3933L29.2006 41.3943C29.1877 41.4227 29.1752 41.4514 29.163 41.4796C29.1409 41.5304 29.1195 41.5795 29.0981 41.6222C29.0631 41.6921 29.022 41.7581 28.9612 41.8156C28.8389 41.9313 28.6571 41.9938 28.3496 42.0324C27.8002 42.1015 26.7736 42.1011 24.7544 42.1002C24.5169 42.1001 24.2658 42.1 24.0001 42.1C23.7343 42.1 23.4832 42.1001 23.2457 42.1002C21.2265 42.1011 20.1999 42.1015 19.6505 42.0324C19.343 41.9938 19.1612 41.9313 19.0389 41.8156C18.9782 41.7581 18.937 41.6921 18.902 41.6222C18.8806 41.5795 18.8592 41.5304 18.8372 41.4796C18.8249 41.4514 18.8124 41.4227 18.7996 41.3943Z" fill="#18181A" stroke="#18181A" stroke-width="0.2"/>
</svg>
